<svg width="124" height="21" viewBox="0 0 124 21" fill="none" xmlns="http://www.w3.org/2000/svg">
<g id="active"  class="active">
<path id="logo-i" d="M47.2851 19.6158H38.8092C38.5946 19.6158 38.3887 19.5305 38.237 19.3788C38.0852 19.227 38 19.0212 38 18.8066V17.7648C38 17.5502 38.0852 17.3444 38.237 17.1927C38.3887 17.0409 38.5946 16.9557 38.8092 16.9557H41.7019V8.98547H39.8712C39.6566 8.98547 39.4508 8.90022 39.299 8.74847C39.1473 8.59672 39.062 8.39091 39.062 8.17631V7.10417C39.066 6.89221 39.153 6.69028 39.3043 6.5418C39.4556 6.39331 39.6592 6.31015 39.8712 6.31019H43.5478C43.7566 6.31497 43.9559 6.39834 44.1059 6.54366C44.2559 6.68897 44.3455 6.88553 44.3569 7.09406V16.9304H47.28C47.4902 16.937 47.6896 17.0251 47.8359 17.1761C47.9822 17.3272 48.064 17.5293 48.0639 17.7395V18.8016C48.064 19.0119 47.9822 19.2139 47.8359 19.365C47.6896 19.516 47.4902 19.6042 47.28 19.6107M43.8158 4.72221H41.6968C41.59 4.72356 41.4839 4.70359 41.3848 4.66346C41.2858 4.62334 41.1957 4.56387 41.1199 4.48853C41.0441 4.41319 40.9841 4.32349 40.9433 4.22468C40.9026 4.12587 40.8819 4.01993 40.8826 3.91306V1.75867C40.8943 1.55252 40.9848 1.35876 41.1355 1.21754C41.2861 1.07632 41.4853 0.998457 41.6918 1.00009H43.8158C43.9193 1.00274 44.0211 1.02654 44.1151 1.07003C44.209 1.11352 44.293 1.17577 44.362 1.25295C44.5 1.38654 44.583 1.56695 44.5946 1.75867V3.91306C44.5961 4.12288 44.5154 4.32495 44.3699 4.47613C44.2244 4.62731 44.0255 4.71562 43.8158 4.72221Z" fill="#00B9FF"/>
<path id="logo-t" d="M31.6604 19.8895C30.4585 19.8815 29.3086 19.3984 28.4616 18.5457C27.6145 17.693 27.1392 16.5399 27.1392 15.338V9.49685H25.7839C25.5741 9.48903 25.3755 9.40049 25.2294 9.24972C25.0833 9.09895 25.0012 8.8976 25 8.68769V7.64084C24.9999 7.43104 25.0819 7.22952 25.2283 7.07929C25.3748 6.92906 25.5741 6.84202 25.7839 6.83674H27.1392V1.7441C27.1484 1.53838 27.2387 1.34468 27.3903 1.20537C27.542 1.06605 27.7426 0.992455 27.9484 1.00068H29.0154C29.2191 1.00001 29.4156 1.07618 29.5656 1.21398C29.7156 1.35179 29.8081 1.54109 29.8246 1.7441V6.80134H34.3154C34.53 6.80134 34.7358 6.88659 34.8876 7.03833C35.0393 7.19008 35.1246 7.39589 35.1246 7.6105V8.65229C35.1246 8.86689 35.0393 9.0727 34.8876 9.22445C34.7358 9.37619 34.53 9.46144 34.3154 9.46144H29.8094V15.343C29.8094 15.8339 30.0044 16.3047 30.3516 16.6518C30.6987 16.999 31.1695 17.194 31.6604 17.194C32.1513 17.194 32.6221 16.999 32.9692 16.6518C33.3163 16.3047 33.5113 15.8339 33.5113 15.343V14.8373C33.5113 14.6227 33.5966 14.4169 33.7483 14.2651C33.9001 14.1134 34.1059 14.0281 34.3205 14.0281H35.3876C35.6022 14.0281 35.808 14.1134 35.9597 14.2651C36.1115 14.4169 36.1967 14.6227 36.1967 14.8373V15.343C36.1967 16.5501 35.7172 17.7078 34.8636 18.5614C34.01 19.415 32.8523 19.8945 31.6452 19.8945L31.6604 19.8895Z" fill="#00B9FF"/>
<path id="logo-c" d="M19.0674 19.8468H18.4908C17.2942 19.8308 16.1521 19.3443 15.3116 18.4924C14.4711 17.6406 13.9999 16.492 14 15.2953V10.4909C14.0013 9.30026 14.4749 8.15878 15.3168 7.31687C16.1587 6.47497 17.3002 6.0014 18.4908 6.00006H19.0674C20.2584 6.00006 21.4007 6.4732 22.2428 7.31539C23.085 8.15759 23.5582 9.29985 23.5582 10.4909C23.5609 10.7029 23.4803 10.9076 23.3337 11.0608C23.1871 11.214 22.9863 11.3036 22.7743 11.3102H21.7123C21.6069 11.3129 21.5021 11.2936 21.4046 11.2535C21.307 11.2135 21.2189 11.1535 21.1459 11.0775C21.073 11.0008 21.0163 10.9102 20.9789 10.8112C20.9416 10.7122 20.9244 10.6067 20.9284 10.501C20.9258 10.01 20.7292 9.54004 20.3816 9.19335C20.0339 8.84666 19.5634 8.65138 19.0724 8.65005H18.4908C18.0051 8.65663 17.5412 8.85284 17.1982 9.19679C16.8552 9.54074 16.6603 10.0052 16.6551 10.4909V15.3003C16.6576 15.7941 16.8532 16.2674 17.2 16.6189C17.5468 16.9704 18.0173 17.1724 18.5111 17.1816H19.0876C19.5813 17.1724 20.0518 16.9704 20.3987 16.6189C20.7455 16.2674 20.941 15.7941 20.9436 15.3003C20.9433 15.0926 21.023 14.8926 21.1661 14.742C21.3092 14.5914 21.5048 14.5016 21.7123 14.4912H22.7743C22.9841 14.499 23.1827 14.5875 23.3288 14.7383C23.4748 14.8891 23.557 15.0904 23.5582 15.3003C23.557 16.4961 23.0852 17.6434 22.2448 18.4942C21.4045 19.345 20.2631 19.8308 19.0674 19.8468Z" fill="#00B9FF"/>
<path id="logo-a" d="M6.12148 2.81753H5.43231L3.34452 10.7836H8.20928L6.12148 2.81753ZM10.6822 19.8442H9.50654C9.29033 19.8442 9.09777 19.7631 8.92885 19.6009C8.75994 19.4388 8.67548 19.2293 8.67548 18.9726V13.6011H2.89858V18.9726C2.89858 19.2293 2.81413 19.4388 2.64521 19.6009C2.4763 19.7631 2.27698 19.8442 2.04725 19.8442H0.891872C0.648634 19.8442 0.439179 19.7631 0.263508 19.6009C0.0878359 19.4388 0 19.2293 0 18.9726V12.1011L0.0405396 11.9187L3.06074 0.608124C3.10128 0.432451 3.20263 0.287184 3.36479 0.172321C3.52695 0.0574589 3.70938 2.86102e-05 3.91207 2.86102e-05H7.64172C7.84442 2.86102e-05 8.02685 0.0574589 8.189 0.172321C8.35116 0.287184 8.45251 0.432451 8.49305 0.608124L11.5335 11.9187L11.5538 12.1011V18.9726C11.5538 19.2293 11.466 19.4388 11.2903 19.6009C11.1146 19.7631 10.9119 19.8442 10.6822 19.8442Z" fill="#00B9FF"/>
<path id="logo-v" d="M55.4738 18.7807C55.4132 18.9256 55.3124 19.0502 55.1834 19.1398C55.0544 19.2294 54.9025 19.2803 54.7455 19.2864H52.9148C52.7583 19.2785 52.6072 19.2269 52.4785 19.1376C52.3498 19.0482 52.2486 18.9246 52.1866 18.7807L48.0598 7.07826C48.0093 6.95682 47.9903 6.82454 48.0047 6.69377C48.019 6.563 48.0663 6.43801 48.1421 6.33045C48.2178 6.22289 48.3196 6.13627 48.4378 6.07867C48.5561 6.02108 48.687 5.99438 48.8184 6.00107H50.2294C50.3906 6.00825 50.5468 6.05909 50.6813 6.14817C50.8158 6.23724 50.9235 6.3612 50.993 6.50679L53.8453 15.7919L56.9656 6.50679C57.0329 6.36056 57.1394 6.23587 57.2734 6.14658C57.4073 6.0573 57.5634 6.00693 57.7242 6.00107H58.8469C58.9773 5.9961 59.1068 6.02373 59.2237 6.08145C59.3407 6.13916 59.4414 6.22515 59.5167 6.33162C59.592 6.43808 59.6396 6.56166 59.6551 6.69115C59.6706 6.82064 59.6536 6.95196 59.6055 7.0732L55.4738 18.7807Z" fill="#00B9FF"/>
<path id="logo-o" d="M66.0724 19.8468H65.4908C64.2942 19.8308 63.1521 19.3443 62.3116 18.4924C61.4711 17.6406 60.9999 16.492 61 15.2953V10.4909C61.0027 9.30067 61.4767 8.15996 62.3183 7.31835C63.1599 6.47673 64.3006 6.00273 65.4908 6.00006H66.0724C67.263 6.0014 68.4045 6.47497 69.2464 7.31687C70.0883 8.15878 70.5619 9.30026 70.5632 10.4909V15.3003C70.562 16.4961 70.0902 17.6434 69.2499 18.4942C68.4095 19.345 67.2681 19.8308 66.0724 19.8468ZM67.9234 10.4909C67.9207 10.0008 67.7248 9.53155 67.3783 9.18501C67.0317 8.83846 66.5625 8.6426 66.0724 8.63994H65.4908C65.0012 8.64391 64.5327 8.84019 64.1864 9.18645C63.8401 9.53272 63.6438 10.0012 63.6399 10.4909V15.3003C63.6411 15.7937 63.8356 16.2669 64.1816 16.6186C64.5276 16.9702 64.9976 17.1724 65.4908 17.1816H66.0724C66.5657 17.1724 67.0357 16.9702 67.3817 16.6186C67.7277 16.2669 67.9221 15.7937 67.9234 15.3003V10.4909Z" fill="#00B9FF"/>
<path id="logo-b" d="M81.775 14.2909C81.775 13.738 81.5793 13.2693 81.1878 12.885C80.7964 12.5006 80.3239 12.3084 79.7705 12.3084H76.8954V17.9525H79.7705C80.3239 17.9525 80.7964 17.7637 81.1878 17.3861C81.5793 17.0084 81.775 16.5432 81.775 15.9902V14.2909ZM81.4713 5.77422C81.4713 5.23476 81.2789 4.77285 80.8942 4.38848C80.5095 4.00412 80.0337 3.81194 79.4668 3.81194H76.8954V9.47625H79.4668C80.0337 9.47625 80.5095 9.27732 80.8942 8.87947C81.2789 8.48162 81.4713 8.01297 81.4713 7.47351V5.77422ZM79.7705 20.8049H74.8504C74.6209 20.8049 74.4218 20.724 74.2531 20.5621C74.0844 20.4003 74 20.1912 74 19.935V1.8092C74 1.57993 74.0844 1.38775 74.2531 1.23265C74.4218 1.07756 74.6209 1.00001 74.8504 1.00001H79.4668C80.1417 1.00001 80.7761 1.12139 81.37 1.36415C81.964 1.6069 82.4836 1.94406 82.9291 2.37563C83.3745 2.8072 83.7187 3.31294 83.9617 3.89286C84.2182 4.48626 84.3464 5.11338 84.3464 5.77422V7.47351C84.3464 8.10737 84.235 8.70078 84.0123 9.25372C83.7896 9.80667 83.4825 10.2989 83.0911 10.7305C83.5635 11.1755 83.9448 11.7049 84.235 12.3185C84.5252 12.9322 84.6704 13.5896 84.6704 14.2909V15.9902C84.6704 16.651 84.5421 17.2714 84.2857 17.8513C84.0292 18.4313 83.6782 18.9404 83.2328 19.3787C82.7873 19.817 82.2677 20.1643 81.6737 20.4205C81.0798 20.6767 80.4454 20.8049 79.7705 20.8049Z" fill="black"/>
<path id="logo-a2" d="M96.8262 20.5585H96.28C95.9585 20.5559 95.6406 20.4897 95.3447 20.3638C95.0487 20.238 94.7805 20.055 94.5555 19.8252C93.6512 20.459 92.5796 20.811 91.4757 20.8367H90.9699C90.4623 20.8584 89.9555 20.7782 89.4793 20.601C89.0031 20.4238 88.5672 20.1531 88.1972 19.8048C87.8273 19.4565 87.5308 19.0377 87.3252 18.5731C87.1195 18.1085 87.009 17.6074 87 17.0994V16.5633C87 13.9487 89.0886 13.1396 90.8384 12.6187C91.2835 12.4872 93.9183 12.113 93.9183 11.1319C93.9183 10.1507 93.2406 9.61468 92.0674 9.61468H91.7791C91.5347 9.61666 91.2931 9.66677 91.068 9.76213C90.843 9.8575 90.639 9.99626 90.4675 10.1705C90.2961 10.3447 90.1607 10.551 90.069 10.7776C89.9774 11.0041 89.9312 11.2465 89.9332 11.4909C89.9332 11.5972 89.9123 11.7024 89.8716 11.8006C89.8309 11.8987 89.7713 11.9879 89.6962 12.0631C89.6211 12.1382 89.5319 12.1978 89.4337 12.2385C89.3355 12.2791 89.2303 12.3001 89.124 12.3001H88.0822C87.9758 12.3007 87.8703 12.2803 87.7718 12.2398C87.6733 12.1994 87.5839 12.1398 87.5086 12.0646C87.4333 11.9893 87.3737 11.8998 87.3333 11.8014C87.2929 11.7029 87.2724 11.5974 87.2731 11.4909C87.2751 10.8992 87.3936 10.3136 87.6219 9.76769C87.8502 9.22176 88.1838 8.72614 88.6036 8.30913C89.0234 7.89212 89.5213 7.56188 90.0687 7.33727C90.6162 7.11267 91.2025 6.99809 91.7943 7.00009H92.0775C94.4038 7.00009 96.5734 8.61335 96.5734 11.2583V17.6304C96.5773 17.7024 96.609 17.7701 96.6618 17.8191C96.7147 17.8682 96.7845 17.8948 96.8566 17.8934C97.0672 17.8987 97.2673 17.9864 97.4139 18.1377C97.5605 18.2891 97.6418 18.4919 97.6404 18.7025V19.7443C97.6411 19.8514 97.6205 19.9576 97.5798 20.0567C97.5391 20.1558 97.4792 20.2458 97.4035 20.3216C97.3277 20.3973 97.2377 20.4573 97.1386 20.4979C97.0395 20.5386 96.9333 20.5592 96.8262 20.5585ZM93.9031 13.9841C92.6894 14.5809 91.7892 14.6112 90.7929 15.0512C90.4718 15.1561 90.189 15.3538 89.9802 15.6194C89.7714 15.8849 89.6459 16.2063 89.6197 16.5431V16.9477C89.625 17.1159 89.664 17.2813 89.7343 17.4342C89.8047 17.5871 89.905 17.7243 90.0293 17.8378C90.1537 17.9512 90.2999 18.0379 90.4591 18.0927C90.6182 18.1475 90.7869 18.1692 90.9548 18.1564H91.4605C92.7653 18.1564 93.8829 17.3978 93.8829 16.2751L93.9031 13.9841Z" fill="black"/>
<path id="logo-n" d="M108.764 20.5689H107.717C107.504 20.5676 107.299 20.4817 107.148 20.3301C106.998 20.1785 106.913 19.9735 106.913 19.7598V11.5013C106.914 11.2567 106.866 11.0145 106.772 10.7886C106.679 10.5628 106.541 10.3578 106.367 10.1856C106.194 10.0134 105.988 9.87736 105.761 9.78548C105.534 9.6936 105.292 9.64766 105.047 9.65034H104.541C104.048 9.65158 103.575 9.84604 103.223 10.192C102.871 10.538 102.669 11.008 102.66 11.5013V19.7547C102.665 19.8606 102.649 19.9664 102.611 20.0655C102.574 20.1647 102.516 20.2552 102.443 20.3312C102.37 20.4069 102.283 20.4666 102.186 20.5066C102.09 20.5467 101.986 20.5662 101.881 20.5639H100.809C100.595 20.5639 100.389 20.4786 100.237 20.3269C100.085 20.1751 100 19.9693 100 19.7547V8.05226C100.013 7.84413 100.103 7.64824 100.252 7.50316C100.402 7.35808 100.601 7.27432 100.809 7.26838H101.866C102.082 7.27013 102.288 7.35531 102.443 7.50607C103.084 7.16586 103.8 6.99198 104.526 7.00035H105.032C106.227 6.999 107.373 7.4716 108.22 8.31445C109.066 9.15731 109.544 10.3016 109.548 11.4962V19.7547C109.551 19.8613 109.533 19.9674 109.495 20.0668C109.456 20.1661 109.397 20.2565 109.323 20.3326C109.248 20.4087 109.159 20.4689 109.06 20.5095C108.961 20.5501 108.856 20.5703 108.749 20.5689H108.764Z" fill="black"/>
<path id="logo-k" d="M122.664 20.6006H121.279C121.048 20.5685 120.835 20.4578 120.677 20.2871L116.343 14.8809L115.635 15.5586V19.7864C115.639 19.8921 115.622 19.9976 115.584 20.0966C115.547 20.1956 115.49 20.2862 115.417 20.3629C115.344 20.4384 115.256 20.4981 115.158 20.5381C115.061 20.5781 114.956 20.5977 114.851 20.5956H113.784C113.574 20.589 113.374 20.5008 113.228 20.3498C113.082 20.1988 113 19.9967 113 19.7864V2.74351C113.012 2.54313 113.099 2.3547 113.245 2.21658C113.39 2.07846 113.583 2.00105 113.784 2.00009H114.851C115.056 1.9982 115.254 2.07619 115.402 2.21756C115.545 2.35586 115.629 2.54457 115.635 2.74351V11.796L119.923 7.53777C120.08 7.39457 120.283 7.31207 120.495 7.30514H122.012C122.176 7.28908 122.342 7.32673 122.483 7.41247C122.624 7.4982 122.733 7.62738 122.795 7.78064C122.856 7.93391 122.867 8.10299 122.824 8.26253C122.781 8.42207 122.688 8.56348 122.558 8.66554L118.249 12.9743L123.307 19.2908C123.414 19.4049 123.484 19.5487 123.508 19.7034C123.532 19.858 123.509 20.0164 123.442 20.1578C123.375 20.2992 123.267 20.4171 123.132 20.4961C122.997 20.5751 122.841 20.6115 122.685 20.6006H122.664Z" fill="black"/>
</g>
</svg>
