<svg width="30" height="24" viewBox="0 0 30 24" fill="none" xmlns="http://www.w3.org/2000/svg">
<path id="Vector" d="M24.8341 0.2225C24.9248 0.2225 25.0155 0.233841 25.1063 0.256523C25.197 0.279205 25.2877 0.313229 25.3785 0.358593C25.4465 0.403957 25.5146 0.460665 25.5826 0.528711C25.6506 0.596758 25.7187 0.676146 25.7867 0.766874C25.8321 0.834921 25.8661 0.91431 25.8888 1.00504C25.9115 1.09577 25.9228 1.1865 25.9228 1.27723V21.1469C25.9228 21.2603 25.9115 21.3624 25.8888 21.4531C25.8661 21.5439 25.8321 21.6232 25.7867 21.6913C25.7414 21.782 25.679 21.8614 25.5996 21.9295C25.5202 21.9975 25.4465 22.0542 25.3785 22.0996C25.2877 22.1449 25.197 22.179 25.1063 22.2016C25.0155 22.2243 24.9248 22.2357 24.8341 22.2357C24.7434 22.2357 24.647 22.2243 24.5449 22.2016C24.4428 22.179 24.3578 22.1449 24.2897 22.0996L22.9288 21.1809C21.9307 20.5232 20.91 19.9448 19.8667 19.4457C18.8006 18.924 17.7118 18.4817 16.6004 18.1188C15.489 17.7559 14.3549 17.4724 13.1981 17.2682C12.0413 17.0414 10.8845 16.9053 9.72768 16.86C9.84109 17.7219 10.0963 18.5385 10.4932 19.3096C10.8901 20.0808 11.3948 20.7613 12.0072 21.3511C12.1207 21.4418 12.2057 21.5552 12.2624 21.6913C12.3191 21.8274 12.3475 21.9635 12.3475 22.0996C12.3475 22.1676 12.3418 22.2357 12.3305 22.3037C12.3191 22.3718 12.3021 22.4285 12.2794 22.4738C12.2568 22.5419 12.2227 22.6043 12.1774 22.661C12.132 22.7177 12.0866 22.7687 12.0413 22.8141C11.9959 22.8821 11.9449 22.9331 11.8882 22.9672C11.8315 23.0012 11.7691 23.0409 11.701 23.0862C11.633 23.1089 11.5649 23.1259 11.4969 23.1373C11.4288 23.1486 11.3608 23.1543 11.2928 23.1543C11.1567 23.1543 11.0262 23.1316 10.9015 23.0862C10.7767 23.0409 10.6576 22.9728 10.5442 22.8821C9.72768 22.0655 9.06422 21.1412 8.55387 20.1092C8.04352 19.0772 7.72029 17.9827 7.5842 16.8259H5.849C5.12317 16.8033 4.43703 16.6445 3.79059 16.3496C3.14414 16.0547 2.57141 15.6465 2.0724 15.1248C1.57339 14.6031 1.18779 14.0077 0.915605 13.3385C0.643418 12.6694 0.507324 11.9719 0.507324 11.2461C0.507324 10.5429 0.643418 9.8568 0.915605 9.18768C1.18779 8.51855 1.57339 7.92314 2.0724 7.40145C2.57141 6.87975 3.14414 6.47147 3.79059 6.1766C4.43703 5.88173 5.12317 5.71161 5.849 5.66625H8.57088C9.84109 5.66625 11.1113 5.57552 12.3815 5.39406C13.629 5.2126 14.8595 4.93475 16.073 4.56049C17.2866 4.18623 18.4604 3.73825 19.5945 3.21656C20.7513 2.67219 21.8627 2.03708 22.9288 1.31125L24.2897 0.358593C24.3578 0.313229 24.4428 0.279205 24.5449 0.256523C24.647 0.233841 24.7434 0.2225 24.8341 0.2225ZM5.849 14.7165H7.51615V7.7757H5.849C5.39536 7.79839 4.97007 7.90613 4.57312 8.09893C4.17618 8.29173 3.83028 8.5469 3.53541 8.86445C3.21786 9.182 2.97969 9.55059 2.82092 9.97021C2.66214 10.3898 2.58275 10.8151 2.58275 11.2461C2.58275 11.6997 2.66214 12.1307 2.82092 12.539C2.97969 12.9473 3.21786 13.3102 3.53541 13.6277C3.83028 13.968 4.17618 14.2288 4.57312 14.4103C4.97007 14.5917 5.39536 14.6938 5.849 14.7165ZM9.62561 14.7165C10.8958 14.7845 12.1433 14.9206 13.3682 15.1248C14.6157 15.3516 15.8349 15.6521 17.0257 16.0264C18.2165 16.4006 19.379 16.86 20.5131 17.4043C21.6472 17.9487 22.7473 18.5611 23.8134 19.2416V3.25059C22.7473 3.95374 21.6472 4.56616 20.5131 5.08785C19.379 5.63223 18.2165 6.09154 17.0257 6.4658C15.8349 6.84006 14.6157 7.1406 13.3682 7.36742C12.1433 7.59424 10.8958 7.73034 9.62561 7.7757V14.7165ZM28.1003 8.45617C28.1684 8.43349 28.2364 8.41648 28.3045 8.40514C28.3725 8.3938 28.4406 8.38812 28.5086 8.38812C28.6447 8.38812 28.7751 8.41648 28.8999 8.47318C29.0246 8.52989 29.1324 8.60361 29.2231 8.69434C29.3365 8.78506 29.4159 8.89848 29.4613 9.03457C29.5066 9.17066 29.5293 9.30676 29.5293 9.44285V13.0493C29.552 13.1401 29.5577 13.2195 29.5463 13.2875C29.535 13.3555 29.518 13.4236 29.4953 13.4916C29.4726 13.5597 29.4443 13.6277 29.4102 13.6958C29.3762 13.7638 29.3365 13.8319 29.2912 13.8999C29.2231 13.9453 29.1607 13.9907 29.104 14.036C29.0473 14.0814 28.9849 14.1154 28.9169 14.1381C28.8488 14.1835 28.7808 14.2118 28.7128 14.2231C28.6447 14.2345 28.5653 14.2402 28.4746 14.2402C28.4065 14.2402 28.3385 14.2345 28.2704 14.2231C28.2024 14.2118 28.1344 14.1835 28.0663 14.1381C27.9983 14.1154 27.9302 14.0814 27.8622 14.036C27.7941 13.9907 27.7374 13.9453 27.6921 13.8999C27.6467 13.8319 27.607 13.7638 27.573 13.6958C27.5389 13.6277 27.5106 13.5597 27.4879 13.4916C27.4652 13.4236 27.4482 13.3555 27.4369 13.2875C27.4255 13.2195 27.4199 13.1401 27.4199 13.0493V9.44285C27.4199 9.3748 27.4312 9.30676 27.4539 9.23871C27.4766 9.17066 27.4993 9.10262 27.5219 9.03457C27.5446 8.96652 27.573 8.90415 27.607 8.84744C27.641 8.79074 27.6921 8.7397 27.7601 8.69434C27.8055 8.64897 27.8565 8.60361 27.9132 8.55824C27.9699 8.51288 28.0323 8.47885 28.1003 8.45617Z" fill="#00B9FF"/>
</svg>
