<svg width="49" height="49" viewBox="0 0 49 49" fill="none" xmlns="http://www.w3.org/2000/svg">
<g id="background-mobile" class="background-mobile">
<rect x="0.615479" y="0.516113" width="48" height="48" rx="12" fill="#00B9FF"/>
<g id="Container">
<g id="Container_2">
<g id="Icon">
<path id="Vector" d="M27.968 13.7959H21.8218C21.4027 13.7959 20.9992 13.8735 20.6111 14.0287C20.2231 14.1839 19.8817 14.4167 19.5868 14.7271C19.2919 15.022 19.0629 15.3635 18.9 15.7515C18.737 16.1395 18.6555 16.5431 18.6555 16.9621V30.4885C18.6555 30.9076 18.737 31.3111 18.9 31.6992C19.0629 32.0872 19.2919 32.4286 19.5868 32.7235C19.8817 33.0184 20.2231 33.2474 20.6111 33.4103C20.9992 33.5733 21.4027 33.6548 21.8218 33.6548H27.968C28.3871 33.6548 28.7906 33.5733 29.1786 33.4103C29.5667 33.2474 29.9159 33.0184 30.2263 32.7235C30.5212 32.4286 30.7501 32.0872 30.9131 31.6992C31.0761 31.3111 31.1575 30.9076 31.1575 30.4885V16.9621C31.1575 16.5431 31.0761 16.1395 30.9131 15.7515C30.7501 15.3635 30.5212 15.022 30.2263 14.7271C29.9159 14.4167 29.5667 14.1839 29.1786 14.0287C28.7906 13.8735 28.3871 13.7959 27.968 13.7959ZM20.099 28.5329V16.9621C20.099 16.7293 20.1416 16.5081 20.227 16.2986C20.3124 16.0891 20.4327 15.899 20.5879 15.7282C20.7586 15.573 20.9487 15.4488 21.1583 15.3557C21.3678 15.2626 21.589 15.216 21.8218 15.216H27.968C28.2008 15.216 28.4259 15.2626 28.6432 15.3557C28.8605 15.4488 29.0467 15.573 29.2019 15.7282C29.3727 15.899 29.5007 16.0891 29.5861 16.2986C29.6714 16.5081 29.7141 16.7293 29.7141 16.9621V28.5329H20.099ZM29.7374 30.4885C29.7374 30.5972 29.7258 30.7097 29.7025 30.8261C29.6792 30.9425 29.6443 31.0473 29.5977 31.1404C29.5511 31.2491 29.4968 31.3499 29.4347 31.4431C29.3727 31.5362 29.3028 31.6293 29.2252 31.7224C29.1476 31.8 29.0584 31.8699 28.9575 31.932C28.8566 31.9941 28.7518 32.0484 28.6432 32.0949C28.55 32.1415 28.4453 32.1725 28.3289 32.1881C28.2125 32.2036 28.0999 32.2113 27.9913 32.2113H21.845C21.6122 32.2113 21.3911 32.1687 21.1815 32.0833C20.972 31.9979 20.7819 31.8699 20.6111 31.6992C20.4559 31.544 20.3318 31.3616 20.2386 31.1521C20.1455 30.9425 20.099 30.7213 20.099 30.4885V29.9763H29.7374V30.4885Z" fill="white"/>
</g>
</g>
</g>
</g>
</svg>
