<svg width="49" height="49" viewBox="0 0 49 49" fill="none" xmlns="http://www.w3.org/2000/svg">
<g id="background-avião" class="background-avião">
<rect x="0.615479" y="0.516113" width="48" height="48" rx="12" fill="#00B9FF"/>
<g id="Container">
<g id="Container_2">
<g id="Icon">
<path id="Vector" d="M22.5202 15.9373C22.753 15.8287 22.9974 15.7744 23.2535 15.7744C23.5096 15.7744 23.7541 15.8287 23.9869 15.9373L27.5722 17.7533L30.1331 16.4728C30.6298 16.2245 31.1498 16.1158 31.693 16.1469C32.2362 16.1779 32.7329 16.3486 33.183 16.659C33.6331 16.9539 33.9823 17.3458 34.2306 17.8347C34.479 18.3237 34.5799 18.8397 34.5333 19.3829C34.5023 19.9262 34.3354 20.4267 34.0328 20.8846C33.7301 21.3425 33.3382 21.6878 32.8571 21.9206L30.1331 23.2709L28.5733 29.8129C28.5112 30.0458 28.4065 30.2553 28.259 30.4415C28.1116 30.6278 27.9292 30.7752 27.7119 30.8839L26.0822 31.6987C25.8339 31.8229 25.57 31.8811 25.2906 31.8733C25.0113 31.8656 24.7474 31.7841 24.4991 31.6289C24.2663 31.4737 24.0839 31.2758 23.952 31.0352C23.82 30.7946 23.7541 30.5347 23.7541 30.2553V26.4372L21.5424 27.5314C21.0767 27.7642 20.5917 27.8496 20.0873 27.7875C19.5829 27.7254 19.1289 27.5236 18.7253 27.1822L15.2564 24.2254C15.0391 24.0547 14.8839 23.8413 14.7908 23.5852C14.6977 23.3291 14.6666 23.0691 14.6977 22.8053C14.7287 22.5259 14.8218 22.2776 14.9771 22.0603C15.1323 21.843 15.3418 21.6723 15.6056 21.5481L17.4449 20.7333C17.5535 20.6867 17.666 20.6712 17.7824 20.6867C17.8988 20.7022 18.0036 20.741 18.0967 20.8031L19.4703 21.8508L22.0778 20.547L20.6577 19.4761C20.4559 19.3209 20.3007 19.1307 20.1921 18.9057C20.0834 18.6806 20.0291 18.4362 20.0291 18.1723V18.0326C20.0601 17.7533 20.1532 17.4972 20.3085 17.2644C20.4637 17.0315 20.6654 16.8531 20.9138 16.7289L22.5202 15.9373ZM30.7385 17.6369L27.9214 19.057C27.9059 19.0725 27.8904 19.0842 27.8749 19.0919C27.8593 19.0997 27.8361 19.1036 27.805 19.1036L19.7031 23.2011C19.5945 23.2632 19.4781 23.2864 19.3539 23.2709C19.2298 23.2554 19.1134 23.2088 19.0047 23.1312L17.6078 22.0836L16.1644 22.7122C16.1178 22.7432 16.079 22.7781 16.048 22.8169C16.0169 22.8557 16.0014 22.9062 16.0014 22.9683C15.9859 23.0148 15.9898 23.0614 16.0131 23.1079C16.0363 23.1545 16.0635 23.1933 16.0946 23.2244L19.5867 26.2044C19.773 26.3596 19.9942 26.4527 20.2503 26.4837C20.5063 26.5148 20.743 26.476 20.9603 26.3673L24.1266 24.8075C24.3439 24.6988 24.5534 24.7066 24.7552 24.8308C24.9569 24.9549 25.0578 25.1412 25.0578 25.3895V30.2786C25.0578 30.3251 25.0695 30.3717 25.0928 30.4183C25.116 30.4648 25.151 30.4959 25.1975 30.5114C25.2441 30.5424 25.2945 30.5579 25.3488 30.5579C25.4032 30.5579 25.4536 30.5502 25.5002 30.5347L27.1299 29.7198C27.1764 29.7043 27.2113 29.6771 27.2346 29.6383C27.2579 29.5995 27.2773 29.5569 27.2928 29.5103L28.9225 22.6656C28.9536 22.5725 28.9962 22.491 29.0506 22.4212C29.1049 22.3513 29.1786 22.2931 29.2717 22.2465L32.275 20.7565C32.5544 20.6169 32.7794 20.419 32.9502 20.1629C33.1209 19.9068 33.214 19.6235 33.2296 19.3131C33.2606 19.0027 33.2063 18.7078 33.0666 18.4284C32.9269 18.149 32.7251 17.924 32.4613 17.7533C32.1974 17.5825 31.9103 17.4855 31.5999 17.4622C31.2894 17.439 31.0023 17.4972 30.7385 17.6369ZM23.3816 17.1014C23.3505 17.0859 23.3079 17.0781 23.2535 17.0781C23.1992 17.0781 23.1488 17.0936 23.1022 17.1247L21.4958 17.9162C21.4492 17.9318 21.4104 17.9628 21.3794 18.0094C21.3484 18.0559 21.3328 18.1025 21.3328 18.149C21.3328 18.2111 21.3445 18.2654 21.3678 18.312C21.391 18.3586 21.4182 18.3974 21.4492 18.4284L23.3816 19.8719L26.1288 18.4983L23.3816 17.1014Z" fill="white"/>
</g>
</g>
</g>
</g>
</svg>
