<svg width="49" height="49" viewBox="0 0 49 49" fill="none" xmlns="http://www.w3.org/2000/svg">
<g id="background-relogio" class="background-relogio">
<rect x="0.615479" y="0.516113" width="48" height="48" rx="12" fill="#00B9FF"/>
<g id="Container">
<g id="Container_2">
<g id="Icon">
<path id="Vector" d="M19.0978 15.4488C19.9205 14.9056 20.8013 14.4904 21.7403 14.2033C22.6793 13.9162 23.6377 13.7804 24.6155 13.7959C25.2829 13.7959 25.9348 13.858 26.5711 13.9821C27.2075 14.1063 27.8244 14.2925 28.422 14.5409C29.0195 14.7892 29.5899 15.0919 30.1332 15.4488C30.6764 15.8213 31.1808 16.2404 31.6464 16.706C32.1121 17.1717 32.5234 17.6761 32.8803 18.2193C33.2373 18.7625 33.54 19.3291 33.7883 19.9188C34.0366 20.5086 34.2229 21.1295 34.3471 21.7813C34.4868 22.4177 34.5566 23.0618 34.5566 23.7137C34.5566 24.707 34.413 25.6732 34.1259 26.6122C33.8388 27.5512 33.4236 28.4243 32.8803 29.2313C32.3371 30.054 31.6852 30.7757 30.9247 31.3965C30.1642 32.0173 29.3261 32.514 28.4103 32.8865C27.5101 33.2745 26.5711 33.5151 25.5933 33.6082C24.6155 33.7013 23.6455 33.6548 22.6832 33.4685C21.7209 33.2668 20.8051 32.9369 19.936 32.4791C19.0668 32.0212 18.283 31.4431 17.5846 30.7446C16.8861 30.0462 16.308 29.2624 15.8501 28.3932C15.3922 27.5241 15.0624 26.6083 14.8607 25.646C14.6744 24.6837 14.6317 23.7137 14.7326 22.7359C14.8335 21.7581 15.0702 20.8191 15.4427 19.9188C15.8152 19.0031 16.3157 18.165 16.9443 17.4045C17.5729 16.644 18.2908 15.9921 19.0978 15.4488ZM19.9593 30.6981C20.6422 31.1637 21.3833 31.5168 22.1826 31.7574C22.9819 31.9979 23.7929 32.1182 24.6155 32.1182C25.733 32.1182 26.8039 31.9048 27.8283 31.478C28.8527 31.0512 29.7607 30.442 30.5522 29.6504C31.3438 28.8588 31.953 27.9509 32.3798 26.9265C32.8066 25.9021 33.02 24.8312 33.02 23.7137C33.02 22.8911 32.8997 22.0801 32.6592 21.2808C32.4186 20.4815 32.0655 19.7326 31.5999 19.0342C31.1498 18.3512 30.6027 17.7459 29.9586 17.2182C29.3144 16.6905 28.6044 16.2637 27.8283 15.9378C27.0678 15.6273 26.2724 15.4294 25.442 15.3441C24.6116 15.2587 23.7929 15.3014 22.9858 15.4721C22.1632 15.6273 21.3872 15.9028 20.6577 16.2986C19.9282 16.6944 19.2686 17.1872 18.6788 17.777C18.089 18.3512 17.5962 19.007 17.2004 19.7442C16.8046 20.4815 16.5291 21.2536 16.3739 22.0607C16.2032 22.8833 16.1605 23.7098 16.2459 24.5402C16.3313 25.3705 16.5369 26.166 16.8628 26.9265C17.1733 27.7025 17.5923 28.4087 18.12 29.0451C18.6477 29.6815 19.2608 30.2324 19.9593 30.6981ZM25.3838 20.431V23.3878L29.2485 27.2524C29.2795 27.299 29.3106 27.3417 29.3416 27.3805C29.3726 27.4193 29.3959 27.462 29.4114 27.5085C29.4425 27.5551 29.4619 27.6017 29.4696 27.6482C29.4774 27.6948 29.4813 27.7491 29.4813 27.8112C29.4813 27.8578 29.4774 27.9043 29.4696 27.9509C29.4619 27.9974 29.4425 28.044 29.4114 28.0906C29.3959 28.1371 29.3726 28.1837 29.3416 28.2303C29.3106 28.2768 29.2795 28.3156 29.2485 28.3467C29.2174 28.3777 29.1786 28.4087 29.1321 28.4398C29.0855 28.4708 29.0389 28.4941 28.9924 28.5096C28.9458 28.5251 28.8993 28.5407 28.8527 28.5562C28.8061 28.5717 28.7596 28.5795 28.713 28.5795C28.6664 28.5795 28.616 28.5717 28.5617 28.5562C28.5074 28.5407 28.4569 28.5251 28.4103 28.5096C28.3638 28.4941 28.3211 28.4708 28.2823 28.4398C28.2435 28.4087 28.2086 28.3777 28.1775 28.3467L24.08 24.2492C24.049 24.2181 24.018 24.1832 23.9869 24.1444C23.9559 24.1056 23.9326 24.0629 23.9171 24.0163C23.9015 23.9698 23.886 23.9193 23.8705 23.865C23.855 23.8107 23.8472 23.7603 23.8472 23.7137V20.431C23.8627 20.3379 23.8938 20.2487 23.9403 20.1633C23.9869 20.0779 24.0412 20.0042 24.1033 19.9421C24.1809 19.88 24.2624 19.8335 24.3478 19.8024C24.4331 19.7714 24.5224 19.7559 24.6155 19.7559C24.7086 19.7559 24.8018 19.7714 24.8949 19.8024C24.988 19.8335 25.0656 19.88 25.1277 19.9421C25.2053 20.0042 25.2635 20.0779 25.3023 20.1633C25.3411 20.2487 25.3683 20.3379 25.3838 20.431Z" fill="white"/>
</g>
</g>
</g>
</g>
</svg>
