<svg width="27" height="34" viewBox="0 0 27 34" fill="none" xmlns="http://www.w3.org/2000/svg">
<path id="Vector" d="M20.3564 17.86C20.3564 17.9846 20.3408 18.1014 20.3097 18.2104C20.2785 18.3194 20.2318 18.4206 20.1695 18.5141C20.1072 18.6075 20.0293 18.6932 19.9359 18.771C19.8425 18.8489 19.749 18.9034 19.6556 18.9346C19.5622 18.9657 19.4531 18.9891 19.3286 19.0046C19.204 19.0202 19.095 19.0124 19.0015 18.9813C18.877 18.9501 18.7679 18.9112 18.6745 18.8645C18.5811 18.8178 18.4876 18.7477 18.3942 18.6542C18.3319 18.5919 18.2696 18.5063 18.2073 18.3973C18.145 18.2883 18.1139 18.1871 18.1139 18.0936C18.0827 17.969 18.0749 17.8522 18.0905 17.7432C18.1061 17.6342 18.145 17.5174 18.2073 17.3928C18.2385 17.2994 18.293 17.2137 18.3708 17.1359C18.4487 17.058 18.5343 16.9879 18.6278 16.9256C18.7212 16.8634 18.8224 16.8166 18.9315 16.7855C19.0405 16.7543 19.1573 16.7388 19.2818 16.7388C19.4376 16.7388 19.5777 16.7699 19.7023 16.8322C19.8269 16.8945 19.9359 16.9724 20.0293 17.0658C20.1539 17.1904 20.2396 17.3228 20.2863 17.4629C20.333 17.6031 20.3564 17.7354 20.3564 17.86ZM25.075 9.31049L25.0283 9.12361C24.9348 8.99903 24.8258 8.89781 24.7012 8.81994C24.5766 8.74208 24.4365 8.68757 24.2808 8.65643C24.1562 8.62528 24.016 8.62528 23.8603 8.65643C23.7046 8.68757 23.5644 8.73429 23.4398 8.79658C23.3152 8.89002 23.214 8.99903 23.1361 9.12361C23.0583 9.2482 22.9882 9.37278 22.9259 9.49736C22.8948 9.65309 22.887 9.80103 22.9026 9.94119C22.9181 10.0813 22.9726 10.2137 23.0661 10.3383L23.1595 10.5252C23.4398 10.9612 23.6501 11.4206 23.7902 11.9034C23.9304 12.3861 24.0004 12.8923 24.0004 13.4217V29.2594C24.0004 29.4774 23.9615 29.6721 23.8836 29.8434C23.8058 30.0147 23.689 30.1782 23.5333 30.3339C23.4087 30.4585 23.2529 30.5597 23.0661 30.6376C22.8792 30.7155 22.6923 30.7544 22.5054 30.7544H4.61216C4.42529 30.7544 4.23841 30.7155 4.05154 30.6376C3.86466 30.5597 3.70893 30.4585 3.58435 30.3339C3.42862 30.1782 3.31182 30.0147 3.23396 29.8434C3.15609 29.6721 3.11716 29.4774 3.11716 29.2594V12.7677C3.11716 12.5497 3.14831 12.3394 3.2106 12.137C3.27289 11.9345 3.36633 11.7399 3.49091 11.553C3.58435 11.3661 3.70893 11.2026 3.86466 11.0624C4.02039 10.9223 4.20726 10.7899 4.42529 10.6653L5.82685 9.91783C6.01372 9.82439 6.17724 9.69981 6.3174 9.54408C6.45755 9.38835 6.58992 9.23262 6.7145 9.07689C6.80794 8.89002 6.88581 8.69536 6.9481 8.49291C7.01039 8.29046 7.04154 8.0958 7.04154 7.90893C7.07268 7.6909 7.0649 7.48846 7.01818 7.30158C6.97146 7.11471 6.90138 6.92783 6.80794 6.74096C6.7145 6.55408 6.59771 6.39057 6.45755 6.25041C6.3174 6.11025 6.16945 5.97788 6.01372 5.8533L5.87357 5.75986C5.78013 5.69757 5.68669 5.61971 5.59325 5.52627C5.49982 5.43283 5.40638 5.33939 5.31294 5.24596C5.25065 5.12137 5.20393 4.99679 5.17279 4.87221C5.14164 4.74762 5.12607 4.62304 5.12607 4.49846V4.17142C5.12607 3.95341 5.17279 3.73538 5.26622 3.51736C5.35966 3.29934 5.48424 3.11247 5.63997 2.95674C5.7957 2.80101 5.97479 2.67643 6.17724 2.58299C6.37969 2.48955 6.60549 2.44283 6.85466 2.44283H20.0761C20.2007 2.44283 20.3252 2.45062 20.4498 2.46619C20.5744 2.48176 20.6834 2.50512 20.7768 2.53627C20.9014 2.56742 21.0182 2.61413 21.1272 2.67643C21.2362 2.73872 21.3375 2.81658 21.4309 2.91002C21.4932 3.00346 21.5633 3.0969 21.6411 3.19033C21.719 3.28377 21.7735 3.37721 21.8047 3.47064C21.867 3.59523 21.9137 3.71981 21.9448 3.84439C21.976 3.96898 21.9915 4.07799 21.9915 4.17142C21.9915 4.29601 21.976 4.42059 21.9448 4.54518C21.9137 4.66976 21.867 4.77877 21.8047 4.87221C21.7735 4.99679 21.719 5.1058 21.6411 5.19924C21.5633 5.29268 21.4932 5.38611 21.4309 5.47955C21.3375 5.57299 21.2362 5.65085 21.1272 5.71314C21.0182 5.77544 20.9014 5.82215 20.7768 5.8533C20.6834 5.88445 20.5744 5.90781 20.4498 5.92338C20.3252 5.93895 20.2007 5.94674 20.0761 5.94674H9.7045C9.54878 5.94674 9.40862 5.97788 9.28404 6.04018C9.15945 6.10247 9.05044 6.19591 8.957 6.32049C8.86357 6.41393 8.79349 6.53072 8.74677 6.67088C8.70005 6.81104 8.67669 6.95898 8.67669 7.11471C8.67669 7.23929 8.70005 7.37166 8.74677 7.51182C8.79349 7.65197 8.86357 7.76877 8.957 7.86221C9.05044 7.98679 9.15945 8.08023 9.28404 8.14252C9.40862 8.20481 9.54878 8.23596 9.7045 8.23596H20.0761C20.3564 8.2671 20.6367 8.25932 20.917 8.2126C21.1973 8.16588 21.4621 8.0958 21.7112 8.00236C21.9604 7.90893 22.2018 7.78434 22.4354 7.62861C22.669 7.47288 22.8792 7.30158 23.0661 7.11471C23.2841 6.92783 23.471 6.72538 23.6267 6.50736C23.7824 6.28934 23.907 6.05575 24.0004 5.80658C24.125 5.55742 24.2107 5.29268 24.2574 5.01236C24.3041 4.73205 24.3275 4.45174 24.3275 4.17142C24.3275 3.92226 24.3041 3.65752 24.2574 3.37721C24.2107 3.0969 24.125 2.83216 24.0004 2.58299C23.907 2.33382 23.7824 2.10023 23.6267 1.88221C23.471 1.66419 23.2841 1.46174 23.0661 1.27486C22.8792 1.05684 22.669 0.877754 22.4354 0.737598C22.2018 0.597443 21.9604 0.480644 21.7112 0.387207C21.4621 0.29377 21.1973 0.22369 20.917 0.176971C20.6367 0.130253 20.3564 0.122467 20.0761 0.153614H6.85466C6.29404 0.153614 5.77234 0.254837 5.28958 0.457287C4.80682 0.659733 4.36299 0.94783 3.9581 1.32158C3.58435 1.69533 3.29625 2.13137 3.0938 2.62971C2.89135 3.12804 2.79013 3.64195 2.79013 4.17142V4.49846C2.79013 4.80992 2.82906 5.12916 2.90693 5.45619C2.98479 5.78322 3.11716 6.08689 3.30404 6.36721C3.45976 6.67867 3.65443 6.95119 3.88802 7.18479C4.12161 7.41838 4.39414 7.61304 4.7056 7.76877C4.7056 7.76877 4.7056 7.78434 4.7056 7.81549C4.7056 7.84663 4.7056 7.86221 4.7056 7.86221L3.25732 8.65643C2.91471 8.87445 2.58768 9.12361 2.27622 9.40392C1.96476 9.68424 1.70003 10.0113 1.482 10.385C1.26398 10.7588 1.10047 11.1481 0.991458 11.553C0.882447 11.9579 0.827942 12.3628 0.827942 12.7677V29.2594C0.827942 29.7889 0.921379 30.2872 1.10825 30.7544C1.29513 31.2216 1.57544 31.6265 1.94919 31.9691C2.32294 32.3428 2.74341 32.6231 3.2106 32.81C3.67779 32.9969 4.16055 33.0903 4.65888 33.0903H22.4587C22.9571 33.0903 23.4398 32.9969 23.907 32.81C24.3742 32.6231 24.7947 32.3428 25.1684 31.9691C25.511 31.6265 25.7835 31.2216 25.986 30.7544C26.1884 30.2872 26.2897 29.7889 26.2897 29.2594V13.375C26.2585 12.6587 26.1495 11.9579 25.9626 11.2727C25.7758 10.5875 25.4799 9.9334 25.075 9.31049ZM16.5722 13.7488C16.5722 13.5619 16.5488 13.3906 16.5021 13.2349C16.4554 13.0791 16.3853 12.9234 16.2918 12.7677C16.1984 12.6431 16.0894 12.5263 15.9648 12.4173C15.8402 12.3083 15.7001 12.2226 15.5443 12.1603C15.3886 12.098 15.2251 12.0591 15.0538 12.0435C14.8825 12.028 14.7034 12.0357 14.5165 12.0669C14.3608 12.098 14.2129 12.1525 14.0727 12.2304C13.9326 12.3083 13.8002 12.4095 13.6756 12.5341C13.551 12.6587 13.4498 12.791 13.3719 12.9312C13.2941 13.0713 13.2396 13.2193 13.2084 13.375C13.1773 13.5619 13.1695 13.7332 13.1851 13.8889C13.2006 14.0447 13.2396 14.2004 13.3018 14.3561C13.3641 14.5118 13.4498 14.6598 13.5588 14.7999C13.6678 14.9401 13.7846 15.0569 13.9092 15.1503C14.0649 15.2438 14.2207 15.3138 14.3764 15.3606C14.5321 15.4073 14.6878 15.4306 14.8436 15.4306C15.0927 15.4306 15.3185 15.3839 15.521 15.2905C15.7234 15.1971 15.9025 15.0725 16.0583 14.9167C16.214 14.761 16.3386 14.5819 16.432 14.3795C16.5254 14.177 16.5722 13.9668 16.5722 13.7488ZM11.3864 17.4863C11.9159 17.4863 12.4298 17.5641 12.9281 17.7199C13.4264 17.8756 13.9092 18.0936 14.3764 18.3739C14.8124 18.6854 15.2017 19.0436 15.5443 19.4485C15.887 19.8534 16.1517 20.305 16.3386 20.8033C16.5566 21.3016 16.689 21.8155 16.7357 22.345C16.7824 22.8745 16.759 23.3884 16.6656 23.8867C16.541 24.4162 16.3541 24.9146 16.105 25.3817C15.8558 25.8489 15.5443 26.2694 15.1706 26.6431C14.7968 27.048 14.3764 27.3751 13.9092 27.6242C13.442 27.8734 12.9437 28.0447 12.4142 28.1381C11.9159 28.2316 11.402 28.2549 10.8725 28.2082C10.343 28.1615 9.82909 28.0291 9.33075 27.8111C8.83242 27.6242 8.38081 27.3595 7.97591 27.0169C7.57101 26.6743 7.21284 26.285 6.90138 25.8489C6.62107 25.4129 6.40305 24.9379 6.24732 24.424C6.09159 23.9101 6.01372 23.3884 6.01372 22.8589C6.01372 22.5163 6.04487 22.1659 6.10716 21.8078C6.16945 21.4496 6.26289 21.1148 6.38747 20.8033C6.5432 20.4607 6.7145 20.1415 6.90138 19.8456C7.08825 19.5497 7.30628 19.2772 7.55544 19.028C7.80461 18.7788 8.07713 18.553 8.37302 18.3506C8.66891 18.1481 8.98815 17.9846 9.33075 17.86C9.64221 17.7354 9.96924 17.6342 10.3118 17.5563C10.6545 17.4785 11.0126 17.4396 11.3864 17.4396V17.4863ZM11.3864 19.2616C11.0126 19.2616 10.6545 19.3161 10.3118 19.4251C9.96924 19.5341 9.65779 19.6821 9.37747 19.8689C9.06602 20.0869 8.80128 20.3283 8.58325 20.5931C8.36523 20.8578 8.17836 21.1615 8.02263 21.5041C7.89805 21.8155 7.82018 22.1504 7.78904 22.5085C7.75789 22.8667 7.77346 23.2171 7.83575 23.5597C7.92919 23.9335 8.05378 24.2761 8.2095 24.5875C8.36523 24.899 8.58325 25.1793 8.86357 25.4285C9.11273 25.6776 9.39305 25.8879 9.7045 26.0592C10.016 26.2305 10.343 26.3473 10.6856 26.4096C11.0282 26.4718 11.3786 26.4796 11.7368 26.4329C12.0949 26.3862 12.4453 26.3005 12.7879 26.176C13.0994 26.0514 13.3953 25.8723 13.6756 25.6387C13.9559 25.4051 14.1895 25.1326 14.3764 24.8211C14.5633 24.5408 14.7112 24.2293 14.8202 23.8867C14.9292 23.5441 14.9837 23.186 14.9837 22.8122C14.9837 22.345 14.8903 21.8934 14.7034 21.4574C14.5165 21.0213 14.2518 20.632 13.9092 20.2894C13.5666 19.9468 13.1773 19.6821 12.7412 19.4952C12.3052 19.3083 11.8536 19.2149 11.3864 19.2149V19.2616ZM9.7045 21.9246H9.33075C9.26846 21.9246 9.21396 21.9323 9.16724 21.9479C9.12052 21.9635 9.08159 21.9868 9.05044 22.018C9.0193 22.0491 8.99594 22.0881 8.98036 22.1348C8.96479 22.1815 8.957 22.236 8.957 22.2983C8.957 22.3294 8.96479 22.3684 8.98036 22.4151C8.99594 22.4618 9.0193 22.5007 9.05044 22.5319C9.08159 22.563 9.12052 22.5942 9.16724 22.6253C9.21396 22.6565 9.26846 22.6721 9.33075 22.6721H9.51763C9.51763 22.7032 9.51763 22.7266 9.51763 22.7421C9.51763 22.7577 9.51763 22.7811 9.51763 22.8122C9.51763 22.8434 9.51763 22.8745 9.51763 22.9056C9.51763 22.9368 9.51763 22.9679 9.51763 22.9991H9.33075C9.29961 22.9991 9.26846 22.9991 9.23732 22.9991C9.20617 22.9991 9.17502 22.9991 9.14388 22.9991C9.11273 22.9991 9.08937 23.0069 9.0738 23.0224C9.05823 23.038 9.03487 23.0614 9.00372 23.0925C9.00372 23.0925 8.99594 23.1081 8.98036 23.1392C8.96479 23.1704 8.94143 23.186 8.91029 23.186C8.91029 23.2171 8.9025 23.2482 8.88693 23.2794C8.87135 23.3105 8.86357 23.3417 8.86357 23.3728C8.86357 23.404 8.87135 23.4273 8.88693 23.4429C8.9025 23.4585 8.91029 23.4818 8.91029 23.513C8.94143 23.5441 8.96479 23.5753 8.98036 23.6064C8.99594 23.6376 9.00372 23.6531 9.00372 23.6531C9.03487 23.6843 9.05823 23.7077 9.0738 23.7232C9.08937 23.7388 9.11273 23.7466 9.14388 23.7466C9.17502 23.7466 9.20617 23.7466 9.23732 23.7466C9.26846 23.7466 9.29961 23.7466 9.33075 23.7466H9.7045C9.7668 23.9335 9.86023 24.1125 9.98482 24.2838C10.1094 24.4551 10.2496 24.6031 10.4053 24.7277C10.561 24.8523 10.7401 24.9457 10.9426 25.008C11.145 25.0703 11.3397 25.1014 11.5265 25.1014C11.7134 25.1014 11.9003 25.0781 12.0872 25.0313C12.274 24.9846 12.4298 24.899 12.5543 24.7744C12.6166 24.7432 12.6556 24.7121 12.6711 24.681C12.6867 24.6498 12.7101 24.6031 12.7412 24.5408C12.7412 24.5097 12.7412 24.4863 12.7412 24.4707C12.7412 24.4551 12.7412 24.4318 12.7412 24.4006C12.7412 24.3695 12.7334 24.3461 12.7179 24.3306C12.7023 24.315 12.6945 24.2916 12.6945 24.2605C12.6634 24.2293 12.64 24.206 12.6244 24.1904C12.6089 24.1748 12.5855 24.1671 12.5543 24.1671C12.5543 24.1359 12.5388 24.1203 12.5076 24.1203C12.4765 24.1203 12.4453 24.1203 12.4142 24.1203C12.4142 24.1203 12.3986 24.1203 12.3675 24.1203C12.3363 24.1203 12.3052 24.1203 12.274 24.1203C12.2429 24.1203 12.2195 24.1281 12.204 24.1437C12.1884 24.1593 12.165 24.1671 12.1339 24.1671C12.0404 24.2293 11.947 24.2761 11.8536 24.3072C11.7601 24.3384 11.6511 24.3539 11.5265 24.3539C11.4331 24.3539 11.3397 24.3384 11.2462 24.3072C11.1528 24.2761 11.0593 24.2293 10.9659 24.1671C10.9036 24.1048 10.8335 24.0425 10.7557 23.9802C10.6778 23.9179 10.6233 23.84 10.5922 23.7466H11.2929C11.3552 23.7466 11.402 23.731 11.4331 23.6999C11.4642 23.6687 11.4954 23.6376 11.5265 23.6064C11.5577 23.5753 11.581 23.5363 11.5966 23.4896C11.6122 23.4429 11.62 23.404 11.62 23.3728C11.62 23.3105 11.6122 23.2638 11.5966 23.2327C11.581 23.2015 11.5577 23.1704 11.5265 23.1392C11.4954 23.0769 11.4642 23.038 11.4331 23.0224C11.402 23.0069 11.3552 22.9991 11.2929 22.9991H10.3586C10.3586 22.9679 10.3586 22.9368 10.3586 22.9056C10.3586 22.8745 10.3586 22.8434 10.3586 22.8122C10.3586 22.7811 10.3586 22.7577 10.3586 22.7421C10.3586 22.7266 10.3586 22.7032 10.3586 22.6721H11.62C11.6511 22.6721 11.6901 22.6565 11.7368 22.6253C11.7835 22.5942 11.8224 22.563 11.8536 22.5319C11.8847 22.5007 11.9159 22.4618 11.947 22.4151C11.9782 22.3684 11.9937 22.3294 11.9937 22.2983C11.9937 22.236 11.9782 22.1815 11.947 22.1348C11.9159 22.0881 11.8847 22.0491 11.8536 22.018C11.8224 21.9868 11.7835 21.9635 11.7368 21.9479C11.6901 21.9323 11.6511 21.9246 11.62 21.9246H10.6389C10.7012 21.8311 10.7635 21.7455 10.8258 21.6676C10.888 21.5897 10.9659 21.5197 11.0593 21.4574C11.1216 21.4262 11.1995 21.3951 11.2929 21.3639C11.3864 21.3328 11.4954 21.3172 11.62 21.3172C11.7134 21.3172 11.8146 21.3328 11.9236 21.3639C12.0327 21.3951 12.1339 21.4418 12.2273 21.5041C12.2273 21.5041 12.2429 21.5119 12.274 21.5274C12.3052 21.543 12.3208 21.5508 12.3208 21.5508C12.3519 21.5508 12.383 21.5508 12.4142 21.5508C12.4453 21.5508 12.4765 21.5508 12.5076 21.5508C12.5388 21.5508 12.5777 21.5352 12.6244 21.5041C12.6711 21.4729 12.7101 21.4418 12.7412 21.4106C12.7412 21.3795 12.749 21.3484 12.7646 21.3172C12.7802 21.2861 12.7879 21.2705 12.7879 21.2705C12.7879 21.2393 12.7879 21.2082 12.7879 21.1771C12.7879 21.1459 12.7879 21.1148 12.7879 21.0836C12.7879 21.0525 12.7724 21.0135 12.7412 20.9668C12.7101 20.9201 12.6789 20.8812 12.6478 20.85C12.4921 20.7566 12.3285 20.6787 12.1572 20.6164C11.9859 20.5541 11.8068 20.523 11.62 20.523C11.402 20.523 11.1917 20.5619 10.9893 20.6398C10.7868 20.7176 10.6077 20.8189 10.452 20.9435C10.2651 21.0369 10.1094 21.1693 9.98482 21.3406C9.86023 21.5119 9.7668 21.7065 9.7045 21.9246Z" fill="#00B9FF"/>
</svg>
