<svg width="49" height="49" viewBox="0 0 49 49" fill="none" xmlns="http://www.w3.org/2000/svg">
<g id="Container">
<g id="Icon">
<path id="Vector" d="M31.3563 24.86C31.3563 24.9846 31.3407 25.1014 31.3096 25.2104C31.2785 25.3194 31.2317 25.4206 31.1694 25.5141C31.1072 25.6075 31.0293 25.6932 30.9359 25.771C30.8424 25.8489 30.749 25.9034 30.6555 25.9346C30.5621 25.9657 30.4531 25.9891 30.3285 26.0046C30.2039 26.0202 30.0949 26.0124 30.0015 25.9813C29.8769 25.9501 29.7679 25.9112 29.6744 25.8645C29.581 25.8178 29.4876 25.7477 29.3941 25.6542C29.3318 25.5919 29.2695 25.5063 29.2073 25.3973C29.145 25.2883 29.1138 25.1871 29.1138 25.0936C29.0827 24.969 29.0749 24.8522 29.0905 24.7432C29.106 24.6342 29.145 24.5174 29.2073 24.3928C29.2384 24.2994 29.2929 24.2137 29.3708 24.1359C29.4486 24.058 29.5343 23.9879 29.6277 23.9256C29.7212 23.8634 29.8224 23.8166 29.9314 23.7855C30.0404 23.7543 30.1572 23.7388 30.2818 23.7388C30.4375 23.7388 30.5777 23.7699 30.7023 23.8322C30.8268 23.8945 30.9359 23.9724 31.0293 24.0658C31.1539 24.1904 31.2395 24.3228 31.2862 24.4629C31.333 24.6031 31.3563 24.7354 31.3563 24.86ZM36.0749 16.3105L36.0282 16.1236C35.9348 15.999 35.8257 15.8978 35.7012 15.8199C35.5766 15.7421 35.4364 15.6876 35.2807 15.6564C35.1561 15.6253 35.016 15.6253 34.8602 15.6564C34.7045 15.6876 34.5643 15.7343 34.4398 15.7966C34.3152 15.89 34.2139 15.999 34.1361 16.1236C34.0582 16.2482 33.9881 16.3728 33.9258 16.4974C33.8947 16.6531 33.8869 16.801 33.9025 16.9412C33.9181 17.0813 33.9726 17.2137 34.066 17.3383L34.1594 17.5252C34.4398 17.9612 34.65 18.4206 34.7901 18.9034C34.9303 19.3861 35.0004 19.8923 35.0004 20.4217V36.2594C35.0004 36.4774 34.9614 36.6721 34.8836 36.8434C34.8057 37.0147 34.6889 37.1782 34.5332 37.3339C34.4086 37.4585 34.2529 37.5597 34.066 37.6376C33.8791 37.7155 33.6923 37.7544 33.5054 37.7544H15.6121C15.4252 37.7544 15.2383 37.7155 15.0515 37.6376C14.8646 37.5597 14.7089 37.4585 14.5843 37.3339C14.4286 37.1782 14.3118 37.0147 14.2339 36.8434C14.156 36.6721 14.1171 36.4774 14.1171 36.2594V19.7677C14.1171 19.5497 14.1482 19.3394 14.2105 19.137C14.2728 18.9345 14.3663 18.7399 14.4908 18.553C14.5843 18.3661 14.7089 18.2026 14.8646 18.0624C15.0203 17.9223 15.2072 17.7899 15.4252 17.6653L16.8268 16.9178C17.0137 16.8244 17.1772 16.6998 17.3173 16.5441C17.4575 16.3884 17.5899 16.2326 17.7144 16.0769C17.8079 15.89 17.8857 15.6954 17.948 15.4929C18.0103 15.2905 18.0415 15.0958 18.0415 14.9089C18.0726 14.6909 18.0648 14.4885 18.0181 14.3016C17.9714 14.1147 17.9013 13.9278 17.8079 13.741C17.7144 13.5541 17.5976 13.3906 17.4575 13.2504C17.3173 13.1103 17.1694 12.9779 17.0137 12.8533L16.8735 12.7599C16.7801 12.6976 16.6866 12.6197 16.5932 12.5263C16.4998 12.4328 16.4063 12.3394 16.3129 12.246C16.2506 12.1214 16.2039 11.9968 16.1727 11.8722C16.1416 11.7476 16.126 11.623 16.126 11.4985V11.1714C16.126 10.9534 16.1727 10.7354 16.2662 10.5174C16.3596 10.2993 16.4842 10.1125 16.6399 9.95674C16.7956 9.80101 16.9747 9.67643 17.1772 9.58299C17.3796 9.48955 17.6054 9.44283 17.8546 9.44283H31.076C31.2006 9.44283 31.3252 9.45062 31.4498 9.46619C31.5743 9.48176 31.6833 9.50512 31.7768 9.53627C31.9014 9.56742 32.0182 9.61413 32.1272 9.67643C32.2362 9.73872 32.3374 9.81658 32.4308 9.91002C32.4931 10.0035 32.5632 10.0969 32.6411 10.1903C32.7189 10.2838 32.7735 10.3772 32.8046 10.4706C32.8669 10.5952 32.9136 10.7198 32.9448 10.8444C32.9759 10.969 32.9915 11.078 32.9915 11.1714C32.9915 11.296 32.9759 11.4206 32.9448 11.5452C32.9136 11.6698 32.8669 11.7788 32.8046 11.8722C32.7735 11.9968 32.7189 12.1058 32.6411 12.1992C32.5632 12.2927 32.4931 12.3861 32.4308 12.4796C32.3374 12.573 32.2362 12.6509 32.1272 12.7131C32.0182 12.7754 31.9014 12.8222 31.7768 12.8533C31.6833 12.8844 31.5743 12.9078 31.4498 12.9234C31.3252 12.939 31.2006 12.9467 31.076 12.9467H20.7044C20.5487 12.9467 20.4086 12.9779 20.284 13.0402C20.1594 13.1025 20.0504 13.1959 19.9569 13.3205C19.8635 13.4139 19.7934 13.5307 19.7467 13.6709C19.7 13.811 19.6766 13.959 19.6766 14.1147C19.6766 14.2393 19.7 14.3717 19.7467 14.5118C19.7934 14.652 19.8635 14.7688 19.9569 14.8622C20.0504 14.9868 20.1594 15.0802 20.284 15.1425C20.4086 15.2048 20.5487 15.236 20.7044 15.236H31.076C31.3563 15.2671 31.6366 15.2593 31.9169 15.2126C32.1973 15.1659 32.462 15.0958 32.7112 15.0024C32.9603 14.9089 33.2017 14.7843 33.4353 14.6286C33.6689 14.4729 33.8791 14.3016 34.066 14.1147C34.284 13.9278 34.4709 13.7254 34.6266 13.5074C34.7824 13.2893 34.9069 13.0557 35.0004 12.8066C35.125 12.5574 35.2106 12.2927 35.2573 12.0124C35.3041 11.732 35.3274 11.4517 35.3274 11.1714C35.3274 10.9223 35.3041 10.6575 35.2573 10.3772C35.2106 10.0969 35.125 9.83216 35.0004 9.58299C34.9069 9.33382 34.7824 9.10023 34.6266 8.88221C34.4709 8.66419 34.284 8.46174 34.066 8.27486C33.8791 8.05684 33.6689 7.87775 33.4353 7.7376C33.2017 7.59744 32.9603 7.48064 32.7112 7.38721C32.462 7.29377 32.1973 7.22369 31.9169 7.17697C31.6366 7.13025 31.3563 7.12247 31.076 7.15361H17.8546C17.294 7.15361 16.7723 7.25484 16.2895 7.45729C15.8068 7.65973 15.3629 7.94783 14.958 8.32158C14.5843 8.69533 14.2962 9.13137 14.0937 9.62971C13.8913 10.128 13.7901 10.6419 13.7901 11.1714V11.4985C13.7901 11.8099 13.829 12.1292 13.9069 12.4562C13.9847 12.7832 14.1171 13.0869 14.304 13.3672C14.4597 13.6787 14.6544 13.9512 14.888 14.1848C15.1216 14.4184 15.3941 14.613 15.7055 14.7688C15.7055 14.7688 15.7055 14.7843 15.7055 14.8155C15.7055 14.8466 15.7055 14.8622 15.7055 14.8622L14.2573 15.6564C13.9147 15.8744 13.5876 16.1236 13.2762 16.4039C12.9647 16.6842 12.7 17.0113 12.4819 17.385C12.2639 17.7588 12.1004 18.1481 11.9914 18.553C11.8824 18.9579 11.8279 19.3628 11.8279 19.7677V36.2594C11.8279 36.7889 11.9213 37.2872 12.1082 37.7544C12.2951 38.2216 12.5754 38.6265 12.9491 38.9691C13.3229 39.3428 13.7433 39.6231 14.2105 39.81C14.6777 39.9969 15.1605 40.0903 15.6588 40.0903H33.4587C33.957 40.0903 34.4398 39.9969 34.9069 39.81C35.3741 39.6231 35.7946 39.3428 36.1684 38.9691C36.511 38.6265 36.7835 38.2216 36.9859 37.7544C37.1884 37.2872 37.2896 36.7889 37.2896 36.2594V20.375C37.2585 19.6587 37.1494 18.9579 36.9626 18.2727C36.7757 17.5875 36.4798 16.9334 36.0749 16.3105ZM27.5721 20.7488C27.5721 20.5619 27.5487 20.3906 27.502 20.2349C27.4553 20.0791 27.3852 19.9234 27.2918 19.7677C27.1983 19.6431 27.0893 19.5263 26.9648 19.4173C26.8402 19.3083 26.7 19.2226 26.5443 19.1603C26.3886 19.098 26.225 19.0591 26.0537 19.0435C25.8824 19.028 25.7034 19.0357 25.5165 19.0669C25.3607 19.098 25.2128 19.1525 25.0726 19.2304C24.9325 19.3083 24.8001 19.4095 24.6755 19.5341C24.551 19.6587 24.4497 19.791 24.3719 19.9312C24.294 20.0713 24.2395 20.2193 24.2083 20.375C24.1772 20.5619 24.1694 20.7332 24.185 20.8889C24.2006 21.0447 24.2395 21.2004 24.3018 21.3561C24.3641 21.5118 24.4497 21.6598 24.5587 21.7999C24.6678 21.9401 24.7845 22.0569 24.9091 22.1503C25.0649 22.2438 25.2206 22.3138 25.3763 22.3606C25.532 22.4073 25.6878 22.4306 25.8435 22.4306C26.0927 22.4306 26.3185 22.3839 26.5209 22.2905C26.7234 22.1971 26.9025 22.0725 27.0582 21.9167C27.2139 21.761 27.3385 21.5819 27.4319 21.3795C27.5254 21.177 27.5721 20.9668 27.5721 20.7488ZM22.3863 24.4863C22.9158 24.4863 23.4297 24.5641 23.928 24.7199C24.4264 24.8756 24.9091 25.0936 25.3763 25.3739C25.8124 25.6854 26.2017 26.0436 26.5443 26.4485C26.8869 26.8534 27.1516 27.305 27.3385 27.8033C27.5565 28.3016 27.6889 28.8155 27.7356 29.345C27.7823 29.8745 27.759 30.3884 27.6655 30.8867C27.541 31.4162 27.3541 31.9146 27.1049 32.3817C26.8557 32.8489 26.5443 33.2694 26.1705 33.6431C25.7968 34.048 25.3763 34.3751 24.9091 34.6242C24.4419 34.8734 23.9436 35.0447 23.4141 35.1381C22.9158 35.2316 22.4019 35.2549 21.8724 35.2082C21.3429 35.1615 20.829 35.0291 20.3307 34.8111C19.8324 34.6242 19.3807 34.3595 18.9758 34.0169C18.571 33.6743 18.2128 33.285 17.9013 32.8489C17.621 32.4129 17.403 31.9379 17.2473 31.424C17.0915 30.9101 17.0137 30.3884 17.0137 29.8589C17.0137 29.5163 17.0448 29.1659 17.1071 28.8078C17.1694 28.4496 17.2628 28.1148 17.3874 27.8033C17.5431 27.4607 17.7144 27.1415 17.9013 26.8456C18.0882 26.5497 18.3062 26.2772 18.5554 26.028C18.8045 25.7788 19.0771 25.553 19.373 25.3506C19.6688 25.1481 19.9881 24.9846 20.3307 24.86C20.6422 24.7354 20.9692 24.6342 21.3118 24.5563C21.6544 24.4785 22.0126 24.4396 22.3863 24.4396V24.4863ZM22.3863 26.2616C22.0126 26.2616 21.6544 26.3161 21.3118 26.4251C20.9692 26.5341 20.6577 26.6821 20.3774 26.8689C20.066 27.0869 19.8012 27.3283 19.5832 27.5931C19.3652 27.8578 19.1783 28.1615 19.0226 28.5041C18.898 28.8155 18.8201 29.1504 18.789 29.5085C18.7578 29.8667 18.7734 30.2171 18.8357 30.5597C18.9291 30.9335 19.0537 31.2761 19.2094 31.5875C19.3652 31.899 19.5832 32.1793 19.8635 32.4285C20.1127 32.6776 20.393 32.8879 20.7044 33.0592C21.0159 33.2305 21.3429 33.3473 21.6855 33.4096C22.0281 33.4718 22.3785 33.4796 22.7367 33.4329C23.0949 33.3862 23.4453 33.3005 23.7879 33.176C24.0993 33.0514 24.3952 32.8723 24.6755 32.6387C24.9558 32.4051 25.1894 32.1326 25.3763 31.8211C25.5632 31.5408 25.7111 31.2293 25.8201 30.8867C25.9292 30.5441 25.9837 30.186 25.9837 29.8122C25.9837 29.345 25.8902 28.8934 25.7034 28.4574C25.5165 28.0213 25.2517 27.632 24.9091 27.2894C24.5665 26.9468 24.1772 26.6821 23.7412 26.4952C23.3051 26.3083 22.8535 26.2149 22.3863 26.2149V26.2616ZM20.7044 28.9246H20.3307C20.2684 28.9246 20.2139 28.9323 20.1672 28.9479C20.1205 28.9635 20.0815 28.9868 20.0504 29.018C20.0192 29.0491 19.9959 29.0881 19.9803 29.1348C19.9647 29.1815 19.9569 29.236 19.9569 29.2983C19.9569 29.3294 19.9647 29.3684 19.9803 29.4151C19.9959 29.4618 20.0192 29.5007 20.0504 29.5319C20.0815 29.563 20.1205 29.5942 20.1672 29.6253C20.2139 29.6565 20.2684 29.6721 20.3307 29.6721H20.5176C20.5176 29.7032 20.5176 29.7266 20.5176 29.7421C20.5176 29.7577 20.5176 29.7811 20.5176 29.8122C20.5176 29.8434 20.5176 29.8745 20.5176 29.9056C20.5176 29.9368 20.5176 29.9679 20.5176 29.9991H20.3307C20.2995 29.9991 20.2684 29.9991 20.2373 29.9991C20.2061 29.9991 20.175 29.9991 20.1438 29.9991C20.1127 29.9991 20.0893 30.0069 20.0737 30.0224C20.0582 30.038 20.0348 30.0614 20.0037 30.0925C20.0037 30.0925 19.9959 30.1081 19.9803 30.1392C19.9647 30.1704 19.9414 30.186 19.9102 30.186C19.9102 30.2171 19.9024 30.2482 19.8869 30.2794C19.8713 30.3105 19.8635 30.3417 19.8635 30.3728C19.8635 30.404 19.8713 30.4273 19.8869 30.4429C19.9024 30.4585 19.9102 30.4818 19.9102 30.513C19.9414 30.5441 19.9647 30.5753 19.9803 30.6064C19.9959 30.6376 20.0037 30.6531 20.0037 30.6531C20.0348 30.6843 20.0582 30.7077 20.0737 30.7232C20.0893 30.7388 20.1127 30.7466 20.1438 30.7466C20.175 30.7466 20.2061 30.7466 20.2373 30.7466C20.2684 30.7466 20.2995 30.7466 20.3307 30.7466H20.7044C20.7667 30.9335 20.8602 31.1125 20.9848 31.2838C21.1093 31.4551 21.2495 31.6031 21.4052 31.7277C21.561 31.8523 21.74 31.9457 21.9425 32.008C22.1449 32.0703 22.3396 32.1014 22.5265 32.1014C22.7133 32.1014 22.9002 32.0781 23.0871 32.0313C23.274 31.9846 23.4297 31.899 23.5543 31.7744C23.6166 31.7432 23.6555 31.7121 23.6711 31.681C23.6867 31.6498 23.71 31.6031 23.7412 31.5408C23.7412 31.5097 23.7412 31.4863 23.7412 31.4707C23.7412 31.4551 23.7412 31.4318 23.7412 31.4006C23.7412 31.3695 23.7334 31.3461 23.7178 31.3306C23.7022 31.315 23.6944 31.2916 23.6944 31.2605C23.6633 31.2293 23.6399 31.206 23.6244 31.1904C23.6088 31.1748 23.5854 31.1671 23.5543 31.1671C23.5543 31.1359 23.5387 31.1203 23.5076 31.1203C23.4764 31.1203 23.4453 31.1203 23.4141 31.1203C23.4141 31.1203 23.3986 31.1203 23.3674 31.1203C23.3363 31.1203 23.3051 31.1203 23.274 31.1203C23.2428 31.1203 23.2195 31.1281 23.2039 31.1437C23.1883 31.1593 23.165 31.1671 23.1338 31.1671C23.0404 31.2293 22.9469 31.2761 22.8535 31.3072C22.7601 31.3384 22.6511 31.3539 22.5265 31.3539C22.433 31.3539 22.3396 31.3384 22.2462 31.3072C22.1527 31.2761 22.0593 31.2293 21.9658 31.1671C21.9036 31.1048 21.8335 31.0425 21.7556 30.9802C21.6778 30.9179 21.6232 30.84 21.5921 30.7466H22.2929C22.3552 30.7466 22.4019 30.731 22.433 30.6999C22.4642 30.6687 22.4953 30.6376 22.5265 30.6064C22.5576 30.5753 22.581 30.5363 22.5966 30.4896C22.6121 30.4429 22.6199 30.404 22.6199 30.3728C22.6199 30.3105 22.6121 30.2638 22.5966 30.2327C22.581 30.2015 22.5576 30.1704 22.5265 30.1392C22.4953 30.0769 22.4642 30.038 22.433 30.0224C22.4019 30.0069 22.3552 29.9991 22.2929 29.9991H21.3585C21.3585 29.9679 21.3585 29.9368 21.3585 29.9056C21.3585 29.8745 21.3585 29.8434 21.3585 29.8122C21.3585 29.7811 21.3585 29.7577 21.3585 29.7421C21.3585 29.7266 21.3585 29.7032 21.3585 29.6721H22.6199C22.6511 29.6721 22.69 29.6565 22.7367 29.6253C22.7834 29.5942 22.8224 29.563 22.8535 29.5319C22.8847 29.5007 22.9158 29.4618 22.9469 29.4151C22.9781 29.3684 22.9937 29.3294 22.9937 29.2983C22.9937 29.236 22.9781 29.1815 22.9469 29.1348C22.9158 29.0881 22.8847 29.0491 22.8535 29.018C22.8224 28.9868 22.7834 28.9635 22.7367 28.9479C22.69 28.9323 22.6511 28.9246 22.6199 28.9246H21.6388C21.7011 28.8311 21.7634 28.7455 21.8257 28.6676C21.888 28.5897 21.9658 28.5197 22.0593 28.4574C22.1216 28.4262 22.1994 28.3951 22.2929 28.3639C22.3863 28.3328 22.4953 28.3172 22.6199 28.3172C22.7133 28.3172 22.8146 28.3328 22.9236 28.3639C23.0326 28.3951 23.1338 28.4418 23.2273 28.5041C23.2273 28.5041 23.2428 28.5119 23.274 28.5274C23.3051 28.543 23.3207 28.5508 23.3207 28.5508C23.3518 28.5508 23.383 28.5508 23.4141 28.5508C23.4453 28.5508 23.4764 28.5508 23.5076 28.5508C23.5387 28.5508 23.5776 28.5352 23.6244 28.5041C23.6711 28.4729 23.71 28.4418 23.7412 28.4106C23.7412 28.3795 23.7489 28.3484 23.7645 28.3172C23.7801 28.2861 23.7879 28.2705 23.7879 28.2705C23.7879 28.2393 23.7879 28.2082 23.7879 28.1771C23.7879 28.1459 23.7879 28.1148 23.7879 28.0836C23.7879 28.0525 23.7723 28.0135 23.7412 27.9668C23.71 27.9201 23.6789 27.8812 23.6477 27.85C23.492 27.7566 23.3285 27.6787 23.1572 27.6164C22.9859 27.5541 22.8068 27.523 22.6199 27.523C22.4019 27.523 22.1917 27.5619 21.9892 27.6398C21.7868 27.7176 21.6077 27.8189 21.4519 27.9435C21.2651 28.0369 21.1093 28.1693 20.9848 28.3406C20.8602 28.5119 20.7667 28.7065 20.7044 28.9246Z" fill="#00B9FF"/>
</g>
</g>
</svg>
