<svg width="49" height="49" viewBox="0 0 49 49" fill="none" xmlns="http://www.w3.org/2000/svg">
<path d="M9.07167 21.3093C9.00938 19.8766 9.17289 18.4673 9.56222 17.0813C9.95154 15.6953 10.5355 14.4105 11.3142 13.227C12.0305 12.168 12.8715 11.2337 13.837 10.4239C14.8025 9.61407 15.8615 8.96001 17.0139 8.46168L16.9204 8.08793C16.8893 7.99449 16.8581 7.90884 16.827 7.83097C16.7958 7.75311 16.7803 7.68303 16.7803 7.62074C16.7803 7.52731 16.788 7.44165 16.8036 7.36379C16.8192 7.28592 16.8426 7.20027 16.8737 7.10683C16.9048 7.04454 16.9438 6.97446 16.9905 6.8966C17.0372 6.81874 17.0917 6.74866 17.154 6.68637C17.2163 6.65522 17.2786 6.61629 17.3409 6.56957C17.4032 6.52285 17.481 6.48392 17.5745 6.45277C17.6368 6.42163 17.7146 6.39827 17.8081 6.38269C17.9015 6.36712 17.9794 6.37491 18.0417 6.40606C18.1351 6.40606 18.2208 6.42163 18.2986 6.45277C18.3765 6.48392 18.4466 6.51506 18.5089 6.54621C18.5711 6.57736 18.6334 6.62408 18.6957 6.68637C18.758 6.74866 18.8203 6.81095 18.8826 6.87324C18.9138 6.93554 18.9449 7.00561 18.976 7.08348C19.0072 7.16134 19.0383 7.24699 19.0695 7.34043L19.2096 7.71418C20.4243 7.40272 21.6624 7.27035 22.9238 7.31707C24.1852 7.36379 25.4232 7.5896 26.6379 7.99449C27.9772 8.46168 29.223 9.12353 30.3754 9.98004C31.5278 10.8365 32.5089 11.8566 33.3187 13.0401C33.5056 13.2893 33.6457 13.5462 33.7392 13.811C33.8326 14.0757 33.9105 14.3638 33.9728 14.6753C34.0039 14.9556 34.0039 15.2437 33.9728 15.5396C33.9416 15.8355 33.8949 16.1236 33.8326 16.4039C33.7392 16.6842 33.6146 16.9489 33.4589 17.1981C33.3031 17.4473 33.1163 17.6653 32.8982 17.8521C32.6802 18.0702 32.4466 18.257 32.1975 18.4128C31.9483 18.5685 31.6991 18.6931 31.45 18.7865L29.0673 19.6275C29.005 19.6275 28.9349 19.6352 28.8571 19.6508C28.7792 19.6664 28.7091 19.6742 28.6468 19.6742C28.5534 19.6742 28.4677 19.6586 28.3899 19.6275C28.312 19.5963 28.2419 19.5652 28.1796 19.534C28.1173 19.5029 28.0551 19.4639 27.9928 19.4172C27.9305 19.3705 27.8838 19.316 27.8526 19.2537C27.7903 19.1914 27.7436 19.1291 27.7125 19.0668C27.6813 19.0045 27.6502 18.9423 27.619 18.88C27.5879 18.8177 27.5645 18.7476 27.5489 18.6697C27.5334 18.5919 27.5411 18.5062 27.5723 18.4128C27.5723 18.3505 27.5801 18.2804 27.5957 18.2025C27.6112 18.1247 27.6346 18.0546 27.6657 17.9923C27.6969 17.93 27.7358 17.8677 27.7825 17.8054C27.8292 17.7431 27.8838 17.6808 27.946 17.6186C28.0083 17.5874 28.0706 17.5485 28.1329 17.5018C28.1952 17.455 28.2575 17.4161 28.3198 17.385L30.7025 16.5907C30.7959 16.5596 30.8971 16.5129 31.0061 16.4506C31.1151 16.3883 31.2008 16.3104 31.2631 16.217C31.3565 16.1547 31.4344 16.069 31.4967 15.96C31.559 15.851 31.6057 15.7498 31.6368 15.6564C31.668 15.5318 31.6913 15.415 31.7069 15.306C31.7225 15.197 31.7303 15.0802 31.7303 14.9556C31.6991 14.831 31.6602 14.7142 31.6135 14.6052C31.5667 14.4962 31.5122 14.395 31.45 14.3015C30.7647 13.336 29.9472 12.5029 28.9972 11.8021C28.0473 11.1013 27.0117 10.564 25.8904 10.1903C24.738 9.81652 23.5623 9.62965 22.3632 9.62965C21.164 9.62965 19.9883 9.81652 18.8359 10.1903C17.6835 10.5952 16.6245 11.1636 15.659 11.8955C14.6935 12.6274 13.8837 13.4917 13.2296 14.4884C12.5756 15.4851 12.0928 16.5518 11.7814 17.6886C11.4699 18.8255 11.3297 19.9856 11.3609 21.1692C11.3609 21.2626 11.3765 21.3638 11.4076 21.4729C11.4388 21.5819 11.4855 21.6987 11.5478 21.8232C11.6101 21.9167 11.6801 22.0023 11.758 22.0802C11.8359 22.1581 11.9215 22.2281 12.015 22.2904C12.1084 22.3527 12.2096 22.4072 12.3186 22.4539C12.4276 22.5007 12.5444 22.5396 12.669 22.5707C12.7936 22.5707 12.9104 22.563 13.0194 22.5474C13.1284 22.5318 13.2452 22.5084 13.3698 22.4773L19.5367 20.375C20.0039 20.2192 20.4866 20.1569 20.985 20.1881C21.4833 20.2192 21.966 20.3438 22.4332 20.5618C22.6513 20.6864 22.8537 20.8188 23.0406 20.9589C23.2275 21.0991 23.4143 21.2626 23.6012 21.4495C23.7569 21.6364 23.8971 21.8388 24.0217 22.0568C24.1463 22.2749 24.2397 22.5084 24.302 22.7576L27.6657 32.5686C27.728 32.7243 27.7514 32.8722 27.7358 33.0124C27.7202 33.1525 27.6813 33.3005 27.619 33.4562C27.5567 33.5808 27.4711 33.6976 27.3621 33.8066C27.253 33.9156 27.1207 33.9857 26.965 34.0168C26.9027 34.048 26.8404 34.0636 26.7781 34.0636C26.7158 34.0636 26.6535 34.0636 26.5912 34.0636C26.4666 34.0636 26.3498 34.048 26.2408 34.0168C26.1318 33.9857 26.0306 33.939 25.9371 33.8767C25.8126 33.8144 25.7191 33.7365 25.6568 33.6431C25.5945 33.5496 25.5322 33.4406 25.47 33.3161L22.1529 23.5051C22.1218 23.4117 22.0828 23.3182 22.0361 23.2248C21.9894 23.1314 21.9349 23.0535 21.8726 22.9912C21.8103 22.9289 21.7402 22.8666 21.6624 22.8043C21.5845 22.742 21.4989 22.6798 21.4054 22.6175C21.312 22.5863 21.2185 22.5552 21.1251 22.524C21.0317 22.4929 20.9382 22.4773 20.8448 22.4773C20.7514 22.4773 20.6579 22.4851 20.5645 22.5007C20.471 22.5162 20.3776 22.5396 20.2842 22.5707L14.0706 24.6731C13.7903 24.7665 13.5022 24.8288 13.2063 24.86C12.9104 24.8911 12.6223 24.8911 12.342 24.86C12.0617 24.8288 11.7814 24.7587 11.501 24.6497C11.2207 24.5407 10.956 24.4083 10.7068 24.2526C10.4577 24.0657 10.2396 23.8711 10.0528 23.6686C9.86589 23.4662 9.69459 23.2248 9.53886 22.9445C9.38313 22.6953 9.26633 22.4306 9.18847 22.1503C9.1106 21.87 9.0561 21.5896 9.02495 21.3093H9.07167ZM43.2231 36.3995C42.569 36.3683 41.9305 36.4462 41.3076 36.6331C40.6847 36.82 40.0929 37.0847 39.5323 37.4273C39.1585 37.6765 38.7537 37.8633 38.3176 37.9879C37.8816 38.1125 37.4455 38.1748 37.0095 38.1748C36.5423 38.1748 36.0907 38.1125 35.6546 37.9879C35.2186 37.8633 34.8137 37.6765 34.44 37.4273C33.8793 37.0847 33.2876 36.8277 32.6646 36.6564C32.0417 36.4851 31.4032 36.3995 30.7492 36.3995C30.0951 36.3995 29.4566 36.4851 28.8337 36.6564C28.2108 36.8277 27.619 37.0847 27.0584 37.4273C26.6846 37.6765 26.2875 37.8633 25.8671 37.9879C25.4466 38.1125 25.0028 38.1748 24.5356 38.1748C24.0684 38.1748 23.6168 38.1125 23.1807 37.9879C22.7447 37.8633 22.3398 37.6765 21.966 37.4273C21.4366 37.0847 20.8604 36.82 20.2375 36.6331C19.6145 36.4462 18.976 36.3683 18.322 36.3995C17.6679 36.3683 17.0216 36.4462 16.3832 36.6331C15.7447 36.82 15.1607 37.0847 14.6312 37.4273C14.2575 37.6765 13.8526 37.8633 13.4165 37.9879C12.9805 38.1125 12.5289 38.1748 12.0617 38.1748C11.6256 38.1748 11.1896 38.1125 10.7535 37.9879C10.3175 37.8633 9.91261 37.6765 9.53886 37.4273C8.97823 37.0847 8.38646 36.82 7.76355 36.6331C7.14063 36.4462 6.50214 36.3683 5.84808 36.3995C5.78578 36.3995 5.71571 36.3995 5.63784 36.3995C5.55998 36.3995 5.47433 36.4151 5.38089 36.4462C5.3186 36.4774 5.24852 36.5085 5.17065 36.5396C5.09279 36.5708 5.02271 36.6175 4.96042 36.6798C4.89813 36.7421 4.84362 36.8044 4.7969 36.8667C4.75019 36.929 4.71125 36.9913 4.68011 37.0536C4.64896 37.147 4.6256 37.2326 4.61003 37.3105C4.59446 37.3884 4.58667 37.4585 4.58667 37.5207C4.58667 37.6142 4.59446 37.6998 4.61003 37.7777C4.6256 37.8556 4.64896 37.9256 4.68011 37.9879C4.71125 38.0814 4.75019 38.1592 4.7969 38.2215C4.84362 38.2838 4.89813 38.3461 4.96042 38.4084C5.02271 38.4395 5.09279 38.4785 5.17065 38.5252C5.24852 38.5719 5.3186 38.6108 5.38089 38.642C5.47433 38.6731 5.55998 38.6887 5.63784 38.6887C5.71571 38.6887 5.78578 38.6887 5.84808 38.6887C6.31526 38.6887 6.75909 38.751 7.17956 38.8756C7.60003 39.0002 7.99714 39.187 8.37089 39.4362C8.93151 39.7788 9.52328 40.0358 10.1462 40.2071C10.7691 40.3784 11.4076 40.464 12.0617 40.464C12.7157 40.464 13.3542 40.3784 13.9771 40.2071C14.6001 40.0358 15.1918 39.7788 15.7525 39.4362C16.1262 39.187 16.5311 39.0002 16.9671 38.8756C17.4032 38.751 17.8548 38.7043 18.322 38.7354C18.758 38.7043 19.1941 38.751 19.6301 38.8756C20.0661 39.0002 20.471 39.2026 20.8448 39.4829C21.4054 39.7944 21.9972 40.0436 22.6201 40.2304C23.243 40.4173 23.8815 40.5107 24.5356 40.5107C25.1896 40.5107 25.8281 40.4173 26.451 40.2304C27.074 40.0436 27.6657 39.7944 28.2264 39.4829C28.6001 39.2338 29.005 39.0469 29.441 38.9223C29.8771 38.7977 30.3131 38.7354 30.7492 38.7354C31.2164 38.7354 31.6602 38.7977 32.0807 38.9223C32.5011 39.0469 32.9138 39.2338 33.3187 39.4829C33.8482 39.7944 34.4322 40.0436 35.0707 40.2304C35.7091 40.4173 36.3554 40.5107 37.0095 40.5107C37.6324 40.5107 38.2631 40.4173 38.9016 40.2304C39.5401 40.0436 40.1241 39.7944 40.6535 39.4829C41.0273 39.2026 41.4322 39.0002 41.8682 38.8756C42.3043 38.751 42.7559 38.7043 43.2231 38.7354C43.2854 38.7354 43.3554 38.7276 43.4333 38.7121C43.5112 38.6965 43.5968 38.6887 43.6903 38.6887C43.7526 38.6576 43.8226 38.6186 43.9005 38.5719C43.9784 38.5252 44.0484 38.4707 44.1107 38.4084C44.173 38.3773 44.2275 38.3227 44.2743 38.2449C44.321 38.167 44.3599 38.0969 44.391 38.0346C44.4222 37.9724 44.4455 37.9023 44.4611 37.8244C44.4767 37.7465 44.4845 37.6609 44.4845 37.5675C44.4845 37.5052 44.4767 37.4351 44.4611 37.3572C44.4455 37.2794 44.4222 37.1937 44.391 37.1003C44.3599 37.038 44.321 36.9757 44.2743 36.9134C44.2275 36.8511 44.173 36.7888 44.1107 36.7265C44.0484 36.6642 43.9784 36.6175 43.9005 36.5864C43.8226 36.5552 43.7526 36.5241 43.6903 36.4929C43.5968 36.4618 43.5112 36.4384 43.4333 36.4229C43.3554 36.4073 43.2854 36.4151 43.2231 36.4462V36.3995Z" fill="#00B9FF"/>
</svg>
