<svg width="25" height="25" viewBox="0 0 11 19" fill="none" xmlns="http://www.w3.org/2000/svg">
<path id="facebook" class="facebook" d="M10.4756 5.69076C10.4472 5.66232 10.4081 5.63389 10.3583 5.60545C10.3085 5.57701 10.2552 5.56279 10.1983 5.56279H7.34038V4.49639C7.34038 4.39686 7.36171 4.29732 7.40437 4.19779C7.44702 4.09826 7.55366 4.0485 7.72429 4.0485H10.0064C10.0491 4.0485 10.0953 4.03783 10.145 4.0165C10.1948 3.99518 10.2339 3.97029 10.2623 3.94186C10.305 3.8992 10.3334 3.85654 10.3476 3.81389C10.3619 3.77123 10.369 3.72857 10.369 3.68592V0.635996C10.369 0.536465 10.3334 0.451153 10.2623 0.380058C10.1912 0.308964 10.0988 0.273418 9.98507 0.273418H6.70054C5.79054 0.273418 5.0796 0.436934 4.56772 0.763966C4.04163 1.091 3.64706 1.47846 3.38401 1.92635C3.12097 2.37424 2.9539 2.82568 2.8828 3.28068C2.82593 3.73568 2.79749 4.08404 2.79749 4.32576V5.56279H0.899287C0.785537 5.56279 0.693115 5.60189 0.622021 5.6801C0.550928 5.7583 0.515381 5.84717 0.515381 5.9467V8.97529C0.515381 9.08904 0.550928 9.18147 0.622021 9.25256C0.693115 9.32365 0.785537 9.3592 0.899287 9.3592H2.79749V18.0824C2.79749 18.1819 2.83304 18.2708 2.90413 18.349C2.97522 18.4272 3.06054 18.4663 3.16007 18.4663H6.95647C7.07022 18.4663 7.16265 18.4272 7.23374 18.349C7.30483 18.2708 7.34038 18.1819 7.34038 18.0824V9.3592H9.87843C9.97796 9.3592 10.0633 9.32721 10.1344 9.26322C10.2055 9.19924 10.2481 9.11748 10.2623 9.01795L10.5823 5.98936C10.5823 5.93248 10.5751 5.87916 10.5609 5.82939C10.5467 5.77963 10.5183 5.73342 10.4756 5.69076Z" fill="white"/>
</svg>
