<svg width="41" height="35" viewBox="0 0 41 35" fill="none" xmlns="http://www.w3.org/2000/svg">
<path id="Vector" d="M5.07155 15.3093C5.00926 13.8766 5.17277 12.4673 5.56209 11.0813C5.95142 9.6953 6.5354 8.41053 7.31405 7.22699C8.0304 6.16803 8.87134 5.23366 9.83686 4.42387C10.8024 3.61407 11.8613 2.96001 13.0137 2.46168L12.9203 2.08793C12.8892 1.99449 12.858 1.90884 12.8269 1.83097C12.7957 1.75311 12.7801 1.68303 12.7801 1.62074C12.7801 1.52731 12.7879 1.44165 12.8035 1.36379C12.8191 1.28592 12.8424 1.20027 12.8736 1.10683C12.9047 1.04454 12.9437 0.974467 12.9904 0.896603C13.0371 0.818738 13.0916 0.748659 13.1539 0.686367C13.2162 0.655221 13.2785 0.616287 13.3408 0.569569C13.4031 0.52285 13.4809 0.48392 13.5744 0.452774C13.6367 0.421628 13.7145 0.398267 13.808 0.382694C13.9014 0.367121 13.9793 0.37491 14.0415 0.406055C14.135 0.406055 14.2206 0.421628 14.2985 0.452774C14.3764 0.48392 14.4464 0.515065 14.5087 0.546211C14.571 0.577357 14.6333 0.624075 14.6956 0.686367C14.7579 0.748659 14.8202 0.81095 14.8825 0.873241C14.9136 0.935533 14.9448 1.00561 14.9759 1.08348C15.0071 1.16134 15.0382 1.24699 15.0694 1.34043L15.2095 1.71418C16.4242 1.40272 17.6623 1.27035 18.9237 1.31707C20.1851 1.36379 21.4231 1.5896 22.6378 1.99449C23.9771 2.46168 25.2229 3.12353 26.3753 3.98004C27.5277 4.83655 28.5088 5.85658 29.3186 7.04012C29.5055 7.28928 29.6456 7.54624 29.739 7.81098C29.8325 8.07572 29.9103 8.36382 29.9726 8.67527C30.0038 8.95559 30.0038 9.24368 29.9726 9.53957C29.9415 9.83546 29.8948 10.1236 29.8325 10.4039C29.739 10.6842 29.6145 10.9489 29.4587 11.1981C29.303 11.4473 29.1161 11.6653 28.8981 11.8521C28.6801 12.0702 28.4465 12.257 28.1973 12.4128C27.9482 12.5685 27.699 12.6931 27.4498 12.7865L25.0672 13.6275C25.0049 13.6275 24.9348 13.6352 24.8569 13.6508C24.7791 13.6664 24.709 13.6742 24.6467 13.6742C24.5533 13.6742 24.4676 13.6586 24.3898 13.6275C24.3119 13.5963 24.2418 13.5652 24.1795 13.534C24.1172 13.5029 24.0549 13.4639 23.9926 13.4172C23.9303 13.3705 23.8836 13.316 23.8525 13.2537C23.7902 13.1914 23.7435 13.1291 23.7123 13.0668C23.6812 13.0045 23.65 12.9423 23.6189 12.88C23.5877 12.8177 23.5644 12.7476 23.5488 12.6697C23.5332 12.5919 23.541 12.5062 23.5722 12.4128C23.5722 12.3505 23.58 12.2804 23.5955 12.2025C23.6111 12.1247 23.6345 12.0546 23.6656 11.9923C23.6968 11.93 23.7357 11.8677 23.7824 11.8054C23.8291 11.7431 23.8836 11.6808 23.9459 11.6186C24.0082 11.5874 24.0705 11.5485 24.1328 11.5018C24.1951 11.455 24.2574 11.4161 24.3197 11.385L26.7023 10.5907C26.7958 10.5596 26.897 10.5129 27.006 10.4506C27.115 10.3883 27.2007 10.3104 27.263 10.217C27.3564 10.1547 27.4343 10.069 27.4965 9.96004C27.5588 9.85103 27.6056 9.7498 27.6367 9.65637C27.6678 9.53178 27.6912 9.41499 27.7068 9.30598C27.7224 9.19697 27.7301 9.08017 27.7301 8.95559C27.699 8.831 27.6601 8.71421 27.6133 8.6052C27.5666 8.49619 27.5121 8.39496 27.4498 8.30152C26.7646 7.336 25.947 6.50285 24.9971 5.80207C24.0471 5.10129 23.0115 4.56402 21.8903 4.19027C20.7379 3.81652 19.5621 3.62965 18.363 3.62965C17.1639 3.62965 15.9882 3.81652 14.8358 4.19027C13.6834 4.59517 12.6244 5.16358 11.6589 5.89551C10.6934 6.62743 9.88358 7.49173 9.22952 8.4884C8.57545 9.48506 8.09269 10.5518 7.78124 11.6886C7.46978 12.8255 7.32962 13.9856 7.36077 15.1692C7.36077 15.2626 7.37634 15.3638 7.40749 15.4729C7.43863 15.5819 7.48535 15.6987 7.54764 15.8232C7.60993 15.9167 7.68001 16.0023 7.75788 16.0802C7.83574 16.1581 7.92139 16.2281 8.01483 16.2904C8.10827 16.3527 8.20949 16.4072 8.3185 16.4539C8.42751 16.5007 8.54431 16.5396 8.66889 16.5707C8.79348 16.5707 8.91027 16.563 9.01928 16.5474C9.12829 16.5318 9.24509 16.5085 9.36967 16.4773L15.5365 14.375C16.0037 14.2192 16.4865 14.1569 16.9848 14.1881C17.4832 14.2192 17.9659 14.3438 18.4331 14.5618C18.6511 14.6864 18.8536 14.8188 19.0405 14.9589C19.2273 15.0991 19.4142 15.2626 19.6011 15.4495C19.7568 15.6364 19.897 15.8388 20.0215 16.0568C20.1461 16.2749 20.2396 16.5085 20.3019 16.7576L23.6656 26.5686C23.7279 26.7243 23.7513 26.8722 23.7357 27.0124C23.7201 27.1525 23.6812 27.3005 23.6189 27.4562C23.5566 27.5808 23.4709 27.6976 23.3619 27.8066C23.2529 27.9156 23.1206 27.9857 22.9648 28.0168C22.9025 28.048 22.8402 28.0636 22.778 28.0636C22.7157 28.0636 22.6534 28.0636 22.5911 28.0636C22.4665 28.0636 22.3497 28.048 22.2407 28.0168C22.1317 27.9857 22.0305 27.939 21.937 27.8767C21.8124 27.8144 21.719 27.7365 21.6567 27.6431C21.5944 27.5496 21.5321 27.4406 21.4698 27.3161L18.1528 17.5051C18.1217 17.4117 18.0827 17.3182 18.036 17.2248C17.9893 17.1314 17.9348 17.0535 17.8725 16.9912C17.8102 16.9289 17.7401 16.8666 17.6623 16.8043C17.5844 16.742 17.4987 16.6798 17.4053 16.6175C17.3119 16.5863 17.2184 16.5552 17.125 16.524C17.0315 16.4929 16.9381 16.4773 16.8447 16.4773C16.7512 16.4773 16.6578 16.4851 16.5644 16.5007C16.4709 16.5162 16.3775 16.5396 16.284 16.5707L10.0705 18.6731C9.79014 18.7665 9.50204 18.8288 9.20616 18.86C8.91027 18.8911 8.62217 18.8911 8.34186 18.86C8.06155 18.8288 7.78124 18.7587 7.50092 18.6497C7.22061 18.5407 6.95587 18.4083 6.7067 18.2526C6.45754 18.0657 6.23952 17.8711 6.05264 17.6686C5.86577 17.4662 5.69446 17.2248 5.53874 16.9445C5.38301 16.6953 5.26621 16.4306 5.18834 16.1503C5.11048 15.87 5.05597 15.5896 5.02483 15.3093H5.07155ZM39.223 30.3995C38.5689 30.3683 37.9304 30.4462 37.3075 30.6331C36.6846 30.82 36.0928 31.0847 35.5322 31.4273C35.1584 31.6765 34.7535 31.8633 34.3175 31.9879C33.8814 32.1125 33.4454 32.1748 33.0094 32.1748C32.5422 32.1748 32.0906 32.1125 31.6545 31.9879C31.2185 31.8633 30.8136 31.6765 30.4398 31.4273C29.8792 31.0847 29.2874 30.8277 28.6645 30.6564C28.0416 30.4851 27.4031 30.3995 26.749 30.3995C26.095 30.3995 25.4565 30.4851 24.8336 30.6564C24.2107 30.8277 23.6189 31.0847 23.0583 31.4273C22.6845 31.6765 22.2874 31.8633 21.8669 31.9879C21.4465 32.1125 21.0026 32.1748 20.5355 32.1748C20.0683 32.1748 19.6167 32.1125 19.1806 31.9879C18.7446 31.8633 18.3397 31.6765 17.9659 31.4273C17.4364 31.0847 16.8602 30.82 16.2373 30.6331C15.6144 30.4462 14.9759 30.3683 14.3219 30.3995C13.6678 30.3683 13.0215 30.4462 12.383 30.6331C11.7445 30.82 11.1606 31.0847 10.6311 31.4273C10.2573 31.6765 9.85243 31.8633 9.41639 31.9879C8.98035 32.1125 8.52874 32.1748 8.06155 32.1748C7.62551 32.1748 7.18946 32.1125 6.75342 31.9879C6.31738 31.8633 5.91249 31.6765 5.53874 31.4273C4.97811 31.0847 4.38634 30.82 3.76342 30.6331C3.14051 30.4462 2.50202 30.3683 1.84795 30.3995C1.78566 30.3995 1.71558 30.3995 1.63772 30.3995C1.55986 30.3995 1.4742 30.4151 1.38077 30.4462C1.31847 30.4774 1.2484 30.5085 1.17053 30.5396C1.09267 30.5708 1.02259 30.6175 0.960298 30.6798C0.898006 30.7421 0.843501 30.8044 0.796782 30.8667C0.750063 30.929 0.711131 30.9913 0.679985 31.0536C0.64884 31.147 0.62548 31.2326 0.609907 31.3105C0.594334 31.3884 0.586548 31.4585 0.586548 31.5207C0.586548 31.6142 0.594334 31.6998 0.609907 31.7777C0.62548 31.8556 0.64884 31.9256 0.679985 31.9879C0.711131 32.0814 0.750063 32.1592 0.796782 32.2215C0.843501 32.2838 0.898006 32.3461 0.960298 32.4084C1.02259 32.4395 1.09267 32.4785 1.17053 32.5252C1.2484 32.5719 1.31847 32.6108 1.38077 32.642C1.4742 32.6731 1.55986 32.6887 1.63772 32.6887C1.71558 32.6887 1.78566 32.6887 1.84795 32.6887C2.31514 32.6887 2.75897 32.751 3.17944 32.8756C3.59991 33.0002 3.99702 33.187 4.37077 33.4362C4.93139 33.7788 5.52316 34.0358 6.14608 34.2071C6.769 34.3784 7.40749 34.464 8.06155 34.464C8.71561 34.464 9.3541 34.3784 9.97702 34.2071C10.5999 34.0358 11.1917 33.7788 11.7523 33.4362C12.1261 33.187 12.531 33.0002 12.967 32.8756C13.4031 32.751 13.8547 32.7043 14.3219 32.7354C14.7579 32.7043 15.1939 32.751 15.63 32.8756C16.066 33.0002 16.4709 33.2026 16.8447 33.4829C17.4053 33.7944 17.9971 34.0436 18.62 34.2304C19.2429 34.4173 19.8814 34.5107 20.5355 34.5107C21.1895 34.5107 21.828 34.4173 22.4509 34.2304C23.0738 34.0436 23.6656 33.7944 24.2262 33.4829C24.6 33.2338 25.0049 33.0469 25.4409 32.9223C25.877 32.7977 26.313 32.7354 26.749 32.7354C27.2162 32.7354 27.6601 32.7977 28.0805 32.9223C28.501 33.0469 28.9137 33.2338 29.3186 33.4829C29.8481 33.7944 30.432 34.0436 31.0705 34.2304C31.709 34.4173 32.3553 34.5107 33.0094 34.5107C33.6323 34.5107 34.263 34.4173 34.9015 34.2304C35.54 34.0436 36.1239 33.7944 36.6534 33.4829C37.0272 33.2026 37.4321 33.0002 37.8681 32.8756C38.3042 32.751 38.7558 32.7043 39.223 32.7354C39.2852 32.7354 39.3553 32.7276 39.4332 32.7121C39.5111 32.6965 39.5967 32.6887 39.6901 32.6887C39.7524 32.6576 39.8225 32.6186 39.9004 32.5719C39.9782 32.5252 40.0483 32.4707 40.1106 32.4084C40.1729 32.3773 40.2274 32.3227 40.2741 32.2449C40.3208 32.167 40.3598 32.0969 40.3909 32.0346C40.4221 31.9724 40.4454 31.9023 40.461 31.8244C40.4766 31.7465 40.4844 31.6609 40.4844 31.5675C40.4844 31.5052 40.4766 31.4351 40.461 31.3572C40.4454 31.2794 40.4221 31.1937 40.3909 31.1003C40.3598 31.038 40.3208 30.9757 40.2741 30.9134C40.2274 30.8511 40.1729 30.7888 40.1106 30.7265C40.0483 30.6642 39.9782 30.6175 39.9004 30.5864C39.8225 30.5552 39.7524 30.5241 39.6901 30.4929C39.5967 30.4618 39.5111 30.4384 39.4332 30.4229C39.3553 30.4073 39.2852 30.4151 39.223 30.4462V30.3995Z" fill="#00B9FF"/>
</svg>
