<svg width="32" height="32" viewBox="0 0 32 32" fill="none" xmlns="http://www.w3.org/2000/svg">
<g id="icon-4">
<g id="Container">
<g id="Container_2">
<g id="Icon">
<path id="Vector" d="M28.6063 13.0772C28.5442 13.0979 28.482 13.1134 28.4198 13.1238C28.3576 13.1342 28.2954 13.1394 28.2332 13.1394C27.9223 13.1601 27.6373 13.2378 27.3781 13.3726C27.119 13.5073 26.8858 13.6783 26.6785 13.8856C26.4712 14.0929 26.3158 14.3365 26.2121 14.6163C26.1085 14.8962 26.0567 15.1812 26.0567 15.4714C26.0567 15.7616 26.1085 16.0466 26.2121 16.3265C26.3158 16.6063 26.4712 16.8499 26.6785 17.0572C26.8858 17.2852 27.119 17.4614 27.3781 17.5858C27.6373 17.7101 27.9223 17.7827 28.2332 17.8034C28.2954 17.8034 28.3576 17.8086 28.4198 17.819C28.482 17.8293 28.5442 17.8449 28.6063 17.8656C28.6478 17.8863 28.6944 17.9174 28.7463 17.9589C28.7981 18.0003 28.8551 18.0418 28.9173 18.0833C28.9587 18.1247 28.995 18.1714 29.0261 18.2232C29.0572 18.275 29.0831 18.332 29.1038 18.3942C29.1246 18.4564 29.1453 18.5186 29.166 18.5808C29.1868 18.6429 29.1971 18.7051 29.1971 18.7673V22.0322C29.1971 22.3846 29.1298 22.7214 28.995 23.0427C28.8603 23.364 28.6685 23.6387 28.4198 23.8667C28.171 24.1154 27.8912 24.3072 27.5803 24.4419C27.2693 24.5767 26.9376 24.644 26.5853 24.644H5.25494C4.90255 24.644 4.5657 24.5767 4.24439 24.4419C3.92309 24.3072 3.64843 24.1154 3.42041 23.8667C3.17166 23.6387 2.97992 23.364 2.84518 23.0427C2.71044 22.7214 2.64307 22.3846 2.64307 22.0322V18.7673C2.64307 18.6429 2.66898 18.5186 2.7208 18.3942C2.77262 18.2698 2.83999 18.1662 2.92291 18.0833C3.02656 18.0003 3.13538 17.933 3.24939 17.8812C3.3634 17.8293 3.4826 17.8034 3.60697 17.8034C3.77281 17.8241 3.93346 17.819 4.08893 17.7879C4.24439 17.7568 4.39468 17.7205 4.53979 17.679C4.68489 17.6169 4.82999 17.5443 4.9751 17.4614C5.1202 17.3785 5.24458 17.2852 5.34822 17.1815C5.4726 17.0779 5.58143 16.9587 5.67471 16.824C5.76799 16.6892 5.84572 16.5493 5.90791 16.4042C5.9701 16.2591 6.01674 16.1088 6.04783 15.9533C6.07893 15.7979 6.09447 15.6372 6.09447 15.4714C6.09447 15.3263 6.07893 15.1708 6.04783 15.005C6.01674 14.8391 5.9701 14.6837 5.90791 14.5386C5.84572 14.3935 5.76799 14.2587 5.67471 14.1344C5.58143 14.01 5.4726 13.8856 5.34822 13.7612C5.24458 13.6576 5.1202 13.5643 4.9751 13.4814C4.82999 13.3985 4.68489 13.3363 4.53979 13.2948C4.39468 13.2326 4.24439 13.1912 4.08893 13.1704C3.93346 13.1497 3.77281 13.1394 3.60697 13.1394C3.54479 13.1394 3.4826 13.1342 3.42041 13.1238C3.35822 13.1134 3.29604 13.0979 3.23385 13.0772C3.17166 13.0564 3.11465 13.0305 3.06283 12.9994C3.01101 12.9683 2.96437 12.9217 2.92291 12.8595C2.88145 12.8181 2.84518 12.7714 2.81408 12.7196C2.78299 12.6678 2.75708 12.6108 2.73635 12.5486C2.69489 12.5071 2.66898 12.4553 2.65861 12.3931C2.64825 12.3309 2.64307 12.2584 2.64307 12.1754V8.91061C2.64307 8.55821 2.71044 8.22654 2.84518 7.91561C2.97992 7.60467 3.17166 7.32482 3.42041 7.07607C3.64843 6.82732 3.92309 6.64076 4.24439 6.51639C4.5657 6.39201 4.90255 6.32982 5.25494 6.32982H26.5853C26.9376 6.32982 27.2693 6.39201 27.5803 6.51639C27.8912 6.64076 28.171 6.82732 28.4198 7.07607C28.6685 7.32482 28.8603 7.60467 28.995 7.91561C29.1298 8.22654 29.1971 8.55821 29.1971 8.91061V12.1754C29.1971 12.2584 29.1919 12.3309 29.1816 12.3931C29.1712 12.4553 29.1453 12.5071 29.1038 12.5486C29.0831 12.6108 29.0572 12.6678 29.0261 12.7196C28.995 12.7714 28.9587 12.8284 28.9173 12.8906C28.8758 12.9321 28.824 12.9683 28.7618 12.9994C28.6996 13.0305 28.6478 13.0564 28.6063 13.0772ZM24.9062 18.1144C24.616 17.7412 24.3931 17.3266 24.2377 16.8706C24.0822 16.4146 24.0045 15.9482 24.0045 15.4714C24.0045 14.9946 24.0822 14.5282 24.2377 14.0722C24.3931 13.6161 24.616 13.2015 24.9062 12.8284C25.2171 12.4553 25.5747 12.1444 25.9789 11.8956C26.3831 11.6469 26.8133 11.4603 27.2693 11.3359V8.91061C27.2693 8.82769 27.2538 8.74477 27.2227 8.66186C27.1916 8.57894 27.1346 8.49602 27.0517 8.41311C26.9895 8.35092 26.9169 8.30428 26.834 8.27318C26.7511 8.24209 26.6682 8.22654 26.5853 8.22654H5.25494C5.1513 8.22654 5.05801 8.24209 4.9751 8.27318C4.89218 8.30428 4.81963 8.36128 4.75744 8.4442C4.69525 8.50639 4.64861 8.57894 4.61752 8.66186C4.58643 8.74477 4.57088 8.82769 4.57088 8.91061V11.3359C5.02692 11.4603 5.45705 11.652 5.86127 11.9112C6.26549 12.1703 6.6127 12.4864 6.90291 12.8595C7.21385 13.2326 7.44705 13.642 7.60252 14.0877C7.75799 14.5334 7.83572 14.9946 7.83572 15.4714C7.83572 15.9482 7.75799 16.4146 7.60252 16.8706C7.44705 17.3266 7.21385 17.7412 6.90291 18.1144C6.6127 18.4875 6.26549 18.8036 5.86127 19.0627C5.45705 19.3218 5.02692 19.5032 4.57088 19.6069V22.0322C4.57088 22.1358 4.58643 22.2291 4.61752 22.312C4.64861 22.3949 4.69525 22.4675 4.75744 22.5297C4.81963 22.5919 4.89218 22.6385 4.9751 22.6696C5.05801 22.7007 5.1513 22.7162 5.25494 22.7162H26.5853C26.6682 22.7162 26.7511 22.7007 26.834 22.6696C26.9169 22.6385 26.9998 22.5919 27.0828 22.5297C27.1449 22.4675 27.1916 22.3949 27.2227 22.312C27.2538 22.2291 27.2693 22.1358 27.2693 22.0322V19.6069C26.8133 19.5032 26.378 19.3218 25.9634 19.0627C25.5488 18.8036 25.1964 18.4875 24.9062 18.1144ZM13.9612 10.7451C14.1063 10.9524 14.2203 11.1804 14.3032 11.4292C14.3861 11.6779 14.4276 11.9267 14.4276 12.1754C14.4276 12.5278 14.3602 12.8647 14.2255 13.186C14.0907 13.5073 13.899 13.7923 13.6503 14.0411C13.4015 14.2691 13.1217 14.4505 12.8107 14.5852C12.4998 14.72 12.1681 14.7873 11.8157 14.7873C11.5462 14.7873 11.2923 14.751 11.0539 14.6785C10.8155 14.6059 10.5823 14.4971 10.3543 14.352C10.147 14.2069 9.96046 14.0359 9.79463 13.839C9.6288 13.642 9.49406 13.4296 9.39041 13.2015C9.30749 12.9528 9.25049 12.6989 9.21939 12.4397C9.1883 12.1806 9.20385 11.9267 9.26604 11.6779C9.30749 11.4292 9.39041 11.1908 9.51479 10.9628C9.63916 10.7348 9.79463 10.5275 9.98119 10.3409C10.147 10.1544 10.344 10.0041 10.572 9.89006C10.8 9.77605 11.0487 9.68795 11.3182 9.62576C11.567 9.5843 11.8157 9.57394 12.0645 9.59467C12.3132 9.6154 12.562 9.67758 12.8107 9.78123C13.0387 9.88488 13.2564 10.0196 13.4637 10.1854C13.671 10.3513 13.8368 10.5378 13.9612 10.7451ZM12.1888 11.6158C12.1474 11.5743 12.0904 11.5484 12.0178 11.538C11.9453 11.5277 11.8779 11.5225 11.8157 11.5225C11.7328 11.5225 11.6499 11.538 11.567 11.5691C11.4841 11.6002 11.4115 11.6469 11.3493 11.709C11.2664 11.7712 11.2094 11.8438 11.1783 11.9267C11.1472 12.0096 11.1317 12.0925 11.1317 12.1754C11.1317 12.2584 11.142 12.3309 11.1628 12.3931C11.1835 12.4553 11.2146 12.5175 11.256 12.5797C11.2768 12.6419 11.3182 12.6937 11.3804 12.7351C11.4426 12.7766 11.5048 12.8077 11.567 12.8284C11.6292 12.8699 11.6913 12.8906 11.7535 12.8906C11.8157 12.8906 11.8779 12.8906 11.9401 12.8906C12.023 12.8699 12.0956 12.844 12.1578 12.8129C12.2199 12.7818 12.2718 12.7455 12.3132 12.704C12.3547 12.6419 12.391 12.5797 12.4221 12.5175C12.4531 12.4553 12.4791 12.3931 12.4998 12.3309C12.5205 12.2687 12.5257 12.2014 12.5153 12.1288C12.505 12.0563 12.4894 11.9889 12.4687 11.9267C12.4272 11.8645 12.3858 11.8075 12.3443 11.7557C12.3029 11.7039 12.251 11.6572 12.1888 11.6158ZM20.8329 16.1554C20.5842 16.1554 20.3354 16.1917 20.0867 16.2643C19.8379 16.3368 19.6099 16.4457 19.4026 16.5908C19.1746 16.7359 18.9776 16.9121 18.8118 17.1194C18.646 17.3266 18.5216 17.5443 18.4387 17.7723C18.335 18.0211 18.2729 18.2698 18.2521 18.5186C18.2314 18.7673 18.2418 19.0161 18.2832 19.2648C18.3247 19.5343 18.4076 19.7831 18.532 20.0111C18.6563 20.2391 18.8118 20.436 18.9984 20.6019C19.1849 20.7884 19.3922 20.9439 19.6203 21.0683C19.8483 21.1926 20.0867 21.2756 20.3354 21.317C20.5842 21.3792 20.8381 21.3947 21.0972 21.3637C21.3563 21.3326 21.5999 21.2652 21.8279 21.1615C22.0767 21.0579 22.2995 20.9283 22.4964 20.7729C22.6934 20.6174 22.8644 20.4257 23.0095 20.1976C23.1546 19.9903 23.2634 19.7623 23.336 19.5136C23.4085 19.2648 23.4448 19.0161 23.4448 18.7673C23.4448 18.5808 23.4292 18.4046 23.3981 18.2387C23.3671 18.0729 23.3204 17.9174 23.2582 17.7723C23.1753 17.6065 23.0872 17.451 22.9939 17.3059C22.9006 17.1608 22.7918 17.0364 22.6674 16.9328C22.5638 16.8084 22.4394 16.6996 22.2943 16.6063C22.1492 16.513 21.9937 16.4249 21.8279 16.342C21.6828 16.2798 21.5222 16.2332 21.346 16.2021C21.1698 16.171 20.9987 16.1554 20.8329 16.1554ZM20.8329 19.4514C20.7707 19.4514 20.7085 19.441 20.6463 19.4203C20.5842 19.3996 20.522 19.3685 20.4598 19.327C20.3976 19.2856 20.3458 19.2389 20.3043 19.1871C20.2629 19.1353 20.2318 19.0783 20.211 19.0161C20.1696 18.9539 20.1488 18.8917 20.1488 18.8295C20.1488 18.7673 20.1488 18.6948 20.1488 18.6119C20.1696 18.5497 20.1955 18.4875 20.2266 18.4253C20.2577 18.3631 20.294 18.3113 20.3354 18.2698C20.3976 18.2284 20.4598 18.1921 20.522 18.161C20.5842 18.1299 20.6463 18.104 20.7085 18.0833C20.7707 18.0625 20.8381 18.0574 20.9106 18.0677C20.9832 18.0781 21.0506 18.0936 21.1128 18.1144C21.1749 18.1351 21.2319 18.1714 21.2838 18.2232C21.3356 18.275 21.3822 18.3216 21.4237 18.3631C21.4444 18.4253 21.4651 18.4875 21.4859 18.5497C21.5066 18.6119 21.517 18.6844 21.517 18.7673C21.517 18.8502 21.5014 18.9332 21.4703 19.0161C21.4392 19.099 21.3926 19.1715 21.3304 19.2337C21.2682 19.2959 21.1957 19.3477 21.1128 19.3892C21.0298 19.4307 20.9366 19.4514 20.8329 19.4514ZM20.8951 10.9939C20.9366 11.0561 20.9625 11.1183 20.9728 11.1804C20.9832 11.2426 20.9884 11.3048 20.9884 11.367C20.9884 11.4292 20.9832 11.4914 20.9728 11.5536C20.9625 11.6158 20.9366 11.6779 20.8951 11.7401C20.8744 11.8023 20.8485 11.8593 20.8174 11.9112C20.7863 11.963 20.75 12.0096 20.7085 12.0511L12.4998 20.2598C12.4583 20.3013 12.4117 20.3427 12.3599 20.3842C12.308 20.4257 12.251 20.4568 12.1888 20.4775C12.1267 20.4982 12.0645 20.5138 12.0023 20.5241C11.9401 20.5345 11.8779 20.5397 11.8157 20.5397C11.7535 20.5397 11.6913 20.5345 11.6292 20.5241C11.567 20.5138 11.5048 20.4982 11.4426 20.4775C11.3804 20.436 11.3234 20.3997 11.2716 20.3687C11.2198 20.3376 11.1731 20.3013 11.1317 20.2598C11.0487 20.1562 10.9814 20.0474 10.9296 19.9333C10.8777 19.8193 10.8518 19.7001 10.8518 19.5758C10.8518 19.4514 10.8777 19.3322 10.9296 19.2182C10.9814 19.1042 11.0487 18.9953 11.1317 18.8917L19.3404 10.6829C19.4233 10.6 19.527 10.5378 19.6513 10.4964C19.7757 10.4549 19.9001 10.4342 20.0245 10.4342C20.1488 10.4342 20.268 10.4549 20.3821 10.4964C20.4961 10.5378 20.6049 10.6 20.7085 10.6829C20.75 10.7244 20.7863 10.771 20.8174 10.8229C20.8485 10.8747 20.8744 10.9317 20.8951 10.9939Z" fill="#D5B85D"/>
</g>
</g>
</g>
</g>
</svg>
