<svg width="49" height="49" viewBox="0 0 49 49" fill="none" xmlns="http://www.w3.org/2000/svg">
<g id="Icon">
<path id="Vector" d="M25.3296 40.8379H15.6121C15.2384 40.8379 14.888 40.7678 14.5609 40.6277C14.2339 40.4875 13.9302 40.2928 13.6499 40.0437C13.4008 39.7634 13.2061 39.4597 13.0659 39.1327C12.9258 38.8056 12.8557 38.4552 12.8557 38.0815V28.4107C12.8557 28.1304 12.8946 27.8579 12.9725 27.5931C13.0504 27.3284 13.1672 27.087 13.3229 26.869C13.4786 26.651 13.6655 26.4563 13.8835 26.285C14.1015 26.1137 14.3351 25.9813 14.5843 25.8879C14.8335 25.7945 15.0904 25.7322 15.3552 25.701C15.6199 25.6699 15.8769 25.6854 16.126 25.7477C16.4063 25.7789 16.6633 25.8645 16.8969 26.0047C17.1305 26.1448 17.3407 26.3084 17.5276 26.4952L18.5087 27.4296C18.5398 27.4608 18.5788 27.4919 18.6255 27.523C18.6722 27.5542 18.7267 27.5698 18.789 27.5698C18.8513 27.5698 18.9136 27.5542 18.9759 27.523C19.0382 27.4919 19.0849 27.4608 19.116 27.4296L28.3663 18.1793C28.6155 17.9301 28.9036 17.7355 29.2306 17.5953C29.5577 17.4552 29.9081 17.3851 30.2818 17.3851C30.6244 17.3851 30.967 17.4552 31.3096 17.5953C31.6522 17.7355 31.9481 17.9301 32.1973 18.1793L33.1317 19.1137C33.1628 19.1448 33.2017 19.176 33.2484 19.2071C33.2952 19.2383 33.3341 19.2538 33.3652 19.2538C33.3964 19.2538 33.4353 19.2538 33.482 19.2538C33.5288 19.2538 33.5677 19.2383 33.5988 19.2071C33.6611 19.2071 33.7078 19.1915 33.739 19.1604C33.7701 19.1292 33.8013 19.0981 33.8324 19.067C33.8324 19.0358 33.8402 18.9969 33.8558 18.9502C33.8714 18.9034 33.8792 18.8645 33.8792 18.8334V9.16257C33.8792 9.13143 33.8792 9.10028 33.8792 9.06914C33.8792 9.03799 33.8636 9.00685 33.8324 8.9757C33.8324 8.94456 33.8246 8.9212 33.8091 8.90562C33.7935 8.89005 33.7701 8.86669 33.739 8.83554C33.739 8.8044 33.7234 8.78104 33.6923 8.76546C33.6611 8.74989 33.63 8.74211 33.5988 8.74211C33.5677 8.74211 33.5443 8.73432 33.5288 8.71875C33.5132 8.70317 33.4898 8.69539 33.4587 8.69539L23.7412 8.64867C23.71 8.64867 23.6711 8.65646 23.6244 8.67203C23.5777 8.6876 23.5387 8.71096 23.5076 8.74211C23.4764 8.77325 23.4453 8.8044 23.4142 8.83554C23.383 8.86669 23.3674 8.89784 23.3674 8.92898C23.3363 8.96013 23.3207 8.99906 23.3207 9.04578C23.3207 9.0925 23.3207 9.13143 23.3207 9.16257C23.3207 9.22487 23.3363 9.27159 23.3674 9.30273C23.3986 9.33388 23.4142 9.36502 23.4142 9.39617L24.3952 10.3773C24.6444 10.6264 24.8313 10.9145 24.9559 11.2416C25.0805 11.5686 25.1427 11.919 25.1427 12.2927C25.1427 12.6353 25.0805 12.9702 24.9559 13.2972C24.8313 13.6242 24.6444 13.9123 24.3952 14.1615C24.1772 14.4418 23.9436 14.7065 23.6945 14.9557C23.4453 15.2049 23.1806 15.4385 22.9002 15.6565C22.4019 16.1548 21.8335 16.5441 21.195 16.8245C20.5565 17.1048 19.8791 17.2916 19.1627 17.3851C18.8824 17.3851 18.6021 17.3617 18.3218 17.315C18.0415 17.2683 17.7768 17.1982 17.5276 17.1048C17.2784 17.0113 17.037 16.8867 16.8034 16.731C16.5699 16.5753 16.3596 16.3884 16.1727 16.1704C16.0482 16.077 15.9547 15.9524 15.8924 15.7966C15.8301 15.6409 15.8146 15.4852 15.8457 15.3295C15.8457 15.2672 15.8535 15.1971 15.8691 15.1192C15.8846 15.0414 15.908 14.9713 15.9392 14.909C15.9703 14.8467 16.0014 14.7844 16.0326 14.7221C16.0637 14.6598 16.1105 14.5975 16.1727 14.5352C16.235 14.4729 16.2973 14.4184 16.3596 14.3717C16.4219 14.325 16.4842 14.3016 16.5465 14.3016C16.6399 14.2705 16.7256 14.2471 16.8034 14.2316C16.8813 14.216 16.9514 14.2082 17.0137 14.2082C17.1694 14.2082 17.3174 14.2393 17.4575 14.3016C17.5977 14.3639 17.73 14.4418 17.8546 14.5352C17.9169 14.6287 17.9948 14.7143 18.0882 14.7922C18.1817 14.8701 18.2907 14.9246 18.4152 14.9557C18.5087 15.018 18.6177 15.0569 18.7423 15.0725C18.8669 15.0881 18.9759 15.0959 19.0693 15.0959C19.7857 15.0647 20.502 14.7377 21.2184 14.1148C21.9347 13.4918 22.4175 13.0247 22.6667 12.7132L22.7601 12.6198C22.7912 12.5575 22.8224 12.503 22.8535 12.4562C22.8847 12.4095 22.9002 12.355 22.9002 12.2927C22.9002 12.2304 22.8847 12.1759 22.8535 12.1292C22.8224 12.0825 22.7912 12.0436 22.7601 12.0124L21.8257 11.0313C21.6388 10.8444 21.4753 10.6342 21.3352 10.4006C21.195 10.167 21.1094 9.91008 21.0782 9.62976C21.0159 9.3806 21.0003 9.11586 21.0315 8.83554C21.0626 8.55523 21.1249 8.29049 21.2184 8.04132C21.3118 7.79216 21.4442 7.56635 21.6155 7.3639C21.7868 7.16146 21.9814 6.98237 22.1995 6.82664C22.4175 6.67091 22.6589 6.55411 22.9236 6.47625C23.1883 6.39838 23.4609 6.35945 23.7412 6.35945L33.4587 6.40617C33.6456 6.40617 33.8246 6.42174 33.9959 6.45289C34.1672 6.48404 34.3463 6.53075 34.5332 6.59304C34.6889 6.65533 34.8447 6.74099 35.0004 6.85C35.1561 6.95901 35.2963 7.07581 35.4209 7.20039C35.5455 7.32497 35.6545 7.46513 35.7479 7.62086C35.8413 7.77658 35.9192 7.93232 35.9815 8.08804C36.0749 8.24377 36.1372 8.41508 36.1684 8.60195C36.1995 8.78883 36.2151 8.9757 36.2151 9.16257V18.8334C36.2151 19.0825 36.1762 19.3395 36.0983 19.6042C36.0204 19.869 35.9036 20.1103 35.7479 20.3284C35.5922 20.5464 35.4131 20.741 35.2106 20.9123C35.0082 21.0836 34.7824 21.2316 34.5332 21.3562C34.284 21.4496 34.0193 21.5041 33.739 21.5197C33.4587 21.5353 33.1939 21.5275 32.9448 21.4963C32.6645 21.434 32.4075 21.3406 32.1739 21.216C31.9403 21.0914 31.7301 20.9357 31.5432 20.7488L30.5621 19.7677C30.531 19.7366 30.492 19.7132 30.4453 19.6977C30.3986 19.6821 30.3441 19.6743 30.2818 19.6743C30.2195 19.6743 30.1572 19.6821 30.0949 19.6977C30.0326 19.7132 29.9859 19.7366 29.9548 19.7677L20.7045 29.0648C20.4553 29.2828 20.1672 29.4619 19.8402 29.602C19.5131 29.7422 19.1627 29.8123 18.789 29.8123C18.4464 29.8123 18.1038 29.7422 17.7612 29.602C17.4186 29.4619 17.1227 29.2828 16.8735 29.0648L15.9392 28.0837C15.908 28.0525 15.8691 28.0292 15.8224 28.0136C15.7756 27.998 15.7367 27.9902 15.7056 27.9902C15.6744 27.9591 15.6355 27.9513 15.5888 27.9669C15.542 27.9824 15.5031 27.9902 15.472 27.9902C15.4097 28.0214 15.363 28.0447 15.3318 28.0603C15.3007 28.0759 15.2695 28.1148 15.2384 28.1771C15.2384 28.2083 15.2306 28.2394 15.215 28.2705C15.1994 28.3017 15.1917 28.3484 15.1917 28.4107V38.0815C15.1917 38.1126 15.1917 38.1438 15.1917 38.1749C15.1917 38.2061 15.2072 38.2216 15.2384 38.2216C15.2384 38.2528 15.2462 38.2839 15.2617 38.3151C15.2773 38.3462 15.3007 38.3618 15.3318 38.3618C15.3318 38.3929 15.3474 38.4163 15.3785 38.4319C15.4097 38.4474 15.4408 38.4552 15.472 38.4552C15.5031 38.4864 15.5265 38.502 15.542 38.502C15.5576 38.502 15.581 38.502 15.6121 38.502L25.3296 38.5487C25.3919 38.5487 25.4386 38.5409 25.4698 38.5253C25.5009 38.5097 25.5476 38.502 25.6099 38.502C25.6411 38.4708 25.6644 38.4397 25.68 38.4085C25.6956 38.3774 25.7189 38.3307 25.7501 38.2684C25.7501 38.2372 25.7579 38.1983 25.7734 38.1516C25.789 38.1048 25.7812 38.0659 25.7501 38.0348C25.7501 38.0036 25.7423 37.9647 25.7267 37.918C25.7112 37.8712 25.6878 37.8323 25.6567 37.8012L24.7223 36.8668C24.4731 36.6176 24.2784 36.3217 24.1383 35.9791C23.9981 35.6365 23.9281 35.2939 23.9281 34.9513C23.9281 34.5776 23.9981 34.2272 24.1383 33.9002C24.2784 33.5731 24.4731 33.285 24.7223 33.0359C24.9403 32.7555 25.1739 32.4986 25.4231 32.265C25.6722 32.0314 25.9214 31.79 26.1706 31.5409C26.7 31.0737 27.284 30.6921 27.9225 30.3962C28.561 30.1004 29.2228 29.9213 29.9081 29.859C30.1884 29.8278 30.4687 29.8356 30.749 29.8823C31.0293 29.9291 31.294 29.9991 31.5432 30.0926C31.8235 30.186 32.0805 30.3184 32.3141 30.4897C32.5477 30.661 32.7579 30.8401 32.9448 31.027C33.0382 31.1515 33.1161 31.2839 33.1784 31.4241C33.2407 31.5642 33.2718 31.7122 33.2718 31.8679C33.2718 32.0236 33.2407 32.1716 33.1784 32.3117C33.1161 32.4519 33.0226 32.5842 32.8981 32.7088C32.7735 32.8023 32.6411 32.8801 32.5009 32.9424C32.3608 33.0047 32.2128 33.0359 32.0571 33.0359C31.9014 33.0359 31.7534 33.0047 31.6133 32.9424C31.4731 32.8801 31.3408 32.7867 31.2162 32.6621C31.1539 32.5687 31.076 32.4908 30.9826 32.4285C30.8892 32.3662 30.7801 32.3039 30.6556 32.2416C30.5621 32.2105 30.4531 32.1793 30.3285 32.1482C30.2039 32.1171 30.0949 32.1171 30.0015 32.1482C29.2851 32.1793 28.5766 32.5064 27.8758 33.1293C27.175 33.7522 26.7 34.2194 26.4509 34.5309L26.3574 34.6243C26.3263 34.6554 26.3029 34.6944 26.2874 34.7411C26.2718 34.7878 26.264 34.8423 26.264 34.9046C26.264 34.9669 26.2718 35.0214 26.2874 35.0681C26.3029 35.1148 26.3263 35.1693 26.3574 35.2316L27.3385 36.166C27.5254 36.3529 27.6811 36.5709 27.8057 36.8201C27.9303 37.0692 28.0237 37.3184 28.086 37.5676C28.1172 37.8479 28.125 38.1204 28.1094 38.3852C28.0938 38.6499 28.0237 38.9068 27.8992 39.156C27.8057 39.4052 27.6733 39.631 27.502 39.8334C27.3307 40.0359 27.1361 40.215 26.9181 40.3707C26.7 40.5264 26.4587 40.6432 26.1939 40.7211C25.9292 40.799 25.6722 40.8379 25.4231 40.8379H25.3296Z" fill="#00B9FF"/>
</g>
</svg>
