<svg width="32" height="32" viewBox="0 0 32 32" fill="none" xmlns="http://www.w3.org/2000/svg">
<g id="icon-2">
<g id="Container">
<g id="Container_2">
<g id="Icon">
<path id="Vector" d="M19.3092 8.9728C19.3714 9.01426 19.4387 9.04535 19.5113 9.06608C19.5838 9.08681 19.6616 9.09718 19.7445 9.09718C19.8481 9.09718 19.9466 9.08163 20.0399 9.05054C20.1332 9.01944 20.2213 8.9728 20.3042 8.91062C20.3871 8.86916 20.4596 8.80697 20.5218 8.72405C20.584 8.64114 20.6358 8.55822 20.6773 8.4753L22.2009 5.33483C22.2838 5.169 22.3408 4.9928 22.3719 4.80624C22.403 4.61968 22.3978 4.43312 22.3564 4.24655C22.3356 4.05999 22.2838 3.88379 22.2009 3.71796C22.118 3.55213 22.0143 3.40702 21.89 3.28265C21.7656 3.13754 21.6153 3.02353 21.4391 2.94062C21.2629 2.8577 21.0919 2.79551 20.926 2.75405C20.7188 2.73332 20.5218 2.73851 20.3353 2.7696C20.1487 2.80069 19.9725 2.8577 19.8067 2.94062L17.8789 3.84233L17.4125 3.12718C17.3295 3.02353 17.2311 2.91989 17.1171 2.81624C17.0031 2.71259 16.8839 2.61931 16.7595 2.5364C16.6144 2.47421 16.4745 2.42757 16.3397 2.39647C16.205 2.36538 16.0547 2.34983 15.8889 2.34983C15.7438 2.34983 15.5986 2.36538 15.4535 2.39647C15.3084 2.42757 15.1737 2.47421 15.0493 2.5364C14.925 2.61931 14.8058 2.71778 14.6917 2.83179C14.5777 2.9458 14.4793 3.06499 14.3964 3.18937L13.93 3.87343L12.0021 2.94062C11.8363 2.8577 11.6601 2.80069 11.4735 2.7696C11.287 2.73851 11.1004 2.73332 10.9139 2.75405C10.7273 2.79551 10.5511 2.8577 10.3853 2.94062C10.2194 3.02353 10.064 3.13754 9.91886 3.28265C9.79448 3.40702 9.68565 3.55213 9.59237 3.71796C9.49909 3.88379 9.44209 4.05999 9.42136 4.24655C9.3799 4.43312 9.37472 4.61968 9.40581 4.80624C9.4369 4.9928 9.49391 5.17937 9.57683 5.36593L11.1004 8.41312C11.1626 8.51676 11.2455 8.60486 11.3492 8.67741C11.4528 8.74996 11.5565 8.7966 11.6601 8.81733C11.7845 8.85879 11.9089 8.87434 12.0332 8.86397C12.1576 8.85361 12.2716 8.81733 12.3753 8.75515C12.4996 8.71369 12.6033 8.64632 12.6862 8.55304C12.7691 8.45976 12.8313 8.35093 12.8728 8.22655C12.9142 8.12291 12.935 8.0089 12.935 7.88452C12.935 7.76015 12.9142 7.63577 12.8728 7.5114L11.5668 4.89952L13.2148 5.70796C13.4014 5.8116 13.6086 5.87897 13.8367 5.91007C14.0647 5.94116 14.2927 5.91525 14.5207 5.83233C14.7073 5.79088 14.8835 5.71314 15.0493 5.59913C15.2152 5.48512 15.3603 5.3452 15.4846 5.17937L15.8889 4.5264L16.3242 5.17937C16.4278 5.3452 16.5574 5.49548 16.7128 5.63022C16.8683 5.76496 17.0497 5.86343 17.257 5.92562C17.4643 5.9878 17.6819 6.00853 17.91 5.9878C18.138 5.96707 18.3556 5.90489 18.5629 5.80124L20.1798 4.9928L18.8739 7.66687C18.8117 7.79124 18.7806 7.91562 18.7806 8.03999C18.7806 8.16437 18.8013 8.28874 18.8428 8.41312C18.8842 8.53749 18.9464 8.6515 19.0293 8.75515C19.1122 8.85879 19.2055 8.93134 19.3092 8.9728ZM10.1987 12.5175H21.6412C21.7656 12.5175 21.89 12.4916 22.0143 12.4398C22.1387 12.3879 22.2423 12.3206 22.3253 12.2376C22.4082 12.134 22.4756 12.0252 22.5274 11.9112C22.5792 11.7972 22.6051 11.6676 22.6051 11.5225C22.6051 11.3981 22.5792 11.2789 22.5274 11.1649C22.4756 11.0509 22.4082 10.9421 22.3253 10.8384C22.2423 10.7555 22.1387 10.6881 22.0143 10.6363C21.89 10.5845 21.7656 10.5586 21.6412 10.5586H10.1987C10.0536 10.5586 9.92404 10.5845 9.81003 10.6363C9.69602 10.6881 9.58719 10.7555 9.48354 10.8384C9.40063 10.9421 9.33326 11.0509 9.28144 11.1649C9.22961 11.2789 9.2037 11.3981 9.2037 11.5225C9.2037 11.6676 9.22961 11.7972 9.28144 11.9112C9.33326 12.0252 9.40063 12.134 9.48354 12.2376C9.58719 12.3206 9.69602 12.3879 9.81003 12.4398C9.92404 12.4916 10.0536 12.5175 10.1987 12.5175ZM19.0604 28.8728H12.7484C12.0643 28.8728 11.3854 28.7795 10.7117 28.593C10.0381 28.4064 9.41099 28.1266 8.83058 27.7534C8.22943 27.3803 7.69565 26.945 7.22925 26.4475C6.76284 25.95 6.37417 25.4007 6.06323 24.7995C5.75229 24.1569 5.53464 23.4936 5.41026 22.8095C5.28589 22.1255 5.25479 21.4414 5.31698 20.7573C5.3999 20.0525 5.57091 19.3788 5.83003 18.7362C6.08914 18.0936 6.42599 17.4925 6.84058 16.9328L9.88776 13.4192C9.92922 13.357 9.97586 13.3052 10.0277 13.2637C10.0795 13.2223 10.1365 13.1912 10.1987 13.1705C10.2609 13.1497 10.3231 13.129 10.3853 13.1083C10.4475 13.0875 10.5096 13.0772 10.5718 13.0772C10.634 13.0772 10.6962 13.0772 10.7584 13.0772C10.8206 13.0772 10.8828 13.0875 10.945 13.1083C11.0071 13.129 11.0693 13.1601 11.1315 13.2016C11.1937 13.243 11.2455 13.2845 11.287 13.3259C11.3284 13.3674 11.3699 13.414 11.4114 13.4658C11.4528 13.5177 11.4839 13.5747 11.5046 13.6369C11.5461 13.6783 11.572 13.7301 11.5824 13.7923C11.5927 13.8545 11.6083 13.9271 11.629 14.01C11.629 14.0722 11.6238 14.1344 11.6135 14.1966C11.6031 14.2587 11.5876 14.3209 11.5668 14.3831C11.5461 14.4453 11.5202 14.5023 11.4891 14.5541C11.458 14.606 11.4217 14.663 11.3803 14.7251L8.36417 18.1144C8.13615 18.4253 7.93922 18.7518 7.77339 19.0938C7.60756 19.4358 7.48318 19.7934 7.40026 20.1666C7.31735 20.5397 7.27071 20.918 7.26034 21.3015C7.24998 21.685 7.27589 22.0633 7.33808 22.4364C7.42099 22.8095 7.535 23.1723 7.68011 23.5247C7.82521 23.8771 8.00141 24.2087 8.2087 24.5197C8.43672 24.8306 8.68547 25.1208 8.95495 25.3903C9.22443 25.6598 9.525 25.8982 9.85667 26.1055C10.292 26.3749 10.7532 26.577 11.2403 26.7118C11.7275 26.8465 12.2302 26.9139 12.7484 26.9139H19.0604C19.5579 26.9139 20.0554 26.8465 20.5529 26.7118C21.0504 26.577 21.5168 26.3749 21.9521 26.1055C22.3875 25.836 22.7761 25.5095 23.1182 25.126C23.4602 24.7425 23.7452 24.3228 23.9732 23.8667C24.2013 23.4107 24.3619 22.9287 24.4552 22.4208C24.5485 21.913 24.564 21.3999 24.5018 20.8817C24.4604 20.3842 24.3464 19.8971 24.1598 19.4203C23.9732 18.9435 23.7141 18.4979 23.3825 18.0833L20.4285 14.6319C20.3871 14.5904 20.3508 14.5386 20.3197 14.4764C20.2886 14.4142 20.2627 14.352 20.242 14.2898C20.2213 14.2276 20.2057 14.1655 20.1953 14.1033C20.185 14.0411 20.1798 13.9789 20.1798 13.9167C20.1798 13.8545 20.1902 13.7923 20.2109 13.7301C20.2316 13.668 20.2523 13.6058 20.2731 13.5436C20.3145 13.4814 20.356 13.4244 20.3975 13.3726C20.4389 13.3207 20.4804 13.2741 20.5218 13.2326C20.5633 13.1912 20.6151 13.1549 20.6773 13.1238C20.7395 13.0927 20.8017 13.0668 20.8639 13.0461C20.926 13.0254 20.9882 13.0098 21.0504 12.9994C21.1126 12.9891 21.1748 12.9839 21.237 12.9839C21.2992 13.0046 21.3614 13.0202 21.4235 13.0305C21.4857 13.0409 21.5479 13.0668 21.6101 13.1083C21.6723 13.129 21.7293 13.1601 21.7811 13.2016C21.8329 13.243 21.8796 13.2845 21.921 13.3259L24.9682 16.8395C25.4035 17.3992 25.7508 18.0004 26.0099 18.643C26.269 19.2856 26.44 19.9593 26.5229 20.6641C26.5851 21.3481 26.554 22.0322 26.4296 22.7162C26.3053 23.4003 26.0876 24.0636 25.7767 24.7062C25.4865 25.3281 25.1082 25.893 24.6417 26.4008C24.1753 26.9087 23.6416 27.3492 23.0404 27.7223C22.4393 28.0955 21.8019 28.3805 21.1282 28.5774C20.4545 28.7743 19.7652 28.8728 19.0604 28.8728ZM15.1426 22.8095V21.1616H13.4635C13.3184 21.1616 13.1889 21.1356 13.0749 21.0838C12.9609 21.032 12.852 20.9543 12.7484 20.8506C12.6655 20.7677 12.5981 20.6641 12.5463 20.5397C12.4945 20.4153 12.4685 20.2909 12.4685 20.1666C12.4685 20.0422 12.4945 19.9178 12.5463 19.7934C12.5981 19.6691 12.6655 19.5654 12.7484 19.4825C12.852 19.3788 12.9609 19.3011 13.0749 19.2493C13.1889 19.1975 13.3184 19.1716 13.4635 19.1716H15.1426V17.3681C15.1426 17.2437 15.1685 17.1194 15.2203 16.995C15.2722 16.8706 15.3395 16.767 15.4225 16.6841C15.5261 16.6011 15.6401 16.5338 15.7645 16.4819C15.8889 16.4301 16.0132 16.4042 16.1376 16.4042C16.262 16.4042 16.3864 16.4301 16.5107 16.4819C16.6351 16.5338 16.7388 16.6011 16.8217 16.6841C16.9253 16.767 16.9979 16.8706 17.0393 16.995C17.0808 17.1194 17.1015 17.2437 17.1015 17.3681V19.1716H18.8739C19.019 19.1716 19.1485 19.1975 19.2625 19.2493C19.3765 19.3011 19.4854 19.3788 19.589 19.4825C19.6719 19.5654 19.7393 19.6691 19.7911 19.7934C19.8429 19.9178 19.8689 20.0422 19.8689 20.1666C19.8689 20.2909 19.8429 20.4153 19.7911 20.5397C19.7393 20.6641 19.6719 20.7677 19.589 20.8506C19.4854 20.9543 19.3765 21.032 19.2625 21.0838C19.1485 21.1356 19.019 21.1616 18.8739 21.1616H17.1015V22.8095C17.1015 22.9339 17.0808 23.0583 17.0393 23.1826C16.9979 23.307 16.9253 23.4107 16.8217 23.4936C16.7388 23.5972 16.6351 23.675 16.5107 23.7268C16.3864 23.7786 16.262 23.8045 16.1376 23.8045C16.0132 23.8045 15.8889 23.7786 15.7645 23.7268C15.6401 23.675 15.5261 23.5972 15.4225 23.4936C15.3395 23.4107 15.2722 23.307 15.2203 23.1826C15.1685 23.0583 15.1426 22.9339 15.1426 22.8095Z" fill="#D5B85D"/>
</g>
</g>
</g>
</g>
</svg>
