<svg width="48" height="48" viewBox="0 0 48 48" fill="none" xmlns="http://www.w3.org/2000/svg">
<g id="icon-magic">
<rect width="48" height="48" rx="12" fill="#00B9FF"/>
<g id="Container">
<g id="Container_2">
<g id="Icon" clip-path="url(#clip0_204_20)">
<path id="Vector" d="M35.3845 20.6596C35.3224 20.5976 35.2526 20.5394 35.175 20.485C35.0974 20.4307 35.012 20.3803 34.9189 20.3337C34.8258 20.3027 34.7326 20.2755 34.6395 20.2522C34.5464 20.2289 34.4455 20.2173 34.3368 20.2173L27.8647 20.2406C27.8336 20.0388 27.7832 19.8409 27.7133 19.6469C27.6435 19.4529 27.5542 19.2705 27.4456 19.0998C27.3369 18.9136 27.2128 18.7467 27.0731 18.5993C26.9334 18.4518 26.7704 18.3238 26.5842 18.2151C26.1806 17.9513 25.7499 17.7495 25.2921 17.6098C24.8342 17.4701 24.3569 17.4003 23.8603 17.4003H23.7904C23.6973 17.4003 23.6119 17.3886 23.5343 17.3654C23.4567 17.3421 23.3869 17.3071 23.3248 17.2606C23.2627 17.214 23.2045 17.1597 23.1502 17.0976C23.0959 17.0355 23.0532 16.9657 23.0222 16.8881C22.9911 16.8105 22.9717 16.7329 22.964 16.6553C22.9562 16.5777 22.9601 16.5001 22.9756 16.4225C22.9911 16.3449 23.0183 16.2711 23.0571 16.2013C23.0959 16.1314 23.1463 16.0655 23.2084 16.0034C23.255 15.9413 23.3132 15.8948 23.383 15.8637C23.4529 15.8327 23.5343 15.8094 23.6275 15.7939C23.7051 15.7783 23.7827 15.7745 23.8603 15.7822C23.9379 15.79 24.0155 15.8094 24.0931 15.8404C24.1552 15.856 24.2173 15.8909 24.2793 15.9452C24.3414 15.9995 24.3958 16.0577 24.4423 16.1198C24.4889 16.1974 24.5238 16.275 24.5471 16.3526C24.5704 16.4302 24.582 16.5078 24.582 16.5854C24.582 16.663 24.5975 16.7368 24.6286 16.8066C24.6596 16.8764 24.6984 16.9346 24.745 16.9812C24.8071 17.0433 24.873 17.086 24.9429 17.1093C25.0127 17.1325 25.0864 17.1442 25.164 17.1442C25.2416 17.1442 25.3154 17.1325 25.3852 17.1093C25.455 17.086 25.5133 17.0433 25.5598 16.9812C25.6219 16.9346 25.6685 16.8764 25.6995 16.8066C25.7305 16.7368 25.7461 16.663 25.7461 16.5854C25.7461 16.3216 25.6956 16.0694 25.5947 15.8288C25.4939 15.5882 25.3503 15.3748 25.164 15.1886C24.9778 15.0023 24.7644 14.8626 24.5238 14.7695C24.2832 14.6764 24.0388 14.6298 23.7904 14.6298C23.5266 14.6298 23.2744 14.6764 23.0338 14.7695C22.7932 14.8626 22.5798 15.0023 22.3936 15.1886C22.2073 15.3748 22.0637 15.5882 21.9629 15.8288C21.862 16.0694 21.8115 16.3216 21.8115 16.5854C21.8115 16.7717 21.8426 16.9618 21.9047 17.1558C21.9667 17.3498 22.0521 17.5244 22.1608 17.6796C21.9279 17.7883 21.7029 17.9086 21.4856 18.0405C21.2683 18.1724 21.0665 18.3315 20.8803 18.5178C20.8492 18.5333 20.826 18.5566 20.8104 18.5876C20.7949 18.6187 20.7794 18.6497 20.7639 18.6807C20.7484 18.7273 20.7328 18.7661 20.7173 18.7971C20.7018 18.8282 20.694 18.867 20.694 18.9136C20.694 18.9446 20.6979 18.9795 20.7057 19.0183C20.7134 19.0571 20.7251 19.092 20.7406 19.1231C20.7561 19.1696 20.7716 19.2085 20.7872 19.2395C20.8027 19.2705 20.826 19.3016 20.857 19.3326C20.8725 19.3481 20.8958 19.3675 20.9268 19.3908C20.9579 19.4141 20.9967 19.4335 21.0433 19.449C21.0743 19.4645 21.1092 19.4801 21.148 19.4956C21.1868 19.5111 21.2217 19.5189 21.2528 19.5189C21.2838 19.5189 21.3187 19.515 21.3575 19.5072C21.3964 19.4995 21.4313 19.4878 21.4623 19.4723C21.5089 19.4568 21.5477 19.4413 21.5787 19.4257C21.6098 19.4102 21.6408 19.3869 21.6718 19.3559C21.8115 19.2162 21.9629 19.0959 22.1258 18.995C22.2888 18.8942 22.4634 18.8049 22.6497 18.7273C22.8204 18.6652 23.0028 18.6187 23.1968 18.5876C23.3908 18.5566 23.5887 18.5411 23.7904 18.5411C24.5354 18.5411 25.1873 18.7079 25.7461 19.0416C26.3048 19.3753 26.623 19.7827 26.7006 20.2639H20.6009C20.3991 20.2483 20.2012 20.2561 20.0072 20.2871C19.8132 20.3182 19.6231 20.3725 19.4368 20.4501C19.2661 20.5277 19.0993 20.6208 18.9363 20.7295C18.7733 20.8381 18.622 20.9623 18.4823 21.102C18.4358 21.1796 18.3853 21.2533 18.331 21.3232C18.2767 21.393 18.2262 21.459 18.1797 21.5211C18.04 21.3348 17.877 21.168 17.6908 21.0205C17.5045 20.8731 17.3027 20.745 17.0854 20.6364C16.8681 20.5277 16.6431 20.4424 16.4103 20.3803C16.1775 20.3182 15.9447 20.2794 15.7118 20.2639C15.4635 20.2483 15.2229 20.26 14.9901 20.2988C14.7573 20.3376 14.5323 20.4036 14.315 20.4967C14.0822 20.5898 13.8687 20.7023 13.6747 20.8343C13.4807 20.9662 13.2984 21.1175 13.1276 21.2882C12.9724 21.4435 12.8327 21.6142 12.7086 21.8004C12.5844 21.9867 12.4835 22.1885 12.4059 22.4057C12.3283 22.6075 12.2701 22.817 12.2313 23.0343C12.1925 23.2516 12.1731 23.4767 12.1731 23.7095C12.1731 23.9268 12.1964 24.1441 12.2429 24.3614C12.2895 24.5787 12.3593 24.7882 12.4525 24.99C12.5456 25.1917 12.6581 25.3819 12.79 25.5604C12.922 25.7388 13.0655 25.9057 13.2208 26.0609C13.5467 26.3713 13.9153 26.608 14.3266 26.771C14.7379 26.9339 15.1609 27.0154 15.5954 27.0154H17.8072C17.8382 27.0154 17.8692 27.0193 17.9003 27.0271C17.9313 27.0348 17.9624 27.0542 17.9934 27.0853C18.0089 27.1008 18.0244 27.1241 18.04 27.1551C18.0555 27.1862 18.0633 27.2172 18.0633 27.2482C18.0788 27.2638 18.0827 27.2793 18.0749 27.2948C18.0671 27.3103 18.0633 27.3258 18.0633 27.3414C18.0477 27.3569 18.0361 27.3724 18.0283 27.3879C18.0206 27.4035 18.0167 27.419 18.0167 27.4345C18.0012 27.4345 17.9856 27.4423 17.9701 27.4578C17.9546 27.4733 17.9391 27.4811 17.9236 27.4811C17.908 27.4966 17.8925 27.5043 17.877 27.5043C17.8615 27.5043 17.846 27.5043 17.8304 27.5043C17.7839 27.5043 17.7412 27.5043 17.7024 27.5043C17.6636 27.5043 17.6287 27.5121 17.5976 27.5276C17.5511 27.5431 17.5123 27.5625 17.4812 27.5858C17.4502 27.6091 17.4191 27.6285 17.3881 27.644C17.3571 27.6751 17.3299 27.7061 17.3066 27.7371C17.2833 27.7682 17.2639 27.807 17.2484 27.8536C17.2329 27.8846 17.2212 27.9195 17.2135 27.9583C17.2057 27.9971 17.2018 28.0398 17.2018 28.0864C17.2018 28.1174 17.2057 28.1523 17.2135 28.1911C17.2212 28.2299 17.2329 28.2726 17.2484 28.3192C17.2639 28.3502 17.2833 28.3813 17.3066 28.4123C17.3299 28.4433 17.3571 28.4744 17.3881 28.5054C17.4191 28.5365 17.4502 28.5598 17.4812 28.5753C17.5123 28.5908 17.5511 28.6063 17.5976 28.6218C17.6287 28.6374 17.6636 28.649 17.7024 28.6568C17.7412 28.6645 17.7839 28.6606 17.8304 28.6451C17.9236 28.6451 18.0167 28.6374 18.1098 28.6218C18.2029 28.6063 18.2961 28.583 18.3892 28.552C18.4668 28.5054 18.5483 28.455 18.6336 28.4007C18.719 28.3463 18.7927 28.2881 18.8548 28.2261C18.9169 28.1485 18.9712 28.0708 19.0178 27.9932C19.0643 27.9156 19.1109 27.8303 19.1575 27.7371C19.1885 27.644 19.2118 27.5509 19.2273 27.4578C19.2428 27.3646 19.2428 27.2715 19.2273 27.1784C19.2118 26.9921 19.1652 26.8214 19.0876 26.6662C19.01 26.511 18.9014 26.3713 18.7617 26.2471C18.6375 26.123 18.4901 26.0299 18.3193 25.9678C18.1486 25.9057 17.9779 25.8746 17.8072 25.8746H15.5954C15.3005 25.8746 15.0173 25.8203 14.7457 25.7117C14.4741 25.603 14.2374 25.4478 14.0356 25.2461C13.8183 25.0443 13.6476 24.8115 13.5234 24.5476C13.3992 24.2838 13.3294 24.0044 13.3139 23.7095C13.3139 23.5543 13.3255 23.4068 13.3488 23.2671C13.3721 23.1275 13.4148 22.9878 13.4768 22.8481C13.5234 22.7084 13.5894 22.5765 13.6747 22.4523C13.7601 22.3281 13.8493 22.2117 13.9425 22.1031C14.0511 21.9944 14.1675 21.8974 14.2917 21.8121C14.4159 21.7267 14.5478 21.653 14.6875 21.5909C14.8116 21.5443 14.9474 21.5055 15.0949 21.4745C15.2423 21.4435 15.3937 21.4279 15.5489 21.4279C15.8127 21.4279 16.0727 21.4745 16.3288 21.5676C16.5849 21.6607 16.8138 21.8004 17.0156 21.9867C17.2329 22.1729 17.4036 22.3863 17.5278 22.6269C17.6519 22.8675 17.7296 23.1197 17.7606 23.3836C17.7606 23.4456 17.7606 23.5038 17.7606 23.5582C17.7606 23.6125 17.7606 23.6629 17.7606 23.7095C17.7606 23.7871 17.78 23.8569 17.8188 23.919C17.8576 23.9811 17.908 24.0354 17.9701 24.082C18.0167 24.1286 18.0749 24.1635 18.1447 24.1868C18.2146 24.21 18.2883 24.2217 18.3659 24.2217C18.4435 24.2217 18.5134 24.2062 18.5754 24.1751C18.6375 24.1441 18.6918 24.0975 18.7384 24.0354C18.8005 23.9889 18.8432 23.9307 18.8665 23.8608C18.8897 23.791 18.9014 23.7173 18.9014 23.6396C18.9014 23.5931 18.9014 23.5426 18.9014 23.4883C18.9014 23.434 18.9014 23.3758 18.9014 23.3137C18.8859 23.0654 18.9169 22.817 18.9945 22.5687C19.0721 22.3204 19.1885 22.0953 19.3437 21.8936C19.4213 21.816 19.5067 21.7422 19.5998 21.6724C19.6929 21.6025 19.7938 21.5521 19.9025 21.5211C20.0111 21.4745 20.1236 21.4435 20.24 21.4279C20.3565 21.4124 20.469 21.4046 20.5776 21.4046C21.1053 21.4046 21.9823 21.4046 23.2084 21.4046C24.4346 21.4046 25.7499 21.4008 27.1546 21.393C28.5592 21.3852 29.9212 21.3814 31.2404 21.3814C32.5752 21.3658 33.6074 21.3581 34.3368 21.3581C34.3524 21.3581 34.3718 21.362 34.395 21.3697C34.4183 21.3775 34.4455 21.3814 34.4765 21.3814C34.4921 21.3969 34.5076 21.4124 34.5231 21.4279C34.5386 21.4435 34.5541 21.459 34.5697 21.4745C34.5852 21.49 34.6007 21.5055 34.6162 21.5211C34.6317 21.5366 34.6473 21.5521 34.6628 21.5676C34.6628 21.5987 34.6667 21.6219 34.6744 21.6375C34.6822 21.653 34.6861 21.6763 34.6861 21.7073V22.4989C34.6861 22.592 34.6705 22.6812 34.6395 22.7666C34.6085 22.852 34.5619 22.9257 34.4998 22.9878C34.4377 23.0654 34.3679 23.1236 34.2903 23.1624C34.2127 23.2012 34.1351 23.2283 34.0575 23.2439C33.3746 23.3525 32.7149 23.5426 32.0786 23.8143C31.4422 24.0859 30.8524 24.4312 30.3092 24.8503C29.4711 25.5642 28.5941 26.2277 27.6784 26.8408C26.7627 27.4539 25.7305 27.7682 24.582 27.7837C24.5354 27.7837 24.485 27.7837 24.4307 27.7837C24.3764 27.7837 24.3181 27.7837 24.2561 27.7837C23.1386 27.7837 22.184 28.1213 21.3925 28.7964C20.6009 29.4716 20.2051 30.2826 20.2051 31.2293C20.2051 31.3069 20.2206 31.3807 20.2517 31.4505C20.2827 31.5204 20.3215 31.5786 20.3681 31.6251C20.4302 31.6872 20.4961 31.7299 20.566 31.7532C20.6358 31.7764 20.7096 31.7881 20.7872 31.7881C20.8648 31.7881 20.9385 31.7764 21.0083 31.7532C21.0782 31.7299 21.1364 31.6872 21.1829 31.6251C21.245 31.5786 21.2916 31.5204 21.3226 31.4505C21.3537 31.3807 21.3692 31.3069 21.3692 31.2293C21.3692 30.593 21.6524 30.0536 22.219 29.6113C22.7855 29.1689 23.4645 28.9478 24.2561 28.9478H24.419C24.4346 28.9478 24.4501 28.9478 24.4656 28.9478C24.4811 28.9478 24.4966 28.9478 24.5122 28.9478H24.5587C25.2882 28.9943 25.9052 29.2349 26.4096 29.6695C26.914 30.1041 27.1662 30.6163 27.1662 31.2061C27.1662 31.2837 27.1856 31.3535 27.2244 31.4156C27.2632 31.4777 27.3059 31.532 27.3525 31.5786C27.399 31.6251 27.4572 31.6639 27.5271 31.695C27.5969 31.726 27.6706 31.7415 27.7483 31.7415C27.8103 31.7415 27.8763 31.726 27.9461 31.695C28.016 31.6639 28.0742 31.6251 28.1208 31.5786C28.1828 31.532 28.2294 31.4777 28.2604 31.4156C28.2915 31.3535 28.307 31.2837 28.307 31.2061C28.307 30.9422 28.2721 30.6822 28.2022 30.4261C28.1324 30.17 28.0276 29.9256 27.8879 29.6928C27.7638 29.4444 27.6086 29.2233 27.4223 29.0293C27.2361 28.8352 27.0265 28.6684 26.7937 28.5287C27.6163 28.2338 28.373 27.8264 29.0636 27.3064C29.7543 26.7865 30.4101 26.2627 31.0309 25.735C31.4965 25.378 32.001 25.087 32.5442 24.8619C33.0874 24.6369 33.6539 24.4778 34.2437 24.3846C34.461 24.3536 34.6667 24.2799 34.8607 24.1635C35.0547 24.0471 35.2215 23.9035 35.3612 23.7328C35.5164 23.562 35.629 23.3719 35.6988 23.1624C35.7686 22.9529 35.8113 22.7394 35.8268 22.5221V21.7073C35.8268 21.5211 35.788 21.3348 35.7104 21.1486C35.6328 20.9623 35.5242 20.7993 35.3845 20.6596Z" fill="white"/>
</g>
</g>
</g>
</g>
<defs>
<clipPath id="clip0_204_20">
<rect width="23.84" height="25" fill="white" transform="matrix(1 0 0 -1 12.0801 36)"/>
</clipPath>
</defs>
</svg>
