<svg width="32" height="32" viewBox="0 0 32 32" fill="none" xmlns="http://www.w3.org/2000/svg">
<g id="icon-3">
<g id="Container">
<g id="Container_2">
<g id="Icon">
<path id="Vector" d="M16.8529 2.34983C17.7028 2.34983 18.5527 2.39129 19.4026 2.47421C20.2318 2.55713 21.0609 2.68668 21.8901 2.86288C22.7193 3.03908 23.5381 3.25155 24.3465 3.5003C25.1342 3.76978 25.9219 4.07035 26.7096 4.40202C26.9376 4.50567 27.1398 4.64041 27.316 4.80624C27.4922 4.97207 27.6424 5.15864 27.7668 5.36593C27.8912 5.57322 27.9897 5.79606 28.0622 6.03444C28.1348 6.27283 28.171 6.5164 28.171 6.76515V15.0983C28.1503 16.5079 27.9326 17.8863 27.5181 19.2337C27.1035 20.5811 26.492 21.8456 25.6835 23.0272C24.8958 24.188 23.9475 25.2037 22.8385 26.0744C21.7294 26.945 20.5116 27.6394 19.1849 28.1576L18.0967 28.593C17.5992 28.7795 17.0861 28.8728 16.5575 28.8728C16.0289 28.8728 15.5159 28.7795 15.0184 28.593L13.9301 28.1576C12.6242 27.6394 11.4167 26.9398 10.3077 26.0588C9.19867 25.1778 8.23994 24.1569 7.4315 22.9961C6.6438 21.8353 6.03747 20.5811 5.61252 19.2337C5.18757 17.8863 4.9751 16.5079 4.9751 15.0983V6.76515C4.9751 6.5164 5.01137 6.27283 5.08393 6.03444C5.15648 5.79606 5.26531 5.56285 5.41041 5.33483C5.55551 5.12754 5.72653 4.94616 5.92346 4.79069C6.12038 4.63522 6.33286 4.50567 6.56088 4.40202C7.32786 4.07035 8.11557 3.76978 8.924 3.5003C9.73244 3.25155 10.5512 3.03908 11.3804 2.86288C12.2096 2.68668 13.0387 2.55713 13.8679 2.47421C14.7178 2.39129 15.5677 2.34983 16.4176 2.34983H16.8529ZM6.99619 6.36093C6.95473 6.40239 6.92882 6.45421 6.91846 6.5164C6.90809 6.57858 6.90291 6.64077 6.90291 6.70296L6.9651 15.1294C6.98583 16.3524 7.17757 17.5443 7.54033 18.7051C7.90309 19.866 8.4265 20.9543 9.11057 21.97C9.79463 22.965 10.6134 23.8408 11.567 24.5974C12.5205 25.354 13.5673 25.9604 14.7074 26.4164L15.7957 26.8517C16.0652 26.9554 16.345 27.0072 16.6353 27.0072C16.9255 27.0072 17.2053 26.9554 17.4748 26.8517L18.5631 26.4164C19.7239 25.9604 20.7811 25.3488 21.7346 24.5819C22.6882 23.8149 23.507 22.9339 24.191 21.9389C24.8958 20.9232 25.4244 19.8297 25.7768 18.6585C26.1292 17.4873 26.3054 16.2798 26.3054 15.0361V6.73405C26.3054 6.65114 26.295 6.57858 26.2743 6.5164C26.2536 6.45421 26.2329 6.40239 26.2121 6.36093C26.1707 6.29874 26.124 6.24692 26.0722 6.20546C26.0204 6.164 25.9737 6.13291 25.9323 6.11218C24.4812 5.46957 22.9887 4.9928 21.4548 4.68187C19.9208 4.37093 18.3765 4.21546 16.8218 4.21546H16.3865C14.8111 4.21546 13.2564 4.37611 11.7224 4.69741C10.1885 5.01871 8.70635 5.4903 7.27604 6.11218C7.21385 6.13291 7.15684 6.164 7.10502 6.20546C7.0532 6.24692 7.01692 6.29874 6.99619 6.36093ZM13.8679 15.7512H12.9973C12.7693 15.7512 12.5464 15.7046 12.3288 15.6113C12.1111 15.518 11.9194 15.3885 11.7535 15.2226C11.5877 15.0568 11.4581 14.8651 11.3649 14.6474C11.2716 14.4298 11.2249 14.1966 11.2249 13.9478C11.2249 13.8234 11.2405 13.6939 11.2716 13.5591C11.3027 13.4244 11.3493 13.2948 11.4115 13.1705L13.8679 8.25765C13.9508 8.09181 14.0493 7.94671 14.1633 7.82233C14.2773 7.69796 14.3965 7.59431 14.5209 7.5114C14.666 7.42848 14.8163 7.36629 14.9717 7.32483C15.1272 7.28338 15.2879 7.26265 15.4537 7.26265H18.5631C18.7911 7.26265 19.0139 7.30929 19.2316 7.40257C19.4492 7.49585 19.6306 7.62541 19.7757 7.79124C19.9416 7.95707 20.0711 8.14882 20.1644 8.36647C20.2577 8.58413 20.3043 8.80697 20.3043 9.03499C20.3043 9.18009 20.2888 9.32002 20.2577 9.45476C20.2266 9.5895 20.1903 9.71905 20.1488 9.84343L18.9673 12.1755H19.6824C19.8068 12.1755 19.926 12.1858 20.04 12.2066C20.154 12.2273 20.2732 12.2584 20.3976 12.2998C20.5012 12.3413 20.6049 12.3983 20.7085 12.4708C20.8122 12.5434 20.9055 12.6211 20.9884 12.7041C21.0713 12.787 21.1438 12.8751 21.206 12.9683C21.2682 13.0616 21.32 13.1705 21.3615 13.2948C21.403 13.3985 21.4341 13.5073 21.4548 13.6213C21.4755 13.7353 21.4859 13.8545 21.4859 13.9789C21.4859 14.1862 21.4496 14.3935 21.3771 14.6008C21.3045 14.8081 21.1957 14.9946 21.0506 15.1605L15.7646 21.0061C15.7024 21.0683 15.6351 21.1305 15.5625 21.1926C15.49 21.2548 15.4122 21.3067 15.3293 21.3481C15.2464 21.3688 15.1635 21.3948 15.0806 21.4258C14.9976 21.4569 14.9147 21.4725 14.8318 21.4725H14.7074C14.6038 21.4725 14.5053 21.4621 14.4121 21.4414C14.3188 21.4207 14.2307 21.3896 14.1478 21.3481C14.0441 21.3067 13.956 21.2548 13.8835 21.1926C13.8109 21.1305 13.7435 21.0683 13.6813 21.0061C13.6192 20.9232 13.5622 20.8403 13.5103 20.7573C13.4585 20.6744 13.4222 20.5915 13.4015 20.5086C13.36 20.4049 13.3393 20.3065 13.3393 20.2132C13.3393 20.1199 13.3393 20.0214 13.3393 19.9178L13.8679 15.7512ZM16.4487 13.1705C16.4487 13.0875 16.4591 13.0098 16.4798 12.9373C16.5005 12.8647 16.5316 12.787 16.5731 12.7041L18.3454 9.15937H15.547L13.2149 13.8545H14.9562C15.0184 13.8545 15.0857 13.8597 15.1583 13.8701C15.2309 13.8804 15.2982 13.9063 15.3604 13.9478C15.4226 13.9685 15.4796 13.9996 15.5314 14.0411C15.5832 14.0825 15.6299 14.124 15.6713 14.1655C15.7128 14.2276 15.7491 14.2898 15.7802 14.352C15.8113 14.4142 15.8372 14.4764 15.8579 14.5386C15.8786 14.6008 15.8942 14.663 15.9046 14.7251C15.9149 14.7873 15.9201 14.8599 15.9201 14.9428L15.4537 18.4875L19.3715 14.1033H17.4126C17.3297 14.1033 17.2519 14.0929 17.1794 14.0722C17.1068 14.0514 17.0291 14.0204 16.9462 13.9789C16.884 13.9374 16.8218 13.8856 16.7596 13.8234C16.6974 13.7612 16.6456 13.6991 16.6042 13.6369C16.5627 13.5747 16.5316 13.5021 16.5109 13.4192C16.4901 13.3363 16.4694 13.2534 16.4487 13.1705Z" fill="#D5B85D"/>
</g>
</g>
</g>
</g>
</svg>
