<svg width="48" height="48" viewBox="0 0 48 48" fill="none" xmlns="http://www.w3.org/2000/svg">
<g id="icon-car">
<rect width="48" height="48" rx="12" fill="#00B9FF"/>
<g id="Container">
<g id="Container_2">
<g id="Icon" clip-path="url(#clip0_204_25)">
<path id="Vector" d="M35.175 22.9411C35.0509 22.6928 34.8957 22.46 34.7094 22.2427C34.5232 22.0254 34.3214 21.8314 34.1041 21.6607C33.7626 21.3968 33.2039 21.0088 32.4278 20.4966C31.6518 19.9689 30.8602 19.4373 30.0532 18.9018C29.2461 18.3664 28.5244 17.8969 27.888 17.4933C27.2516 17.0743 26.9102 16.8492 26.8636 16.8182C26.1341 16.3836 25.3659 16.0576 24.5588 15.8404C23.7517 15.6231 22.9291 15.5144 22.091 15.5144H18.3893C17.3183 15.5144 16.422 15.7821 15.7003 16.3176C14.9785 16.8531 14.4082 17.6718 13.9891 18.7738C13.7097 19.5809 13.4497 20.3918 13.2092 21.2067C12.9686 22.0215 12.7552 22.848 12.5689 23.6861C12.4137 24.307 12.3633 24.8696 12.4176 25.374C12.4719 25.8785 12.6233 26.2859 12.8716 26.5963C12.9492 26.7049 13.0384 26.7981 13.1393 26.8757C13.2402 26.9533 13.345 27.0154 13.4536 27.0619C13.5623 27.124 13.6787 27.1667 13.8028 27.19C13.927 27.2132 14.0512 27.2249 14.1753 27.2249C14.2219 27.2249 14.2685 27.221 14.315 27.2132C14.3616 27.2055 14.4082 27.1861 14.4547 27.155C14.4858 27.1395 14.5207 27.1162 14.5595 27.0852C14.5983 27.0542 14.6332 27.0154 14.6643 26.9688C14.7419 26.8446 14.835 26.736 14.9436 26.6429C15.0523 26.5497 15.1687 26.4644 15.2928 26.3868C15.417 26.3247 15.5489 26.2742 15.6886 26.2354C15.8283 26.1966 15.9758 26.1772 16.131 26.1772C16.2551 26.1772 16.3754 26.1927 16.4918 26.2238C16.6082 26.2548 16.7208 26.2936 16.8294 26.3402C16.9381 26.3868 17.0428 26.445 17.1437 26.5148C17.2446 26.5846 17.3416 26.6661 17.4347 26.7593C17.5123 26.8524 17.5822 26.9494 17.6443 27.0503C17.7063 27.1512 17.7607 27.2559 17.8072 27.3646C17.8383 27.4887 17.8615 27.609 17.8771 27.7254C17.8926 27.8418 17.9003 27.9621 17.9003 28.0863C17.8848 28.2415 17.8577 28.3889 17.8189 28.5286C17.7801 28.6683 17.7219 28.8002 17.6443 28.9244C17.5666 29.0486 17.4735 29.1611 17.3649 29.262C17.2562 29.3629 17.1398 29.4444 17.0157 29.5064C16.8915 29.584 16.7596 29.6423 16.6199 29.6811C16.4802 29.7199 16.3405 29.747 16.2008 29.7625C16.0456 29.7625 15.8982 29.747 15.7585 29.716C15.6188 29.6849 15.4791 29.6384 15.3394 29.5763C15.2773 29.5452 15.2114 29.5297 15.1415 29.5297C15.0717 29.5297 14.9979 29.5452 14.9203 29.5763C14.8583 29.5918 14.8001 29.6267 14.7457 29.6811C14.6914 29.7354 14.6487 29.7936 14.6177 29.8557C14.5866 29.9177 14.5672 29.9837 14.5595 30.0536C14.5517 30.1234 14.5556 30.1971 14.5711 30.2747C14.6022 30.3523 14.641 30.4183 14.6875 30.4726C14.7341 30.5269 14.7884 30.5696 14.8505 30.6007C15.0523 30.7093 15.2618 30.7869 15.4791 30.8335C15.6964 30.88 15.9137 30.9033 16.131 30.9033H16.3172C16.5656 30.8878 16.8022 30.8412 17.0273 30.7636C17.2523 30.686 17.4658 30.5851 17.6675 30.461C17.8693 30.3368 18.0556 30.1894 18.2263 30.0186C18.397 29.8479 18.5445 29.6539 18.6686 29.4366C18.7773 29.2348 18.8665 29.0175 18.9364 28.7847C19.0062 28.5519 19.0411 28.3191 19.0411 28.0863C19.0566 27.838 19.0411 27.5974 18.9946 27.3646C18.948 27.1318 18.8704 26.9067 18.7618 26.6894C18.6531 26.4721 18.5212 26.2742 18.366 26.0957C18.2108 25.9173 18.0323 25.7504 17.8305 25.5952C17.6443 25.4555 17.4386 25.343 17.2135 25.2576C16.9885 25.1723 16.7596 25.114 16.5268 25.083C16.2784 25.052 16.0378 25.0481 15.805 25.0714C15.5722 25.0946 15.3394 25.1529 15.1066 25.246C14.8893 25.3236 14.6798 25.4283 14.478 25.5603C14.2762 25.6922 14.0977 25.8513 13.9425 26.0375C13.9115 26.022 13.8804 26.0026 13.8494 25.9793C13.8184 25.9561 13.7951 25.9289 13.7796 25.8979C13.6399 25.7271 13.5623 25.471 13.5468 25.1296C13.5312 24.7881 13.57 24.4001 13.6632 23.9655C13.8649 23.1584 14.0822 22.3552 14.315 21.5559C14.5478 20.7566 14.7962 19.9689 15.06 19.1929C15.1842 18.8048 15.3627 18.444 15.5955 18.1103C15.8283 17.7766 16.0999 17.4856 16.4103 17.2372C16.7052 17.0355 17.0195 16.888 17.3532 16.7949C17.6869 16.7018 18.0245 16.663 18.366 16.6785H22.0677C22.7972 16.6785 23.515 16.7755 24.2212 16.9695C24.9274 17.1635 25.5909 17.4468 26.2118 17.8193C26.2894 17.8658 26.6463 18.0909 27.2827 18.4944C27.919 18.9135 28.6369 19.383 29.4362 19.9029C30.2355 20.4229 31.0077 20.9389 31.7527 21.4511C32.5132 21.9633 33.0564 22.3436 33.3824 22.5919C33.5376 22.7161 33.7782 23.0071 34.1041 23.465C34.43 23.9228 34.5232 24.7027 34.3835 25.8047C34.3835 25.8202 34.3796 25.8435 34.3718 25.8746C34.3641 25.9056 34.3524 25.9367 34.3369 25.9677C34.3214 26.0453 34.2942 26.1268 34.2554 26.2121C34.2166 26.2975 34.1662 26.379 34.1041 26.4566C34.0575 26.5187 33.9993 26.5808 33.9295 26.6429C33.8596 26.7049 33.7859 26.7593 33.7083 26.8058C33.5686 26.8679 33.4251 26.9261 33.2776 26.9804C33.1302 27.0348 32.9866 27.0697 32.8469 27.0852C32.7693 26.8834 32.6762 26.6894 32.5675 26.5032C32.4589 26.3169 32.327 26.1384 32.1718 25.9677C32.001 25.797 31.807 25.6534 31.5897 25.537C31.3724 25.4206 31.1474 25.3313 30.9146 25.2693C30.6662 25.1917 30.4179 25.149 30.1696 25.1412C29.9212 25.1335 29.6807 25.1529 29.4478 25.1994C29.1995 25.246 28.9628 25.3236 28.7378 25.4322C28.5127 25.5409 28.3071 25.6728 28.1208 25.828C27.9346 25.9832 27.7638 26.1578 27.6086 26.3518C27.4534 26.5458 27.3293 26.7593 27.2361 26.9921C27.2206 27.0231 27.1973 27.0542 27.1663 27.0852C27.1352 27.1162 27.1042 27.1473 27.0732 27.1783C27.0266 27.1938 26.9839 27.2094 26.9451 27.2249C26.9063 27.2404 26.8636 27.2482 26.8171 27.2482H21.6253C21.5477 27.2482 21.4779 27.2637 21.4158 27.2947C21.3537 27.3258 21.2994 27.3723 21.2528 27.4344C21.1908 27.481 21.1481 27.5392 21.1248 27.609C21.1015 27.6789 21.0899 27.7526 21.0899 27.8302C21.0899 27.8923 21.1015 27.9582 21.1248 28.0281C21.1481 28.0979 21.1908 28.1561 21.2528 28.2027C21.2994 28.2648 21.3537 28.3113 21.4158 28.3424C21.4779 28.3734 21.5477 28.3889 21.6253 28.3889H26.8636C27.0188 28.3889 27.1702 28.3695 27.3176 28.3307C27.4651 28.2919 27.6086 28.226 27.7483 28.1329C27.8725 28.0552 27.985 27.9544 28.0859 27.8302C28.1868 27.706 28.2683 27.5741 28.3303 27.4344C28.3614 27.3723 28.3963 27.3102 28.4351 27.2482C28.4739 27.1861 28.5166 27.124 28.5632 27.0619C28.5787 27.0464 28.5903 27.0348 28.5981 27.027C28.6058 27.0192 28.6097 27.0076 28.6097 26.9921C28.6873 26.8679 28.7804 26.7593 28.8891 26.6661C28.9977 26.573 29.1219 26.4876 29.2616 26.41C29.3858 26.348 29.5177 26.2975 29.6574 26.2587C29.7971 26.2199 29.9368 26.2005 30.0764 26.2005C30.2006 26.2005 30.3209 26.216 30.4373 26.2471C30.5537 26.2781 30.674 26.3169 30.7982 26.3635C30.9068 26.41 31.0116 26.4682 31.1125 26.5381C31.2133 26.6079 31.3026 26.6894 31.3802 26.7825C31.4578 26.8601 31.5276 26.9533 31.5897 27.0619C31.6518 27.1706 31.7061 27.2792 31.7527 27.3879C31.7993 27.4965 31.8303 27.6129 31.8458 27.7371C31.8613 27.8612 31.8613 27.9854 31.8458 28.1096C31.8458 28.2493 31.8225 28.3889 31.776 28.5286C31.7294 28.6683 31.6673 28.8002 31.5897 28.9244C31.5121 29.0486 31.4229 29.1611 31.322 29.262C31.2211 29.3629 31.1086 29.4521 30.9844 29.5297C30.8447 29.5918 30.705 29.6461 30.5653 29.6927C30.4257 29.7393 30.286 29.7625 30.1463 29.7625C30.0066 29.7625 29.863 29.747 29.7156 29.716C29.5681 29.6849 29.4323 29.6384 29.3082 29.5763C29.2771 29.5608 29.2422 29.5452 29.2034 29.5297C29.1646 29.5142 29.1219 29.5064 29.0753 29.5064C29.0443 29.5064 29.0094 29.5064 28.9706 29.5064C28.9318 29.5064 28.8891 29.5142 28.8425 29.5297C28.8115 29.5297 28.7766 29.5414 28.7378 29.5646C28.699 29.5879 28.664 29.6073 28.633 29.6229C28.602 29.6539 28.5748 29.6849 28.5515 29.716C28.5282 29.747 28.5088 29.7781 28.4933 29.8091C28.4778 29.8401 28.4623 29.8751 28.4468 29.9139C28.4312 29.9527 28.4235 29.9954 28.4235 30.0419C28.4235 30.073 28.4273 30.1079 28.4351 30.1467C28.4429 30.1855 28.4545 30.2282 28.47 30.2747C28.47 30.3058 28.4817 30.3368 28.505 30.3679C28.5282 30.3989 28.5554 30.4299 28.5864 30.461C28.602 30.492 28.6291 30.5192 28.6679 30.5425C28.7067 30.5657 28.7416 30.5851 28.7727 30.6007C28.9745 30.6938 29.184 30.7675 29.4013 30.8218C29.6186 30.8762 29.8359 30.9033 30.0532 30.9033H30.2394C30.5964 30.8723 30.934 30.7869 31.2521 30.6472C31.5703 30.5075 31.8536 30.3135 32.1019 30.0652C32.3502 29.8169 32.5481 29.5375 32.6956 29.2271C32.843 28.9167 32.9323 28.583 32.9633 28.226C33.1961 28.1949 33.4289 28.1367 33.6618 28.0514C33.8946 27.966 34.1119 27.869 34.3136 27.7604C34.593 27.6051 34.8297 27.4034 35.0237 27.155C35.2177 26.9067 35.3613 26.6273 35.4544 26.3169C35.4699 26.2548 35.4854 26.1927 35.501 26.1307C35.5165 26.0686 35.5243 26.0065 35.5243 25.9444C35.6174 25.4322 35.6329 24.9239 35.5708 24.4195C35.5087 23.9151 35.3768 23.4223 35.175 22.9411Z" fill="white"/>
</g>
</g>
</g>
</g>
<defs>
<clipPath id="clip0_204_25">
<rect width="23.84" height="25" fill="white" transform="matrix(1 0 0 -1 12.0801 36)"/>
</clipPath>
</defs>
</svg>
