<svg width="32" height="32" viewBox="0 0 32 32" fill="none" xmlns="http://www.w3.org/2000/svg">
<g id="icon-1">
<g id="Icon">
<path id="Vector" d="M26.2432 8.87953H27.487C27.7565 8.87953 28.0156 8.93135 28.2643 9.035C28.5131 9.13864 28.7307 9.28375 28.9173 9.47031C29.1039 9.6776 29.249 9.90562 29.3526 10.1544C29.4563 10.4031 29.5081 10.6622 29.5081 10.9317V25.0794C29.5081 25.3489 29.4563 25.6131 29.3526 25.8723C29.249 26.1314 29.1039 26.3542 28.9173 26.5408C28.7307 26.7273 28.5131 26.8724 28.2643 26.9761C28.0156 27.0797 27.7565 27.1316 27.487 27.1316H26.2432V27.8156C26.2432 27.94 26.2121 28.054 26.15 28.1577C26.0878 28.2613 26.0152 28.3546 25.9323 28.4375C25.8494 28.5204 25.7509 28.5826 25.6369 28.6241C25.5229 28.6655 25.4037 28.6862 25.2793 28.6862C25.1757 28.6862 25.0669 28.6655 24.9528 28.6241C24.8388 28.5826 24.7404 28.5204 24.6575 28.4375C24.5745 28.3546 24.502 28.2613 24.4398 28.1577C24.3776 28.054 24.3465 27.94 24.3465 27.8156V27.1316H19.7135V27.8156C19.6928 27.94 19.6565 28.054 19.6047 28.1577C19.5529 28.2613 19.4855 28.3546 19.4026 28.4375C19.3197 28.5204 19.2212 28.5826 19.1072 28.6241C18.9932 28.6655 18.874 28.6862 18.7496 28.6862C18.6253 28.6862 18.5113 28.6655 18.4076 28.6241C18.304 28.5826 18.2107 28.5204 18.1278 28.4375C18.0241 28.3546 17.9464 28.2613 17.8946 28.1577C17.8427 28.054 17.8168 27.94 17.8168 27.8156V27.1316H16.5731C16.3036 27.1316 16.0445 27.0797 15.7957 26.9761C15.547 26.8724 15.3293 26.7273 15.1428 26.5408C14.9562 26.3542 14.8059 26.1366 14.6919 25.8878C14.5779 25.6391 14.5209 25.3696 14.5209 25.0794V10.9317C14.5209 10.6622 14.5727 10.3979 14.6764 10.1388C14.78 9.87971 14.9355 9.65687 15.1428 9.47031C15.3293 9.28375 15.547 9.13864 15.7957 9.035C16.0445 8.93135 16.3036 8.87953 16.5731 8.87953H17.8168V4.93062C17.8168 4.57823 17.879 4.24656 18.0034 3.93562C18.1278 3.62469 18.3143 3.34484 18.5631 3.09609C18.8118 2.84734 19.0917 2.66078 19.4026 2.5364C19.7135 2.41203 20.0452 2.34984 20.3976 2.34984H23.6625C24.0148 2.34984 24.3465 2.41203 24.6575 2.5364C24.9684 2.66078 25.2482 2.84734 25.497 3.09609C25.7457 3.34484 25.9323 3.62469 26.0567 3.93562C26.181 4.24656 26.2432 4.57823 26.2432 4.93062V8.87953ZM19.7135 4.93062V8.87953H24.3465V4.93062C24.3465 4.84771 24.331 4.76479 24.2999 4.68187C24.2688 4.59896 24.2118 4.51604 24.1289 4.43312C24.0667 4.37094 23.9941 4.3243 23.9112 4.2932C23.8283 4.26211 23.7454 4.24656 23.6625 4.24656H20.3976C20.3147 4.24656 20.2266 4.26211 20.1333 4.2932C20.04 4.3243 19.9623 4.37094 19.9001 4.43312C19.8379 4.49531 19.7913 4.57305 19.7602 4.66633C19.7291 4.75961 19.7135 4.84771 19.7135 4.93062ZM27.6114 25.0794V10.9317C27.6114 10.911 27.6062 10.8903 27.5958 10.8695C27.5854 10.8488 27.5803 10.8384 27.5803 10.8384C27.5595 10.8177 27.544 10.8022 27.5336 10.7918C27.5233 10.7814 27.5077 10.7762 27.487 10.7762H16.5731C16.5523 10.7762 16.5368 10.7814 16.5264 10.7918C16.5161 10.8022 16.5005 10.8177 16.4798 10.8384C16.4591 10.8384 16.4487 10.8488 16.4487 10.8695C16.4487 10.8903 16.4487 10.911 16.4487 10.9317V25.0794C16.4487 25.1001 16.4539 25.1208 16.4642 25.1416C16.4746 25.1623 16.4798 25.1727 16.4798 25.1727C16.5005 25.1934 16.5161 25.2089 16.5264 25.2193C16.5368 25.2297 16.5523 25.2348 16.5731 25.2348H27.487C27.5077 25.2348 27.5233 25.2297 27.5336 25.2193C27.544 25.2089 27.5595 25.1934 27.5803 25.1727C27.5803 25.1727 27.5854 25.1623 27.5958 25.1416C27.6062 25.1208 27.6114 25.1001 27.6114 25.0794ZM18.9051 14.8806C18.988 14.7977 19.0865 14.7303 19.2005 14.6785C19.3145 14.6267 19.4337 14.6008 19.5581 14.6008C19.6203 14.6008 19.6825 14.606 19.7446 14.6163C19.8068 14.6267 19.869 14.6422 19.9312 14.663C19.9934 14.6837 20.0504 14.7148 20.1022 14.7562C20.154 14.7977 20.2007 14.8392 20.2421 14.8806C20.2836 14.9221 20.3251 14.9687 20.3665 15.0205C20.408 15.0724 20.4391 15.1294 20.4598 15.1916C20.4805 15.233 20.4961 15.2848 20.5064 15.347C20.5168 15.4092 20.522 15.4714 20.522 15.5336V21.2859C20.522 21.3896 20.4909 21.4984 20.4287 21.6124C20.3665 21.7264 20.294 21.8145 20.211 21.8767C20.1281 21.9596 20.0297 22.0218 19.9157 22.0633C19.8016 22.1047 19.6825 22.1255 19.5581 22.1255C19.4544 22.1255 19.3456 22.1047 19.2316 22.0633C19.1176 22.0218 19.0191 21.9596 18.9362 21.8767C18.8533 21.8145 18.7807 21.7264 18.7185 21.6124C18.6564 21.4984 18.6253 21.3896 18.6253 21.2859V15.5336C18.6253 15.4092 18.646 15.29 18.6875 15.176C18.7289 15.062 18.8015 14.9635 18.9051 14.8806ZM24.4709 14.6008C24.4087 14.6008 24.3465 14.606 24.2843 14.6163C24.2221 14.6267 24.16 14.6422 24.0978 14.663C24.0563 14.6837 24.0097 14.7148 23.9578 14.7562C23.906 14.7977 23.849 14.8392 23.7868 14.8806C23.7454 14.9221 23.7091 14.9687 23.678 15.0205C23.6469 15.0724 23.621 15.1294 23.6003 15.1916C23.5795 15.233 23.564 15.2848 23.5536 15.347C23.5433 15.4092 23.5381 15.4714 23.5381 15.5336V21.2859C23.5381 21.3896 23.564 21.4984 23.6158 21.6124C23.6676 21.7264 23.7454 21.8145 23.849 21.8767C23.9319 21.9596 24.0304 22.0218 24.1444 22.0633C24.2584 22.1047 24.3672 22.1255 24.4709 22.1255C24.5953 22.1255 24.7145 22.1047 24.8285 22.0633C24.9425 22.0218 25.0409 21.9596 25.1239 21.8767C25.2068 21.8145 25.2741 21.7264 25.326 21.6124C25.3778 21.4984 25.4141 21.3896 25.4348 21.2859V15.5336C25.4348 15.4714 25.4296 15.4092 25.4192 15.347C25.4089 15.2848 25.3933 15.233 25.3726 15.1916C25.3311 15.1294 25.2949 15.0724 25.2638 15.0205C25.2327 14.9687 25.1964 14.9221 25.155 14.8806C25.1135 14.8392 25.0669 14.7977 25.015 14.7562C24.9632 14.7148 24.9062 14.6837 24.844 14.663C24.7818 14.6422 24.7196 14.6267 24.6575 14.6163C24.5953 14.606 24.5331 14.6008 24.4709 14.6008ZM8.95511 15.4092H12.22C12.3443 15.4299 12.4583 15.4662 12.562 15.518C12.6656 15.5699 12.7589 15.6372 12.8418 15.7202C12.9247 15.8031 12.9869 15.9015 13.0284 16.0155C13.0698 16.1296 13.0906 16.2487 13.0906 16.3731C13.0906 16.4975 13.0698 16.6115 13.0284 16.7152C12.9869 16.8188 12.9247 16.9121 12.8418 16.995C12.7589 17.0986 12.6656 17.1764 12.562 17.2282C12.4583 17.28 12.3443 17.3163 12.22 17.337H8.95511C8.89292 17.337 8.82555 17.3318 8.753 17.3215C8.68045 17.3111 8.61308 17.2956 8.55089 17.2748C8.4887 17.2541 8.42651 17.2282 8.36433 17.1971C8.30214 17.166 8.25032 17.1297 8.20886 17.0883C8.1674 17.0468 8.12594 16.995 8.08448 16.9328C8.04302 16.8706 8.00157 16.8084 7.96011 16.7462C7.93938 16.6841 7.92383 16.6219 7.91347 16.5597C7.9031 16.4975 7.89792 16.4353 7.89792 16.3731C7.89792 16.3109 7.9031 16.2436 7.91347 16.171C7.92383 16.0985 7.93938 16.0311 7.96011 15.9689C8.00157 15.9067 8.04302 15.8497 8.08448 15.7979C8.12594 15.7461 8.1674 15.6994 8.20886 15.658C8.25032 15.6165 8.30214 15.5802 8.36433 15.5491C8.42651 15.518 8.4887 15.4921 8.55089 15.4714C8.61308 15.4507 8.68045 15.4351 8.753 15.4248C8.82555 15.4144 8.89292 15.4092 8.95511 15.4092ZM12.22 20.322H6.4987C6.37433 20.3428 6.26032 20.379 6.15667 20.4309C6.05302 20.4827 5.95974 20.5501 5.87683 20.633C5.79391 20.7159 5.73172 20.8143 5.69026 20.9284C5.64881 21.0424 5.62808 21.1616 5.62808 21.2859C5.62808 21.3896 5.64881 21.4984 5.69026 21.6124C5.73172 21.7264 5.79391 21.8249 5.87683 21.9078C5.95974 21.9907 6.05302 22.0633 6.15667 22.1255C6.26032 22.1877 6.37433 22.2187 6.4987 22.2187H12.22C12.3443 22.2187 12.4583 22.1877 12.562 22.1255C12.6656 22.0633 12.7589 21.9907 12.8418 21.9078C12.9247 21.8249 12.9869 21.7264 13.0284 21.6124C13.0698 21.4984 13.0906 21.3896 13.0906 21.2859C13.0906 21.1616 13.0698 21.0424 13.0284 20.9284C12.9869 20.8143 12.9247 20.7159 12.8418 20.633C12.7589 20.5501 12.6656 20.4827 12.562 20.4309C12.4583 20.379 12.3443 20.3428 12.22 20.322ZM4.04229 25.2348H12.22C12.3443 25.2348 12.4583 25.2608 12.562 25.3126C12.6656 25.3644 12.7589 25.4421 12.8418 25.5458C12.9247 25.6287 12.9869 25.7272 13.0284 25.8412C13.0698 25.9552 13.0906 26.064 13.0906 26.1677C13.0906 26.292 13.0698 26.4112 13.0284 26.5252C12.9869 26.6392 12.9247 26.7377 12.8418 26.8206C12.7589 26.9035 12.6656 26.9709 12.562 27.0227C12.4583 27.0746 12.3443 27.1108 12.22 27.1316H4.04229C3.98011 27.1316 3.91274 27.1316 3.84019 27.1316C3.76763 27.1316 3.70026 27.1212 3.63808 27.1005C3.57589 27.0797 3.51888 27.0486 3.46706 27.0072C3.41524 26.9657 3.35823 26.9243 3.29604 26.8828C3.25459 26.8414 3.21313 26.7947 3.17167 26.7429C3.13021 26.6911 3.09912 26.6341 3.07839 26.5719C3.03693 26.5097 3.01102 26.4475 3.00065 26.3853C2.99029 26.3231 2.98511 26.2506 2.98511 26.1677C2.98511 26.1055 2.99029 26.0433 3.00065 25.9811C3.01102 25.9189 3.03693 25.8567 3.07839 25.7945C3.09912 25.7323 3.13021 25.6753 3.17167 25.6235C3.21313 25.5717 3.25459 25.5147 3.29604 25.4525C3.35823 25.411 3.41524 25.3748 3.46706 25.3437C3.51888 25.3126 3.57589 25.2867 3.63808 25.2659C3.70026 25.2452 3.76763 25.2297 3.84019 25.2193C3.91274 25.2089 3.98011 25.2141 4.04229 25.2348Z" fill="#D5B85D"/>
</g>
</g>
</svg>
