<svg width="48" height="48" viewBox="0 0 48 48" fill="none" xmlns="http://www.w3.org/2000/svg">
<g id="icon-write">
<rect width="48" height="48" rx="12" fill="#00B9FF"/>
<g id="Container">
<g id="Container_2">
<g id="Icon">
<path id="Vector" d="M30.4024 18.3082L24.4424 14.3038C24.2251 14.1642 23.9923 14.0672 23.744 14.0128C23.4956 13.9585 23.2473 13.9546 22.999 14.0012C22.7506 14.0322 22.5178 14.1137 22.3005 14.2456C22.0832 14.3776 21.897 14.5444 21.7418 14.7462L17.0622 21.6607C16.9225 21.847 16.81 22.0487 16.7247 22.266C16.6393 22.4833 16.5889 22.7084 16.5733 22.9412C16.5423 23.174 16.5423 23.4068 16.5733 23.6396C16.6044 23.8724 16.6665 24.0897 16.7596 24.2915L19.3205 30.9732C19.3205 30.9887 19.3205 30.9965 19.3205 30.9965C19.4136 31.2138 19.5378 31.4117 19.693 31.5902C19.8482 31.7687 20.0267 31.92 20.2285 32.0442C20.4303 32.1838 20.6437 32.2847 20.8687 32.3468C21.0938 32.4089 21.3227 32.4399 21.5555 32.4399H22.9058C22.9834 32.4399 23.0572 32.4244 23.127 32.3934C23.1968 32.3623 23.255 32.3235 23.3016 32.277C23.3637 32.2149 23.4064 32.1489 23.4297 32.0791C23.4529 32.0092 23.4646 31.9355 23.4646 31.8579C23.4646 31.7803 23.4529 31.7066 23.4297 31.6367C23.4064 31.5669 23.3637 31.5087 23.3016 31.4621C23.255 31.4 23.1968 31.3535 23.127 31.3224C23.0572 31.2914 22.9834 31.2759 22.9058 31.2759H21.5788C21.4546 31.2759 21.3305 31.2604 21.2063 31.2293C21.0821 31.1983 20.9657 31.1517 20.8571 31.0896C20.764 31.0275 20.6747 30.9499 20.5893 30.8568C20.504 30.7637 20.438 30.6628 20.3915 30.5542L17.8305 23.8724C17.8305 23.8724 17.8305 23.8686 17.8305 23.8608C17.8305 23.853 17.8305 23.8492 17.8305 23.8492C17.784 23.725 17.749 23.5969 17.7258 23.465C17.7025 23.3331 17.6986 23.1973 17.7141 23.0576C17.7296 22.9334 17.7607 22.8093 17.8072 22.6851C17.8538 22.5609 17.9236 22.4445 18.0168 22.3359V22.3126L22.673 15.4213C22.7351 15.3437 22.8127 15.2778 22.9058 15.2235C22.999 15.1691 23.0998 15.1342 23.2085 15.1187C23.3016 15.1032 23.3986 15.1071 23.4995 15.1303C23.6004 15.1536 23.6974 15.1963 23.7905 15.2584L29.7505 19.2628C29.8592 19.3404 29.9523 19.4218 30.0299 19.5072C30.1075 19.5926 30.1696 19.6896 30.2161 19.7982C30.2472 19.9069 30.2705 20.0194 30.286 20.1358C30.3015 20.2522 30.3015 20.3725 30.286 20.4967L28.8425 27.2948C28.8115 27.45 28.7533 27.5897 28.6679 27.7138C28.5826 27.838 28.4856 27.9467 28.3769 28.0398C28.2528 28.1329 28.1169 28.2028 27.9695 28.2493C27.8221 28.2959 27.6785 28.3192 27.5388 28.3192H26.9102V22.6618C26.9102 22.5377 26.8947 22.4096 26.8636 22.2777C26.8326 22.1457 26.786 22.0177 26.724 21.8935C26.6774 21.7849 26.6114 21.6801 26.5261 21.5792C26.4407 21.4784 26.3437 21.3813 26.235 21.2882C26.1264 21.2106 26.01 21.1408 25.8858 21.0787C25.7617 21.0166 25.6297 20.97 25.49 20.939C25.3504 20.908 25.2107 20.8924 25.071 20.8924C24.9313 20.8924 24.7916 20.908 24.6519 20.939L23.0688 21.2882C22.9446 21.3193 22.8166 21.3658 22.6847 21.4279C22.5527 21.49 22.4324 21.5598 22.3238 21.6374C22.2152 21.715 22.1143 21.8043 22.0211 21.9052C21.928 22.0061 21.8427 22.1186 21.765 22.2428C21.703 22.3669 21.6525 22.4911 21.6137 22.6153C21.5749 22.7394 21.5478 22.8636 21.5322 22.9878C21.5167 23.1274 21.5167 23.2632 21.5322 23.3952C21.5478 23.5271 21.5788 23.6552 21.6254 23.7793L23.0455 27.9699C23.1231 28.1872 23.2318 28.389 23.3715 28.5753C23.5111 28.7615 23.6741 28.9167 23.8604 29.0409C24.0466 29.1806 24.2484 29.2815 24.4657 29.3435C24.683 29.4056 24.908 29.4367 25.1408 29.4367H25.7694V31.8113C25.7694 31.889 25.7849 31.9627 25.816 32.0325C25.847 32.1024 25.8858 32.1683 25.9324 32.2304C25.9945 32.277 26.0604 32.3158 26.1303 32.3468C26.2001 32.3779 26.2739 32.3934 26.3515 32.3934C26.4291 32.3934 26.5028 32.3779 26.5726 32.3468C26.6425 32.3158 26.7007 32.277 26.7472 32.2304C26.8093 32.1683 26.8559 32.1024 26.8869 32.0325C26.918 31.9627 26.9335 31.889 26.9335 31.8113V29.4367H27.5854C27.8647 29.4367 28.1402 29.394 28.4118 29.3086C28.6835 29.2232 28.9279 29.0952 29.1452 28.9245C29.3625 28.7382 29.5487 28.5287 29.704 28.2959C29.8592 28.0631 29.9678 27.807 30.0299 27.5276L31.45 20.7295C31.4966 20.4967 31.5083 20.2638 31.485 20.031C31.4617 19.7982 31.4035 19.5732 31.3104 19.3559C31.2172 19.1386 31.0931 18.9407 30.9379 18.7622C30.7827 18.5837 30.6042 18.4324 30.4024 18.3082ZM25.7461 28.3424H25.1175C25.0089 28.3424 24.9003 28.3269 24.7916 28.2959C24.683 28.2648 24.5898 28.2183 24.5122 28.1562C24.4191 28.0941 24.3376 28.0204 24.2678 27.935C24.1979 27.8497 24.1475 27.7527 24.1165 27.644L22.7196 23.4301C22.7041 23.3835 22.6924 23.337 22.6847 23.2904C22.6769 23.2438 22.6808 23.1895 22.6963 23.1274C22.6963 23.0809 22.7041 23.0343 22.7196 22.9878C22.7351 22.9412 22.7584 22.8946 22.7894 22.8481C22.8049 22.8015 22.836 22.7549 22.8825 22.7084C22.9291 22.6618 22.9757 22.623 23.0222 22.592C23.0688 22.5454 23.1192 22.5105 23.1736 22.4872C23.2279 22.4639 23.2861 22.4445 23.3482 22.429L24.908 22.0798C24.9546 22.0643 25.005 22.0565 25.0593 22.0565C25.1137 22.0565 25.1719 22.0643 25.234 22.0798C25.2805 22.0953 25.331 22.1147 25.3853 22.138C25.4396 22.1613 25.49 22.1884 25.5366 22.2195C25.5677 22.2505 25.5987 22.2816 25.6297 22.3126C25.6608 22.3436 25.6841 22.3824 25.6996 22.429C25.7151 22.4756 25.7306 22.5182 25.7461 22.5571C25.7617 22.5959 25.7694 22.6385 25.7694 22.6851L25.7461 28.3424Z" fill="white"/>
</g>
</g>
</g>
</g>
</svg>
