<svg width="25" height="25" viewBox="0 0 19 19" fill="none" xmlns="http://www.w3.org/2000/svg">
<path id="instagram-bg" class="instagram-bg" d="M10.7005 0.273106C11.5114 0.273106 12.0733 0.276661 12.3862 0.28377C12.6992 0.290878 13.069 0.301542 13.4958 0.315762C13.9795 0.344198 14.3955 0.393965 14.7441 0.465059C15.0926 0.536152 15.4091 0.628574 15.6936 0.742325C15.9923 0.856073 16.2768 1.00182 16.5471 1.17955C16.8174 1.35728 17.0663 1.5599 17.2939 1.7874C17.5358 2.0149 17.742 2.26373 17.9127 2.53389C18.0834 2.80404 18.2257 3.09553 18.3395 3.40834C18.4533 3.69271 18.5493 4.00908 18.6276 4.35744C18.7058 4.7058 18.752 5.1217 18.7663 5.60514C18.7947 6.08857 18.8089 6.5258 18.8089 6.91682C18.8089 7.30783 18.8089 8.11475 18.8089 9.33756C18.8089 10.5746 18.8054 11.3886 18.7983 11.7796C18.7912 12.1706 18.7805 12.6079 18.7663 13.0913C18.7378 13.5747 18.688 13.9906 18.6169 14.339C18.5458 14.6874 18.4533 15.0037 18.3395 15.2881C18.1119 15.8995 17.7634 16.4363 17.2939 16.8984C16.8245 17.3605 16.2911 17.7124 15.6936 17.9541C15.3949 18.0679 15.0712 18.1603 14.7227 18.2314C14.3742 18.3025 13.9581 18.3522 13.4745 18.3807C13.0619 18.3949 12.6956 18.4056 12.3756 18.4127C12.0555 18.4198 11.4972 18.4233 10.7005 18.4233H8.78013C7.96929 18.4233 7.40383 18.4198 7.08376 18.4127C6.7637 18.4056 6.3974 18.3949 5.98486 18.3807C5.5012 18.3522 5.08512 18.3025 4.7366 18.2314C4.38808 18.1603 4.07157 18.0679 3.78706 17.9541C3.48833 17.8404 3.20382 17.6946 2.93354 17.5169C2.66326 17.3392 2.41432 17.1365 2.18672 16.909C1.94489 16.6815 1.73507 16.4327 1.55725 16.1626C1.37944 15.8924 1.23363 15.6009 1.11982 15.2881C1.02025 15.0037 0.93134 14.6874 0.853101 14.339C0.774862 13.9906 0.72863 13.5747 0.714404 13.0913C0.685954 12.679 0.668172 12.3128 0.66106 11.9929C0.653947 11.673 0.650391 11.1149 0.650391 10.3187V8.37779C0.650391 7.58154 0.653947 7.02346 0.66106 6.70354C0.668172 6.38361 0.685954 6.01748 0.714404 5.60514C0.72863 5.1217 0.774862 4.7058 0.853101 4.35744C0.93134 4.00908 1.02736 3.68561 1.14116 3.38701C1.25496 3.08842 1.39722 2.80404 1.56792 2.53389C1.73862 2.26373 1.94489 2.0149 2.18672 1.7874C2.41432 1.5599 2.66326 1.35728 2.93354 1.17955C3.20382 1.00182 3.48833 0.856073 3.78706 0.742325C4.07157 0.628574 4.38808 0.536152 4.7366 0.465059C5.08512 0.393965 5.5012 0.344198 5.98486 0.315762C6.3974 0.301542 6.7637 0.290878 7.08376 0.28377C7.40383 0.276661 7.96929 0.273106 8.78013 0.273106H10.7005ZM10.2524 1.91537H9.24956C8.26802 1.91537 7.60299 1.91893 7.25447 1.92603C6.90595 1.93314 6.5112 1.94381 6.07021 1.95803C5.62923 1.98647 5.27716 2.03267 5.01399 2.09666C4.75082 2.16064 4.541 2.22107 4.38452 2.27795C4.18537 2.34904 4.00044 2.44146 3.82974 2.55521C3.65903 2.66896 3.49544 2.80404 3.33896 2.96045C3.19671 3.10264 3.06869 3.2626 2.95488 3.44033C2.84108 3.61807 2.7415 3.80647 2.65615 4.00553C2.59925 4.16193 2.53879 4.37166 2.47478 4.63471C2.41077 4.89775 2.37165 5.24967 2.35742 5.69045C2.32897 6.15967 2.31119 6.58268 2.30408 6.95947C2.29696 7.33627 2.29341 8.13607 2.29341 9.35889V9.61482C2.29341 10.7097 2.29696 11.4348 2.30408 11.7903C2.31119 12.1458 2.32897 12.5581 2.35742 13.0273C2.37165 13.4681 2.41077 13.8165 2.47478 14.0724C2.53879 14.3283 2.59925 14.5416 2.65615 14.7122C2.7415 14.9113 2.84108 15.0962 2.95488 15.2668C3.06869 15.4374 3.19671 15.6009 3.33896 15.7573C3.48122 15.8995 3.64125 16.0275 3.81907 16.1412C3.99688 16.255 4.18537 16.3474 4.38452 16.4185C4.541 16.4896 4.75082 16.5571 5.01399 16.6211C5.27716 16.6851 5.62923 16.7242 6.07021 16.7384C6.49697 16.7526 6.87394 16.7633 7.20112 16.7704C7.5283 16.7775 8.13288 16.7811 9.01484 16.7811H10.4658C11.3478 16.7811 11.9524 16.7775 12.2795 16.7704C12.6067 16.7633 12.9837 16.7526 13.4104 16.7384C13.8514 16.7242 14.2035 16.6851 14.4667 16.6211C14.7298 16.5571 14.9397 16.4896 15.0961 16.4185C15.4945 16.2763 15.843 16.0524 16.1417 15.7467C16.4404 15.441 16.668 15.0962 16.8245 14.7122C16.8814 14.5416 16.9419 14.3283 17.0059 14.0724C17.0699 13.8165 17.1161 13.4681 17.1446 13.0273C17.1588 12.6008 17.1695 12.224 17.1766 11.8969C17.1837 11.5699 17.1873 10.9656 17.1873 10.084V8.6124C17.1873 7.73084 17.1837 7.1301 17.1766 6.81018C17.1695 6.49025 17.1588 6.11701 17.1446 5.69045C17.1161 5.24967 17.0699 4.89775 17.0059 4.63471C16.9419 4.37166 16.8814 4.16193 16.8245 4.00553C16.7534 3.80647 16.6609 3.61807 16.5471 3.44033C16.4333 3.2626 16.2982 3.10264 16.1417 2.96045C15.9994 2.80404 15.8394 2.66896 15.6616 2.55521C15.4838 2.44146 15.2953 2.34904 15.0961 2.27795C14.9397 2.22107 14.7298 2.16064 14.4667 2.09666C14.2035 2.03267 13.8514 1.98647 13.4104 1.95803C12.9695 1.94381 12.5783 1.93314 12.2369 1.92603C11.8955 1.91893 11.234 1.91537 10.2524 1.91537ZM9.74033 4.68803C10.3805 4.68803 10.985 4.80889 11.5541 5.05061C12.1231 5.29232 12.6174 5.62291 13.037 6.04236C13.4567 6.46182 13.7874 6.95592 14.0292 7.52467C14.2853 8.09342 14.4133 8.69771 14.4133 9.33756C14.4133 9.99162 14.2853 10.5959 14.0292 11.1504C13.7874 11.7192 13.4567 12.2169 13.037 12.6434C12.6174 13.07 12.1231 13.4041 11.5541 13.6458C10.985 13.8876 10.3805 14.0084 9.74033 14.0084C9.1002 14.0084 8.49562 13.8876 7.92661 13.6458C7.3576 13.4041 6.86327 13.07 6.44363 12.6434C6.02398 12.2169 5.68613 11.7192 5.43008 11.1504C5.18825 10.5959 5.06733 9.99162 5.06733 9.33756C5.06733 8.69771 5.18825 8.09342 5.43008 7.52467C5.68613 6.95592 6.02398 6.46182 6.44363 6.04236C6.86327 5.62291 7.3576 5.29232 7.92661 5.05061C8.49562 4.80889 9.1002 4.68803 9.74033 4.68803ZM9.74033 6.30896C8.90104 6.30896 8.18622 6.60756 7.59587 7.20475C7.00553 7.80193 6.71035 8.51287 6.71035 9.33756C6.71035 10.1765 7.00553 10.891 7.59587 11.481C8.18622 12.0711 8.90104 12.3662 9.74033 12.3662C10.5796 12.3662 11.2944 12.0711 11.8848 11.481C12.4751 10.891 12.7703 10.1765 12.7703 9.33756C12.7703 8.51287 12.4751 7.80193 11.8848 7.20475C11.2944 6.60756 10.5796 6.30896 9.74033 6.30896ZM14.584 3.40834C14.8828 3.40834 15.1388 3.51498 15.3522 3.72826C15.5656 3.94154 15.6723 4.19748 15.6723 4.49607C15.6723 4.79467 15.5656 5.05061 15.3522 5.26389C15.1388 5.47717 14.8828 5.58381 14.584 5.58381C14.2853 5.58381 14.0292 5.47717 13.8159 5.26389C13.6025 5.05061 13.4958 4.79467 13.4958 4.49607C13.4958 4.19748 13.6025 3.94154 13.8159 3.72826C14.0292 3.51498 14.2853 3.40834 14.584 3.40834Z" fill="white"/>
</svg>
