<svg width="50" height="50" viewBox="0 0 23 28" fill="none" xmlns="http://www.w3.org/2000/svg">
<path id="liber-finan" class="liber-finan" d="M14.9246 7.40884C14.9868 7.4503 15.0542 7.48139 15.1268 7.50212C15.1993 7.52285 15.277 7.53321 15.36 7.53321C15.4636 7.53321 15.5621 7.51767 15.6554 7.48657C15.7486 7.45548 15.8367 7.40884 15.9196 7.34665C16.0026 7.30519 16.0751 7.243 16.1373 7.16009C16.1995 7.07717 16.2513 6.99426 16.2928 6.91134L17.8164 3.77087C17.8993 3.60504 17.9563 3.42884 17.9874 3.24228C18.0185 3.05571 18.0133 2.86915 17.9718 2.68259C17.9511 2.49603 17.8993 2.31983 17.8164 2.15399C17.7334 1.98816 17.6298 1.84306 17.5054 1.71868C17.3811 1.57358 17.2308 1.45957 17.0546 1.37665C16.8784 1.29373 16.7074 1.23155 16.5415 1.19009C16.3342 1.16936 16.1373 1.17454 15.9507 1.20564C15.7642 1.23673 15.588 1.29373 15.4221 1.37665L13.4943 2.27837L13.0279 1.56321C12.945 1.45957 12.8465 1.35592 12.7325 1.25228C12.6185 1.14863 12.4993 1.05535 12.375 0.972431C12.2299 0.910244 12.0899 0.863604 11.9552 0.83251C11.8205 0.801416 11.6702 0.78587 11.5043 0.78587C11.3592 0.78587 11.2141 0.801416 11.069 0.83251C10.9239 0.863604 10.7892 0.910244 10.6648 0.972431C10.5404 1.05535 10.4212 1.15381 10.3072 1.26782C10.1932 1.38183 10.0948 1.50103 10.0118 1.6254L9.54543 2.30946L7.61762 1.37665C7.45178 1.29373 7.27559 1.23673 7.08902 1.20564C6.90246 1.17454 6.7159 1.16936 6.52934 1.19009C6.34277 1.23155 6.16658 1.29373 6.00074 1.37665C5.83491 1.45957 5.67944 1.57358 5.53434 1.71868C5.40996 1.84306 5.30113 1.98816 5.20785 2.15399C5.11457 2.31983 5.05757 2.49603 5.03684 2.68259C4.99538 2.86915 4.9902 3.05571 5.02129 3.24228C5.05238 3.42884 5.10939 3.6154 5.1923 3.80196L6.7159 6.84915C6.77809 6.9528 6.861 7.0409 6.96465 7.11345C7.06829 7.186 7.17194 7.23264 7.27559 7.25337C7.39996 7.29483 7.52434 7.31037 7.64871 7.30001C7.77309 7.28964 7.8871 7.25337 7.99074 7.19118C8.11512 7.14972 8.21876 7.08235 8.30168 6.98907C8.3846 6.89579 8.44678 6.78696 8.48824 6.66259C8.5297 6.55894 8.55043 6.44493 8.55043 6.32056C8.55043 6.19618 8.5297 6.07181 8.48824 5.94743L7.1823 3.33556L8.83027 4.14399C9.01684 4.24764 9.22413 4.31501 9.45215 4.3461C9.68017 4.3772 9.90819 4.35129 10.1362 4.26837C10.3228 4.22691 10.499 4.14918 10.6648 4.03517C10.8306 3.92116 10.9757 3.78123 11.1001 3.6154L11.5043 2.96243L11.9396 3.6154C12.0433 3.78123 12.1729 3.93152 12.3283 4.06626C12.4838 4.201 12.6652 4.29946 12.8725 4.36165C13.0798 4.42384 13.2974 4.44457 13.5254 4.42384C13.7535 4.40311 13.9711 4.34092 14.1784 4.23728L15.7953 3.42884L14.4893 6.1029C14.4271 6.22728 14.3961 6.35165 14.3961 6.47602C14.3961 6.6004 14.4168 6.72478 14.4582 6.84915C14.4997 6.97353 14.5619 7.08754 14.6448 7.19118C14.7277 7.29483 14.821 7.36738 14.9246 7.40884ZM5.81418 10.9535H17.2567C17.3811 10.9535 17.5054 10.9276 17.6298 10.8758C17.7542 10.824 17.8578 10.7566 17.9407 10.6737C18.0237 10.57 18.091 10.4612 18.1429 10.3472C18.1947 10.2332 18.2206 10.1036 18.2206 9.95852C18.2206 9.83415 18.1947 9.71496 18.1429 9.60095C18.091 9.48694 18.0237 9.37811 17.9407 9.27446C17.8578 9.19155 17.7542 9.12418 17.6298 9.07235C17.5054 9.02053 17.3811 8.99462 17.2567 8.99462H5.81418C5.66908 8.99462 5.53952 9.02053 5.42551 9.07235C5.3115 9.12418 5.20267 9.19155 5.09902 9.27446C5.01611 9.37811 4.94874 9.48694 4.89691 9.60095C4.84509 9.71496 4.81918 9.83415 4.81918 9.95852C4.81918 10.1036 4.84509 10.2332 4.89691 10.3472C4.94874 10.4612 5.01611 10.57 5.09902 10.6737C5.20267 10.7566 5.3115 10.824 5.42551 10.8758C5.53952 10.9276 5.66908 10.9535 5.81418 10.9535ZM14.6759 27.3088H8.36387C7.6798 27.3088 7.00092 27.2156 6.32723 27.029C5.65353 26.8424 5.02647 26.5626 4.44605 26.1895C3.84491 25.8163 3.31113 25.381 2.84473 24.8835C2.37832 24.386 1.98965 23.8367 1.67871 23.2356C1.36777 22.593 1.15012 21.9296 1.02574 21.2456C0.901367 20.5615 0.870273 19.8774 0.932461 19.1934C1.01538 18.4886 1.18639 17.8149 1.44551 17.1723C1.70462 16.5297 2.04147 15.9285 2.45605 15.3688L5.50324 11.8552C5.5447 11.7931 5.59134 11.7412 5.64316 11.6998C5.69499 11.6583 5.75199 11.6272 5.81418 11.6065C5.87637 11.5858 5.93855 11.565 6.00074 11.5443C6.06293 11.5236 6.12512 11.5132 6.1873 11.5132C6.24949 11.5132 6.31168 11.5132 6.37387 11.5132C6.43605 11.5132 6.49824 11.5236 6.56043 11.5443C6.62262 11.565 6.6848 11.5961 6.74699 11.6376C6.80918 11.679 6.861 11.7205 6.90246 11.762C6.94392 11.8034 6.98538 11.8501 7.02684 11.9019C7.06829 11.9537 7.09939 12.0107 7.12012 12.0729C7.16158 12.1144 7.18749 12.1662 7.19785 12.2284C7.20822 12.2906 7.22376 12.3631 7.24449 12.446C7.24449 12.5082 7.23931 12.5704 7.22895 12.6326C7.21858 12.6948 7.20303 12.757 7.1823 12.8191C7.16158 12.8813 7.13566 12.9383 7.10457 12.9902C7.07348 13.042 7.0372 13.099 6.99574 13.1612L3.97965 16.5504C3.75163 16.8613 3.5547 17.1878 3.38887 17.5299C3.22303 17.8719 3.09866 18.2295 3.01574 18.6026C2.93283 18.9757 2.88618 19.354 2.87582 19.7375C2.86546 20.121 2.89137 20.4993 2.95355 20.8724C3.03647 21.2456 3.15048 21.6083 3.29559 21.9607C3.44069 22.3131 3.61689 22.6448 3.82418 22.9557C4.0522 23.2667 4.30095 23.5569 4.57043 23.8263C4.83991 24.0958 5.14048 24.3342 5.47215 24.5415C5.90746 24.811 6.36868 25.0131 6.85582 25.1478C7.34296 25.2826 7.84564 25.3499 8.36387 25.3499H14.6759C15.1734 25.3499 15.6709 25.2826 16.1684 25.1478C16.6659 25.0131 17.1323 24.811 17.5676 24.5415C18.0029 24.272 18.3916 23.9455 18.7336 23.562C19.0757 23.1786 19.3607 22.7588 19.5887 22.3027C19.8167 21.8467 19.9774 21.3647 20.0707 20.8569C20.1639 20.349 20.1795 19.836 20.1173 19.3177C20.0758 18.8202 19.9618 18.3331 19.7753 17.8563C19.5887 17.3796 19.3296 16.9339 18.9979 16.5193L16.044 13.0679C16.0026 13.0264 15.9663 12.9746 15.9352 12.9124C15.9041 12.8502 15.8782 12.7881 15.8575 12.7259C15.8367 12.6637 15.8212 12.6015 15.8108 12.5393C15.8005 12.4771 15.7953 12.4149 15.7953 12.3527C15.7953 12.2906 15.8056 12.2284 15.8264 12.1662C15.8471 12.104 15.8678 12.0418 15.8886 11.9796C15.93 11.9174 15.9715 11.8604 16.0129 11.8086C16.0544 11.7568 16.0958 11.7101 16.1373 11.6687C16.1788 11.6272 16.2306 11.5909 16.2928 11.5599C16.355 11.5288 16.4171 11.5028 16.4793 11.4821C16.5415 11.4614 16.6037 11.4458 16.6659 11.4355C16.7281 11.4251 16.7903 11.4199 16.8525 11.4199C16.9146 11.4407 16.9768 11.4562 17.039 11.4666C17.1012 11.4769 17.1634 11.5028 17.2256 11.5443C17.2878 11.565 17.3448 11.5961 17.3966 11.6376C17.4484 11.679 17.4951 11.7205 17.5365 11.762L20.5837 15.2756C21.019 15.8352 21.3662 16.4364 21.6254 17.079C21.8845 17.7216 22.0555 18.3953 22.1384 19.1001C22.2006 19.7842 22.1695 20.4682 22.0451 21.1523C21.9207 21.8363 21.7031 22.4997 21.3921 23.1423C21.1019 23.7642 20.7236 24.329 20.2572 24.8369C19.7908 25.3447 19.257 25.7852 18.6559 26.1584C18.0548 26.5315 17.4173 26.8165 16.7436 27.0134C16.0699 27.2104 15.3807 27.3088 14.6759 27.3088ZM10.7581 21.2456V19.5976H9.07902C8.93392 19.5976 8.80436 19.5717 8.69035 19.5199C8.57634 19.468 8.46751 19.3903 8.36387 19.2867C8.28095 19.2037 8.21358 19.1001 8.16176 18.9757C8.10993 18.8513 8.08402 18.727 8.08402 18.6026C8.08402 18.4782 8.10993 18.3538 8.16176 18.2295C8.21358 18.1051 8.28095 18.0014 8.36387 17.9185C8.46751 17.8149 8.57634 17.7371 8.69035 17.6853C8.80436 17.6335 8.93392 17.6076 9.07902 17.6076H10.7581V15.8042C10.7581 15.6798 10.784 15.5554 10.8358 15.431C10.8876 15.3067 10.955 15.203 11.0379 15.1201C11.1416 15.0372 11.2556 14.9698 11.38 14.918C11.5043 14.8662 11.6287 14.8402 11.7531 14.8402C11.8775 14.8402 12.0018 14.8662 12.1262 14.918C12.2506 14.9698 12.3542 15.0372 12.4371 15.1201C12.5408 15.203 12.6133 15.3067 12.6548 15.431C12.6963 15.5554 12.717 15.6798 12.717 15.8042V17.6076H14.4893C14.6344 17.6076 14.764 17.6335 14.878 17.6853C14.992 17.7371 15.1008 17.8149 15.2045 17.9185C15.2874 18.0014 15.3548 18.1051 15.4066 18.2295C15.4584 18.3538 15.4843 18.4782 15.4843 18.6026C15.4843 18.727 15.4584 18.8513 15.4066 18.9757C15.3548 19.1001 15.2874 19.2037 15.2045 19.2867C15.1008 19.3903 14.992 19.468 14.878 19.5199C14.764 19.5717 14.6344 19.5976 14.4893 19.5976H12.717V21.2456C12.717 21.3699 12.6963 21.4943 12.6548 21.6187C12.6133 21.7431 12.5408 21.8467 12.4371 21.9296C12.3542 22.0333 12.2506 22.111 12.1262 22.1628C12.0018 22.2146 11.8775 22.2406 11.7531 22.2406C11.6287 22.2406 11.5043 22.2146 11.38 22.1628C11.2556 22.111 11.1416 22.0333 11.0379 21.9296C10.955 21.8467 10.8876 21.7431 10.8358 21.6187C10.784 21.4943 10.7581 21.3699 10.7581 21.2456Z" fill="#D5B85D"/>
</svg>
