<svg width="25" height="25" viewBox="0 0 19 19" fill="none" xmlns="http://www.w3.org/2000/svg">
<path id="linkedin-bg" class="linkedin-bg" d="M4.42206 6.30928V18.4663H0.646982V6.30928H4.42206ZM14.041 6.01068C14.9937 6.01068 15.7615 6.15998 16.3445 6.45857C16.9417 6.74295 17.4038 7.14463 17.7308 7.66361C18.0578 8.1826 18.2782 8.79756 18.392 9.5085C18.5057 10.2052 18.5626 10.9659 18.5626 11.7906V18.4663H14.7875V12.4091C14.7875 11.7124 14.6951 11.0263 14.5103 10.351C14.3254 9.67557 13.7638 9.33787 12.8253 9.33787C11.8442 9.33787 11.2222 9.65779 10.9591 10.2976C10.6961 10.9375 10.5646 11.6555 10.5646 12.4518V18.4663H6.78948V6.30928H10.4153V7.97287H10.4579C10.7139 7.48943 11.144 7.04154 11.7483 6.6292C12.3526 6.21686 13.1168 6.01068 14.041 6.01068ZM2.54519 0.273418C3.14237 0.273418 3.65425 0.486698 4.08081 0.913261C4.50737 1.33982 4.72065 1.8517 4.72065 2.44889C4.72065 3.04607 4.50737 3.5615 4.08081 3.99518C3.65425 4.42885 3.14237 4.64568 2.54519 4.64568C1.93378 4.64568 1.41479 4.42885 0.988232 3.99518C0.56167 3.5615 0.348389 3.04607 0.348389 2.44889C0.348389 1.8517 0.56167 1.33982 0.988232 0.913261C1.41479 0.486698 1.93378 0.273418 2.54519 0.273418Z" fill="white"/>
</svg>
