<svg width="25" height="20" viewBox="0 0 25 20" fill="none" xmlns="http://www.w3.org/2000/svg">
<g id="logo-a-b">
<path id="logo-a" d="M6.12148 2.81753H5.43231L3.34452 10.7836H8.20928L6.12148 2.81753ZM10.6822 19.8442H9.50654C9.29033 19.8442 9.09777 19.7631 8.92885 19.6009C8.75994 19.4388 8.67548 19.2293 8.67548 18.9726V13.6011H2.89858V18.9726C2.89858 19.2293 2.81413 19.4388 2.64521 19.6009C2.4763 19.7631 2.27698 19.8442 2.04725 19.8442H0.891872C0.648634 19.8442 0.439179 19.7631 0.263508 19.6009C0.0878359 19.4388 0 19.2293 0 18.9726V12.1011L0.0405396 11.9187L3.06074 0.608123C3.10128 0.432451 3.20263 0.287184 3.36479 0.172322C3.52695 0.0574596 3.70938 2.84798e-05 3.91207 2.84798e-05H7.64172C7.84442 2.84798e-05 8.02685 0.0574596 8.18901 0.172322C8.35116 0.287184 8.45251 0.432451 8.49305 0.608123L11.5335 11.9187L11.5538 12.1011V18.9726C11.5538 19.2293 11.466 19.4388 11.2903 19.6009C11.1146 19.7631 10.9119 19.8442 10.6822 19.8442Z" fill="#00B9FF"/>
<path id="logo-b" d="M21.775 13.2909C21.775 12.738 21.5793 12.2693 21.1878 11.8849C20.7964 11.5006 20.3239 11.3084 19.7705 11.3084H16.8954V16.9525H19.7705C20.3239 16.9525 20.7964 16.7637 21.1878 16.3861C21.5793 16.0084 21.775 15.5432 21.775 14.9902V13.2909ZM21.4713 4.77422C21.4713 4.23476 21.2789 3.77285 20.8942 3.38848C20.5095 3.00412 20.0337 2.81194 19.4668 2.81194H16.8954V8.47625H19.4668C20.0337 8.47625 20.5095 8.27732 20.8942 7.87947C21.2789 7.48162 21.4713 7.01297 21.4713 6.47351V4.77422ZM19.7705 19.8049H14.8504C14.6209 19.8049 14.4218 19.724 14.2531 19.5621C14.0844 19.4003 14 19.1912 14 18.935V0.809199C14 0.579929 14.0844 0.387747 14.2531 0.232653C14.4218 0.0775587 14.6209 1.1608e-05 14.8504 1.1608e-05H19.4668C20.1417 1.1608e-05 20.7761 0.12139 21.37 0.364146C21.964 0.606902 22.4836 0.944063 22.9291 1.37563C23.3745 1.8072 23.7187 2.31294 23.9617 2.89286C24.2182 3.48626 24.3464 4.11338 24.3464 4.77422V6.47351C24.3464 7.10737 24.235 7.70078 24.0123 8.25372C23.7896 8.80667 23.4825 9.29892 23.0911 9.73049C23.5635 10.1755 23.9448 10.7049 24.235 11.3185C24.5252 11.9322 24.6704 12.5896 24.6704 13.2909V14.9902C24.6704 15.651 24.5421 16.2714 24.2857 16.8513C24.0292 17.4313 23.6782 17.9404 23.2328 18.3787C22.7873 18.817 22.2677 19.1643 21.6737 19.4205C21.0798 19.6767 20.4454 19.8049 19.7705 19.8049Z" fill="black"/>
</g>
</svg>
