<svg  viewBox="0 0 134 50" fill="none" xmlns="http://www.w3.org/2000/svg">
<g id="logo-active">
<g id="log-active">
<rect fill="transparent"/>
<path id="logo-i" class="logo-i" d="M52.2851 29.6158H43.8092C43.5946 29.6158 43.3887 29.5305 43.237 29.3788C43.0852 29.227 43 29.0212 43 28.8066V27.7648C43 27.5502 43.0852 27.3444 43.237 27.1927C43.3887 27.0409 43.5946 26.9557 43.8092 26.9557H46.7019V18.9855H44.8712C44.6566 18.9855 44.4508 18.9002 44.299 18.7485C44.1473 18.5967 44.062 18.3909 44.062 18.1763V17.1042C44.066 16.8922 44.153 16.6903 44.3043 16.5418C44.4556 16.3933 44.6592 16.3101 44.8712 16.3102H48.5478C48.7566 16.315 48.9559 16.3983 49.1059 16.5437C49.2559 16.689 49.3455 16.8855 49.3569 17.0941V26.9304H52.28C52.4902 26.937 52.6896 27.0251 52.8359 27.1761C52.9822 27.3272 53.064 27.5293 53.0639 27.7395V28.8016C53.064 29.0119 52.9822 29.2139 52.8359 29.365C52.6896 29.516 52.4902 29.6042 52.28 29.6107M48.8158 14.7222H46.6968C46.59 14.7236 46.4839 14.7036 46.3848 14.6635C46.2858 14.6233 46.1957 14.5639 46.1199 14.4885C46.0441 14.4132 45.9841 14.3235 45.9433 14.2247C45.9026 14.1259 45.8819 14.0199 45.8826 13.9131V11.7587C45.8943 11.5525 45.9848 11.3588 46.1355 11.2175C46.2861 11.0763 46.4853 10.9985 46.6918 11.0001H48.8158C48.9193 11.0027 49.0211 11.0265 49.1151 11.07C49.209 11.1135 49.293 11.1758 49.362 11.2529C49.5 11.3865 49.583 11.567 49.5946 11.7587V13.9131C49.5961 14.1229 49.5154 14.3249 49.3699 14.4761C49.2244 14.6273 49.0255 14.7156 48.8158 14.7222Z" fill="#00B9FF"/>
<path id="logo-t" class="logo-t" d="M36.6604 29.8895C35.4585 29.8815 34.3086 29.3984 33.4616 28.5457C32.6145 27.693 32.1392 26.5399 32.1392 25.338V19.4968H30.7839C30.5741 19.489 30.3755 19.4005 30.2294 19.2497C30.0833 19.099 30.0012 18.8976 30 18.6877V17.6408C29.9999 17.431 30.0819 17.2295 30.2283 17.0793C30.3748 16.9291 30.5741 16.842 30.7839 16.8367H32.1392V11.7441C32.1484 11.5384 32.2387 11.3447 32.3903 11.2054C32.542 11.066 32.7426 10.9925 32.9484 11.0007H34.0154C34.2191 11 34.4156 11.0762 34.5656 11.214C34.7156 11.3518 34.8081 11.5411 34.8246 11.7441V16.8013H39.3154C39.53 16.8013 39.7358 16.8866 39.8876 17.0383C40.0393 17.1901 40.1246 17.3959 40.1246 17.6105V18.6523C40.1246 18.8669 40.0393 19.0727 39.8876 19.2244C39.7358 19.3762 39.53 19.4614 39.3154 19.4614H34.8094V25.343C34.8094 25.8339 35.0044 26.3047 35.3516 26.6518C35.6987 26.999 36.1695 27.194 36.6604 27.194C37.1513 27.194 37.6221 26.999 37.9692 26.6518C38.3163 26.3047 38.5113 25.8339 38.5113 25.343V24.8373C38.5113 24.6227 38.5966 24.4169 38.7483 24.2651C38.9001 24.1134 39.1059 24.0281 39.3205 24.0281H40.3876C40.6022 24.0281 40.808 24.1134 40.9597 24.2651C41.1115 24.4169 41.1967 24.6227 41.1967 24.8373V25.343C41.1967 26.5501 40.7172 27.7078 39.8636 28.5614C39.01 29.415 37.8523 29.8945 36.6452 29.8945L36.6604 29.8895Z" fill="#00B9FF"/>
<path id="logo-c" class="logo-c" d="M24.0674 29.8468H23.4908C22.2942 29.8308 21.1521 29.3443 20.3116 28.4924C19.4711 27.6406 18.9999 26.492 19 25.2953V20.4909C19.0013 19.3003 19.4749 18.1588 20.3168 17.3169C21.1587 16.475 22.3002 16.0014 23.4908 16.0001H24.0674C25.2584 16.0001 26.4007 16.4732 27.2428 17.3154C28.085 18.1576 28.5582 19.2998 28.5582 20.4909C28.5609 20.7029 28.4803 20.9076 28.3337 21.0608C28.1871 21.214 27.9863 21.3036 27.7743 21.3102H26.7123C26.6069 21.3129 26.5021 21.2936 26.4046 21.2535C26.307 21.2135 26.2189 21.1535 26.1459 21.0775C26.073 21.0008 26.0163 20.9102 25.9789 20.8112C25.9416 20.7122 25.9244 20.6067 25.9284 20.501C25.9258 20.01 25.7292 19.54 25.3816 19.1933C25.0339 18.8467 24.5634 18.6514 24.0724 18.6501H23.4908C23.0051 18.6566 22.5412 18.8528 22.1982 19.1968C21.8552 19.5407 21.6603 20.0052 21.6551 20.4909V25.3003C21.6576 25.7941 21.8532 26.2674 22.2 26.6189C22.5468 26.9704 23.0173 27.1724 23.5111 27.1816H24.0876C24.5813 27.1724 25.0518 26.9704 25.3987 26.6189C25.7455 26.2674 25.941 25.7941 25.9436 25.3003C25.9433 25.0926 26.023 24.8926 26.1661 24.742C26.3092 24.5914 26.5048 24.5016 26.7123 24.4912H27.7743C27.9841 24.499 28.1827 24.5875 28.3288 24.7383C28.4748 24.8891 28.557 25.0904 28.5582 25.3003C28.557 26.4961 28.0852 27.6434 27.2448 28.4942C26.4045 29.345 25.2631 29.8308 24.0674 29.8468Z" fill="#00B9FF"/>
<path id="logo-a" class="logo-a" d="M11.1215 12.8175H10.4323L8.34452 20.7836H13.2093L11.1215 12.8175ZM15.6822 29.8442H14.5065C14.2903 29.8442 14.0978 29.7631 13.9289 29.6009C13.7599 29.4388 13.6755 29.2293 13.6755 28.9726V23.6011H7.89858V28.9726C7.89858 29.2293 7.81413 29.4388 7.64521 29.6009C7.4763 29.7631 7.27698 29.8442 7.04725 29.8442H5.89187C5.64863 29.8442 5.43918 29.7631 5.26351 29.6009C5.08784 29.4388 5 29.2293 5 28.9726V22.1011L5.04054 21.9187L8.06074 10.6081C8.10128 10.4325 8.20263 10.2872 8.36479 10.1723C8.52695 10.0575 8.70938 10 8.91207 10H12.6417C12.8444 10 13.0268 10.0575 13.189 10.1723C13.3512 10.2872 13.4525 10.4325 13.4931 10.6081L16.5335 21.9187L16.5538 22.1011V28.9726C16.5538 29.2293 16.466 29.4388 16.2903 29.6009C16.1146 29.7631 15.9119 29.8442 15.6822 29.8442Z" fill="#00B9FF"/>
<path id="logo-v" class="logo-v" d="M60.4738 28.7807C60.4132 28.9256 60.3124 29.0502 60.1834 29.1398C60.0544 29.2294 59.9025 29.2803 59.7455 29.2864H57.9148C57.7583 29.2785 57.6072 29.2269 57.4785 29.1376C57.3498 29.0482 57.2486 28.9246 57.1866 28.7807L53.0598 17.0783C53.0093 16.9568 52.9903 16.8245 53.0047 16.6938C53.019 16.563 53.0663 16.438 53.1421 16.3305C53.2178 16.2229 53.3196 16.1363 53.4378 16.0787C53.5561 16.0211 53.687 15.9944 53.8184 16.0011H55.2294C55.3906 16.0082 55.5468 16.0591 55.6813 16.1482C55.8158 16.2372 55.9235 16.3612 55.993 16.5068L58.8453 25.7919L61.9656 16.5068C62.0329 16.3606 62.1394 16.2359 62.2734 16.1466C62.4073 16.0573 62.5634 16.0069 62.7242 16.0011H63.8469C63.9773 15.9961 64.1068 16.0237 64.2237 16.0814C64.3407 16.1392 64.4414 16.2252 64.5167 16.3316C64.592 16.4381 64.6396 16.5617 64.6551 16.6912C64.6706 16.8206 64.6536 16.952 64.6055 17.0732L60.4738 28.7807Z" fill="#00B9FF"/>
<path id="logo-o" class="logo-o" d="M71.0724 29.8468H70.4908C69.2942 29.8308 68.1521 29.3443 67.3116 28.4924C66.4711 27.6406 65.9999 26.492 66 25.2953V20.4909C66.0027 19.3007 66.4767 18.16 67.3183 17.3183C68.1599 16.4767 69.3006 16.0027 70.4908 16.0001H71.0724C72.263 16.0014 73.4045 16.475 74.2464 17.3169C75.0883 18.1588 75.5619 19.3003 75.5632 20.4909V25.3003C75.562 26.4961 75.0902 27.6434 74.2499 28.4942C73.4095 29.345 72.2681 29.8308 71.0724 29.8468ZM72.9234 20.4909C72.9207 20.0008 72.7248 19.5316 72.3783 19.185C72.0317 18.8385 71.5625 18.6426 71.0724 18.6399H70.4908C70.0012 18.6439 69.5327 18.8402 69.1864 19.1865C68.8401 19.5327 68.6438 20.0012 68.6399 20.4909V25.3003C68.6411 25.7937 68.8356 26.2669 69.1816 26.6186C69.5276 26.9702 69.9976 27.1724 70.4908 27.1816H71.0724C71.5657 27.1724 72.0357 26.9702 72.3817 26.6186C72.7277 26.2669 72.9221 25.7937 72.9234 25.3003V20.4909Z" fill="#00B9FF"/>
<path id="logo-b" class="logo-b" d="M86.775 24.2909C86.775 23.738 86.5793 23.2693 86.1878 22.8849C85.7964 22.5006 85.3239 22.3084 84.7705 22.3084H81.8954V27.9525H84.7705C85.3239 27.9525 85.7964 27.7637 86.1878 27.3861C86.5793 27.0084 86.775 26.5432 86.775 25.9902V24.2909ZM86.4713 15.7742C86.4713 15.2348 86.2789 14.7728 85.8942 14.3885C85.5095 14.0041 85.0337 13.8119 84.4668 13.8119H81.8954V19.4762H84.4668C85.0337 19.4762 85.5095 19.2773 85.8942 18.8795C86.2789 18.4816 86.4713 18.013 86.4713 17.4735V15.7742ZM84.7705 30.8049H79.8504C79.6209 30.8049 79.4218 30.724 79.2531 30.5621C79.0844 30.4003 79 30.1912 79 29.935V11.8092C79 11.5799 79.0844 11.3877 79.2531 11.2327C79.4218 11.0776 79.6209 11 79.8504 11H84.4668C85.1417 11 85.7761 11.1214 86.37 11.3641C86.964 11.6069 87.4836 11.9441 87.9291 12.3756C88.3745 12.8072 88.7187 13.3129 88.9617 13.8929C89.2182 14.4863 89.3464 15.1134 89.3464 15.7742V17.4735C89.3464 18.1074 89.235 18.7008 89.0123 19.2537C88.7896 19.8067 88.4825 20.2989 88.0911 20.7305C88.5635 21.1755 88.9448 21.7049 89.235 22.3185C89.5252 22.9322 89.6704 23.5896 89.6704 24.2909V25.9902C89.6704 26.651 89.5421 27.2714 89.2857 27.8513C89.0292 28.4313 88.6782 28.9404 88.2328 29.3787C87.7873 29.817 87.2677 30.1643 86.6737 30.4205C86.0798 30.6767 85.4454 30.8049 84.7705 30.8049Z" fill="black"/>
<path id="logo-a2" class="logo-a2" d="M101.826 30.5585H101.28C100.958 30.5559 100.641 30.4897 100.345 30.3638C100.049 30.238 99.7805 30.055 99.5555 29.8252C98.6512 30.459 97.5796 30.811 96.4757 30.8367H95.9699C95.4623 30.8584 94.9555 30.7782 94.4793 30.601C94.0031 30.4238 93.5672 30.1531 93.1972 29.8048C92.8273 29.4565 92.5308 29.0377 92.3252 28.5731C92.1195 28.1085 92.009 27.6074 92 27.0994V26.5633C92 23.9487 94.0886 23.1396 95.8384 22.6187C96.2835 22.4872 98.9183 22.113 98.9183 21.1319C98.9183 20.1507 98.2406 19.6147 97.0674 19.6147H96.7791C96.5347 19.6167 96.2931 19.6668 96.068 19.7621C95.843 19.8575 95.639 19.9963 95.4675 20.1705C95.2961 20.3447 95.1607 20.551 95.069 20.7776C94.9774 21.0041 94.9312 21.2465 94.9332 21.4909C94.9332 21.5972 94.9123 21.7024 94.8716 21.8006C94.8309 21.8987 94.7713 21.9879 94.6962 22.0631C94.6211 22.1382 94.5319 22.1978 94.4337 22.2385C94.3355 22.2791 94.2303 22.3001 94.124 22.3001H93.0822C92.9758 22.3007 92.8703 22.2803 92.7718 22.2398C92.6733 22.1994 92.5839 22.1398 92.5086 22.0646C92.4333 21.9893 92.3737 21.8998 92.3333 21.8014C92.2929 21.7029 92.2724 21.5974 92.2731 21.4909C92.2751 20.8992 92.3936 20.3136 92.6219 19.7677C92.8502 19.2218 93.1838 18.7261 93.6036 18.3091C94.0234 17.8921 94.5213 17.5619 95.0687 17.3373C95.6162 17.1127 96.2025 16.9981 96.7943 17.0001H97.0775C99.4038 17.0001 101.573 18.6133 101.573 21.2583V27.6304C101.577 27.7024 101.609 27.7701 101.662 27.8191C101.715 27.8682 101.784 27.8948 101.857 27.8934C102.067 27.8987 102.267 27.9864 102.414 28.1377C102.56 28.2891 102.642 28.4919 102.64 28.7025V29.7443C102.641 29.8514 102.621 29.9576 102.58 30.0567C102.539 30.1558 102.479 30.2458 102.403 30.3216C102.328 30.3973 102.238 30.4573 102.139 30.4979C102.04 30.5386 101.933 30.5592 101.826 30.5585ZM98.9031 23.9841C97.6894 24.5809 96.7892 24.6112 95.7929 25.0512C95.4718 25.1561 95.189 25.3538 94.9802 25.6194C94.7714 25.8849 94.6459 26.2063 94.6197 26.5431V26.9477C94.625 27.1159 94.664 27.2813 94.7343 27.4342C94.8047 27.5871 94.905 27.7243 95.0293 27.8378C95.1537 27.9512 95.2999 28.0379 95.4591 28.0927C95.6182 28.1475 95.7869 28.1692 95.9548 28.1564H96.4605C97.7653 28.1564 98.8829 27.3978 98.8829 26.2751L98.9031 23.9841Z" fill="black"/>
<path id="logo-n" class="logo-n" d="M113.764 30.5689H112.717C112.504 30.5676 112.299 30.4817 112.148 30.3301C111.998 30.1785 111.913 29.9735 111.913 29.7598V21.5013C111.914 21.2567 111.866 21.0145 111.772 20.7886C111.679 20.5628 111.541 20.3578 111.367 20.1856C111.194 20.0134 110.988 19.8774 110.761 19.7855C110.534 19.6936 110.292 19.6477 110.047 19.6503H109.541C109.048 19.6516 108.575 19.846 108.223 20.192C107.871 20.538 107.669 21.008 107.66 21.5013V29.7547C107.665 29.8606 107.649 29.9664 107.611 30.0655C107.574 30.1647 107.516 30.2552 107.443 30.3312C107.37 30.4069 107.283 30.4666 107.186 30.5066C107.09 30.5467 106.986 30.5662 106.881 30.5639H105.809C105.595 30.5639 105.389 30.4786 105.237 30.3269C105.085 30.1751 105 29.9693 105 29.7547V18.0523C105.013 17.8441 105.103 17.6482 105.252 17.5032C105.402 17.3581 105.601 17.2743 105.809 17.2684H106.866C107.082 17.2701 107.288 17.3553 107.443 17.5061C108.084 17.1659 108.8 16.992 109.526 17.0003H110.032C111.227 16.999 112.373 17.4716 113.22 18.3145C114.066 19.1573 114.544 20.3016 114.548 21.4962V29.7547C114.551 29.8613 114.533 29.9674 114.495 30.0668C114.456 30.1661 114.397 30.2565 114.323 30.3326C114.248 30.4087 114.159 30.4689 114.06 30.5095C113.961 30.5501 113.856 30.5703 113.749 30.5689H113.764Z" fill="black"/>
<path id="logo-k" class="logo-k" d="M127.664 30.6006H126.279C126.048 30.5685 125.835 30.4578 125.677 30.2871L121.343 24.8809L120.635 25.5586V29.7864C120.639 29.8921 120.622 29.9976 120.584 30.0966C120.547 30.1956 120.49 30.2862 120.417 30.3629C120.344 30.4384 120.256 30.4981 120.158 30.5381C120.061 30.5781 119.956 30.5977 119.851 30.5956H118.784C118.574 30.589 118.374 30.5008 118.228 30.3498C118.082 30.1988 118 29.9967 118 29.7864V12.7435C118.012 12.5431 118.099 12.3547 118.245 12.2166C118.39 12.0785 118.583 12.001 118.784 12.0001H119.851C120.056 11.9982 120.254 12.0762 120.402 12.2176C120.545 12.3559 120.629 12.5446 120.635 12.7435V21.796L124.923 17.5378C125.08 17.3946 125.283 17.3121 125.495 17.3051H127.012C127.176 17.2891 127.342 17.3267 127.483 17.4125C127.624 17.4982 127.733 17.6274 127.795 17.7806C127.856 17.9339 127.867 18.103 127.824 18.2625C127.781 18.4221 127.688 18.5635 127.558 18.6655L123.249 22.9743L128.307 29.2908C128.414 29.4049 128.484 29.5487 128.508 29.7034C128.532 29.858 128.509 30.0164 128.442 30.1578C128.375 30.2992 128.267 30.4171 128.132 30.4961C127.997 30.5751 127.841 30.6115 127.685 30.6006H127.664Z" fill="black"/>
</g>
</g>
</svg>
