<svg width="30" height="28" viewBox="0 0 30 28" fill="none" xmlns="http://www.w3.org/2000/svg">
<path id="Vector" d="M17.7573 4.73981V5.62441H12.3136V4.73981C12.3136 4.37689 12.3816 4.02531 12.5177 3.68508C12.6538 3.34484 12.8579 3.04997 13.1301 2.80047C13.3796 2.55096 13.6688 2.36383 13.9977 2.23908C14.3266 2.11433 14.6725 2.05195 15.0354 2.05195C15.3983 2.05195 15.7442 2.11433 16.0731 2.23908C16.402 2.36383 16.7026 2.55096 16.9748 2.80047C17.2243 3.04997 17.4171 3.34484 17.5532 3.68508C17.6893 4.02531 17.7573 4.37689 17.7573 4.73981ZM10.5103 4.73981V5.62441H10.068C9.88655 5.62441 9.71076 5.65844 9.54064 5.72648C9.37052 5.79453 9.21742 5.8966 9.08132 6.0327C8.96791 6.16879 8.87718 6.31622 8.80914 6.475C8.74109 6.63378 8.69573 6.80389 8.67304 6.98535V13.3818C8.69573 13.5632 8.74109 13.739 8.80914 13.9091C8.87718 14.0792 8.96791 14.2323 9.08132 14.3684C9.21742 14.4818 9.37052 14.5726 9.54064 14.6406C9.71076 14.7087 9.88655 14.7427 10.068 14.7427H20.0369C20.1276 14.7427 20.2183 14.737 20.3091 14.7257C20.3998 14.7143 20.4792 14.686 20.5472 14.6406C20.638 14.5953 20.723 14.5499 20.8024 14.5045C20.8818 14.4592 20.9442 14.4025 20.9895 14.3344C21.0576 14.2664 21.12 14.1926 21.1767 14.1133C21.2334 14.0339 21.2731 13.9602 21.2957 13.8921C21.3184 13.8014 21.3411 13.7107 21.3638 13.6199C21.3865 13.5292 21.3978 13.4385 21.3978 13.3477V6.98535C21.3978 6.80389 21.3638 6.63378 21.2957 6.475C21.2277 6.31622 21.1256 6.16879 20.9895 6.0327C20.8534 5.8966 20.706 5.79453 20.5472 5.72648C20.3884 5.65844 20.2183 5.62441 20.0369 5.62441H19.5605V4.73981C19.5605 4.12738 19.4471 3.54331 19.2203 2.9876C18.9935 2.43188 18.6646 1.93854 18.2336 1.50758C17.8027 1.0993 17.3093 0.787415 16.7536 0.571934C16.1979 0.356451 15.6252 0.248711 15.0354 0.248711C14.4457 0.248711 13.873 0.356451 13.3172 0.571934C12.7615 0.787415 12.2682 1.0993 11.8372 1.50758C11.4063 1.93854 11.0774 2.43188 10.8505 2.9876C10.6237 3.54331 10.5103 4.12738 10.5103 4.73981ZM19.5605 12.9395H10.5103V7.4957H19.5605V12.9395ZM14.7632 11.5445H15.0354C15.1262 11.5445 15.2226 11.5332 15.3246 11.5105C15.4267 11.4878 15.5231 11.4538 15.6138 11.4084C15.7272 11.363 15.8406 11.3007 15.9541 11.2213C16.0675 11.1419 16.1582 11.0455 16.2262 10.9321C16.2943 10.8187 16.351 10.6939 16.3964 10.5578C16.4417 10.4217 16.4644 10.297 16.4644 10.1836C16.4644 10.0928 16.4531 10.0021 16.4304 9.91137C16.4077 9.82064 16.3737 9.72991 16.3283 9.63918C16.3056 9.57113 16.2659 9.49742 16.2092 9.41803C16.1525 9.33864 16.1015 9.26492 16.0561 9.19687C15.9654 9.12883 15.8747 9.06645 15.7839 9.00975C15.6932 8.95304 15.5911 8.91335 15.4777 8.89066C15.3643 8.8453 15.2509 8.82262 15.1375 8.82262C15.0241 8.82262 14.922 8.83396 14.8313 8.85664C14.7179 8.87932 14.6101 8.91335 14.5081 8.95871C14.406 9.00408 14.3096 9.06078 14.2189 9.12883C14.1281 9.19687 14.0487 9.27626 13.9807 9.36699C13.9127 9.45772 13.8559 9.54845 13.8106 9.63918C13.7652 9.77527 13.7312 9.9057 13.7085 10.0304C13.6858 10.1552 13.6858 10.2856 13.7085 10.4217C13.7312 10.5578 13.7766 10.6826 13.8446 10.796C13.9127 10.9094 13.992 11.0228 14.0828 11.1362C14.1735 11.2269 14.2756 11.3063 14.389 11.3744C14.5024 11.4424 14.6271 11.4991 14.7632 11.5445ZM14.8653 9.70723C14.888 9.70723 14.9163 9.70723 14.9504 9.70723C14.9844 9.70723 15.0127 9.70723 15.0354 9.70723L15.1035 9.63918C15.1488 9.63918 15.1942 9.65052 15.2396 9.6732C15.2849 9.69588 15.319 9.71857 15.3416 9.74125C15.3643 9.78662 15.387 9.82631 15.4097 9.86033C15.4324 9.89436 15.4437 9.93405 15.4437 9.97941C15.4664 10.0248 15.4777 10.0701 15.4777 10.1155C15.4777 10.1609 15.4664 10.2062 15.4437 10.2516C15.4437 10.297 15.4267 10.3367 15.3927 10.3707C15.3586 10.4047 15.319 10.4331 15.2736 10.4557C15.2509 10.4784 15.2112 10.5011 15.1545 10.5238C15.0978 10.5465 15.0468 10.5578 15.0014 10.5578C14.956 10.5578 14.9107 10.5465 14.8653 10.5238C14.8199 10.5011 14.7746 10.4784 14.7292 10.4557C14.6839 10.4104 14.6498 10.3593 14.6271 10.3026C14.6045 10.2459 14.5931 10.1836 14.5931 10.1155C14.5931 10.0928 14.5988 10.0588 14.6101 10.0134C14.6215 9.96807 14.6385 9.92271 14.6612 9.87734C14.6839 9.85466 14.7122 9.82631 14.7462 9.79229C14.7802 9.75826 14.8199 9.72991 14.8653 9.70723ZM5.10058 8.34629C5.10058 8.23288 5.12326 8.11947 5.16863 8.00605C5.21399 7.89264 5.28204 7.79057 5.37277 7.69984C5.44082 7.6318 5.53155 7.58076 5.64496 7.54674C5.75837 7.51271 5.86044 7.4957 5.95117 7.4957C6.08726 7.4957 6.21201 7.47302 6.32543 7.42766C6.43884 7.38229 6.54091 7.31425 6.63164 7.22352C6.72237 7.13279 6.79041 7.03072 6.83578 6.9173C6.88114 6.80389 6.90382 6.69048 6.90382 6.57707C6.90382 6.44098 6.88114 6.31622 6.83578 6.20281C6.79041 6.0894 6.72237 5.98733 6.63164 5.8966C6.54091 5.80587 6.43884 5.73783 6.32543 5.69246C6.21201 5.6471 6.08726 5.62441 5.95117 5.62441C5.61093 5.62441 5.2707 5.69246 4.93046 5.82855C4.59023 5.96465 4.29536 6.16879 4.04586 6.44098C3.79635 6.69048 3.60355 6.97968 3.46746 7.30857C3.33136 7.63747 3.26332 7.98337 3.26332 8.34629V18.145L0.745582 23.5888C0.654853 23.7929 0.592477 24.0027 0.558453 24.2182C0.52443 24.4337 0.518759 24.6549 0.541441 24.8817C0.541441 25.1085 0.581135 25.3297 0.660523 25.5451C0.739911 25.7606 0.836311 25.9704 0.949723 26.1746C1.08582 26.356 1.23892 26.5205 1.40904 26.6679C1.57916 26.8153 1.75494 26.9458 1.9364 27.0592C2.14054 27.1726 2.35602 27.2576 2.58285 27.3144C2.80967 27.3711 3.03649 27.3994 3.26332 27.3994H26.8416C27.0684 27.3994 27.2895 27.3711 27.505 27.3144C27.7205 27.2576 27.9303 27.1726 28.1345 27.0592C28.3386 26.9458 28.5201 26.8153 28.6788 26.6679C28.8376 26.5205 28.985 26.356 29.1211 26.1746C29.2345 25.9704 29.3309 25.7606 29.4103 25.5451C29.4897 25.3297 29.5294 25.1085 29.5294 24.8817C29.5521 24.6549 29.5464 24.428 29.5124 24.2012C29.4784 23.9744 29.4047 23.7589 29.2912 23.5548L26.8416 18.145V8.41434C26.8416 8.05142 26.7678 7.69984 26.6204 7.35961C26.473 7.01937 26.2745 6.7245 26.025 6.475C25.7755 6.22549 25.4806 6.0327 25.1404 5.8966C24.8002 5.76051 24.4599 5.69246 24.1197 5.69246C23.9836 5.69246 23.8588 5.71514 23.7454 5.76051C23.632 5.80587 23.5413 5.86258 23.4732 5.93062C23.3825 6.02135 23.3145 6.12342 23.2691 6.23684C23.2237 6.35025 23.2011 6.46366 23.2011 6.57707C23.2011 6.71316 23.2237 6.83225 23.2691 6.93432C23.3145 7.03639 23.3825 7.13279 23.4732 7.22352C23.5413 7.31425 23.632 7.38229 23.7454 7.42766C23.8588 7.47302 23.9836 7.4957 24.1197 7.4957C24.2104 7.4957 24.3125 7.51271 24.4259 7.54674C24.5393 7.58076 24.63 7.6318 24.6981 7.69984C24.7434 7.74521 24.7888 7.79057 24.8342 7.83594C24.8795 7.8813 24.9136 7.93801 24.9362 8.00605C24.9589 8.05142 24.9816 8.10246 25.0043 8.15916C25.027 8.21587 25.0383 8.27824 25.0383 8.34629V17.4305H5.10058V8.34629ZM4.72632 19.2338H25.3445L27.6581 24.3033C27.6808 24.3713 27.6978 24.445 27.7092 24.5244C27.7205 24.6038 27.7262 24.6775 27.7262 24.7456C27.7262 24.8136 27.7148 24.8874 27.6921 24.9667C27.6695 25.0461 27.6354 25.1198 27.5901 25.1879C27.5447 25.2333 27.4937 25.2843 27.437 25.341C27.3803 25.3977 27.3179 25.4374 27.2498 25.4601C27.1818 25.5054 27.1137 25.5395 27.0457 25.5621C26.9777 25.5848 26.9096 25.5962 26.8416 25.5962H3.26332C3.17259 25.5962 3.0932 25.5848 3.02515 25.5621C2.95711 25.5395 2.88906 25.5054 2.82101 25.4601C2.75296 25.4374 2.69059 25.3977 2.63388 25.341C2.57718 25.2843 2.52614 25.2333 2.48078 25.1879C2.43541 25.1198 2.40139 25.0461 2.37871 24.9667C2.35602 24.8874 2.34468 24.8136 2.34468 24.7456C2.34468 24.6775 2.35035 24.6095 2.3617 24.5414C2.37304 24.4734 2.39005 24.4054 2.41273 24.3373L4.72632 19.2338ZM13.2322 23.7589H16.8387C16.9748 23.7589 17.0938 23.7362 17.1959 23.6909C17.298 23.6455 17.3944 23.5774 17.4851 23.4867C17.5758 23.4187 17.6439 23.3279 17.6893 23.2145C17.7346 23.1011 17.7573 22.9877 17.7573 22.8743C17.7573 22.7382 17.7346 22.6191 17.6893 22.5171C17.6439 22.415 17.5758 22.3186 17.4851 22.2279C17.3944 22.1371 17.298 22.0691 17.1959 22.0237C17.0938 21.9783 16.9748 21.9557 16.8387 21.9557H13.2322C13.0961 21.9557 12.977 21.9783 12.8749 22.0237C12.7729 22.0691 12.6765 22.1371 12.5857 22.2279C12.495 22.3186 12.427 22.415 12.3816 22.5171C12.3362 22.6191 12.3136 22.7382 12.3136 22.8743C12.3136 22.9877 12.3362 23.1011 12.3816 23.2145C12.427 23.3279 12.495 23.4187 12.5857 23.4867C12.6765 23.5774 12.7729 23.6455 12.8749 23.6909C12.977 23.7362 13.0961 23.7589 13.2322 23.7589Z" fill="#00B9FF"/>
</svg>
