<svg width="50" height="50" viewBox="0 0 24 28" fill="none" xmlns="http://www.w3.org/2000/svg">
<path id="protege-bg" class="protege-bg" d="M12.4684 0.78587C13.3183 0.78587 14.1682 0.827328 15.0181 0.910244C15.8472 0.99316 16.6764 1.12272 17.5056 1.29892C18.3347 1.47511 19.1535 1.68759 19.962 1.93634C20.7497 2.20582 21.5374 2.50639 22.3251 2.83806C22.5531 2.9417 22.7552 3.07644 22.9314 3.24228C23.1076 3.40811 23.2579 3.59467 23.3823 3.80196C23.5067 4.00925 23.6051 4.23209 23.6777 4.47048C23.7502 4.70886 23.7865 4.95243 23.7865 5.20118V13.5343C23.7658 14.9439 23.5481 16.3224 23.1335 17.6698C22.719 19.0172 22.1075 20.2817 21.299 21.4632C20.5113 22.624 19.5629 23.6398 18.4539 24.5104C17.3449 25.381 16.1271 26.0755 14.8004 26.5937L13.7121 27.029C13.2146 27.2156 12.7016 27.3088 12.173 27.3088C11.6444 27.3088 11.1314 27.2156 10.6339 27.029L9.54558 26.5937C8.23964 26.0755 7.03216 25.3758 5.92315 24.4949C4.81414 23.6139 3.85542 22.593 3.04698 21.4321C2.25927 20.2713 1.65295 19.0172 1.228 17.6698C0.80305 16.3224 0.590576 14.9439 0.590576 13.5343V5.20118C0.590576 4.95243 0.626852 4.70886 0.699404 4.47048C0.771956 4.23209 0.880785 3.99889 1.02589 3.77087C1.17099 3.56358 1.34201 3.3822 1.53894 3.22673C1.73586 3.07126 1.94834 2.9417 2.17636 2.83806C2.94334 2.50639 3.73105 2.20582 4.53948 1.93634C5.34792 1.68759 6.16672 1.47511 6.99589 1.29892C7.82506 1.12272 8.65422 0.99316 9.48339 0.910244C10.3333 0.827328 11.1832 0.78587 12.0331 0.78587H12.4684ZM2.61167 4.79696C2.57021 4.83842 2.5443 4.89024 2.53394 4.95243C2.52357 5.01462 2.51839 5.07681 2.51839 5.13899L2.58058 13.5654C2.60131 14.7884 2.79305 15.9803 3.15581 17.1412C3.51857 18.302 4.04198 19.3903 4.72605 20.406C5.41011 21.401 6.22891 22.2768 7.18245 23.0334C8.13599 23.7901 9.18282 24.3964 10.3229 24.8524L11.4112 25.2877C11.6807 25.3914 11.9605 25.4432 12.2507 25.4432C12.5409 25.4432 12.8208 25.3914 13.0903 25.2877L14.1785 24.8524C15.3394 24.3964 16.3966 23.7849 17.3501 23.0179C18.3036 22.2509 19.1225 21.3699 19.8065 20.3749C20.5113 19.3592 21.0399 18.2657 21.3923 17.0945C21.7447 15.9233 21.9209 14.7159 21.9209 13.4721V5.17009C21.9209 5.08717 21.9105 5.01462 21.8898 4.95243C21.8691 4.89024 21.8483 4.83842 21.8276 4.79696C21.7861 4.73478 21.7395 4.68295 21.6877 4.64149C21.6359 4.60004 21.5892 4.56894 21.5478 4.54821C20.0967 3.90561 18.6042 3.42884 17.0703 3.1179C15.5363 2.80696 13.992 2.65149 12.4373 2.65149H12.002C10.4266 2.65149 8.87188 2.81215 7.33792 3.13345C5.80396 3.45475 4.32183 3.92634 2.89151 4.54821C2.82933 4.56894 2.77232 4.60004 2.7205 4.64149C2.66868 4.68295 2.6324 4.73478 2.61167 4.79696ZM9.48339 14.1873H8.61276C8.38474 14.1873 8.1619 14.1406 7.94425 14.0474C7.72659 13.9541 7.53485 13.8245 7.36901 13.6587C7.20318 13.4928 7.07362 13.3011 6.98034 13.0834C6.88706 12.8658 6.84042 12.6326 6.84042 12.3838C6.84042 12.2595 6.85597 12.1299 6.88706 11.9952C6.91815 11.8604 6.9648 11.7309 7.02698 11.6065L9.48339 6.69368C9.56631 6.52785 9.66477 6.38274 9.77878 6.25837C9.89279 6.13399 10.012 6.03035 10.1364 5.94743C10.2815 5.86452 10.4317 5.80233 10.5872 5.76087C10.7427 5.71941 10.9033 5.69868 11.0692 5.69868H14.1785C14.4066 5.69868 14.6294 5.74532 14.8471 5.8386C15.0647 5.93188 15.2461 6.06144 15.3912 6.22728C15.557 6.39311 15.6866 6.58485 15.7799 6.80251C15.8732 7.02017 15.9198 7.243 15.9198 7.47103C15.9198 7.61613 15.9042 7.75605 15.8732 7.89079C15.8421 8.02553 15.8058 8.15509 15.7643 8.27946L14.5828 10.6115H15.2979C15.4223 10.6115 15.5415 10.6219 15.6555 10.6426C15.7695 10.6633 15.8887 10.6944 16.0131 10.7359C16.1167 10.7773 16.2204 10.8343 16.324 10.9069C16.4277 10.9794 16.5209 11.0572 16.6039 11.1401C16.6868 11.223 16.7593 11.3111 16.8215 11.4044C16.8837 11.4977 16.9355 11.6065 16.977 11.7309C17.0184 11.8345 17.0495 11.9433 17.0703 12.0574C17.091 12.1714 17.1014 12.2906 17.1014 12.4149C17.1014 12.6222 17.0651 12.8295 16.9925 13.0368C16.92 13.2441 16.8111 13.4307 16.666 13.5965L11.3801 19.4421C11.3179 19.5043 11.2506 19.5665 11.178 19.6287C11.1054 19.6909 11.0277 19.7427 10.9448 19.7842C10.8619 19.8049 10.779 19.8308 10.696 19.8619C10.6131 19.893 10.5302 19.9085 10.4473 19.9085H10.3229C10.2193 19.9085 10.1208 19.8982 10.0275 19.8774C9.93425 19.8567 9.84615 19.8256 9.76323 19.7842C9.65959 19.7427 9.57149 19.6909 9.49894 19.6287C9.42638 19.5665 9.35901 19.5043 9.29683 19.4421C9.23464 19.3592 9.17763 19.2763 9.12581 19.1934C9.07399 19.1105 9.03771 19.0275 9.01698 18.9446C8.97552 18.841 8.95479 18.7425 8.95479 18.6492C8.95479 18.5559 8.95479 18.4575 8.95479 18.3538L9.48339 14.1873ZM12.0642 11.6065C12.0642 11.5236 12.0745 11.4458 12.0953 11.3733C12.116 11.3007 12.1471 11.223 12.1885 11.1401L13.9609 7.5954H11.1625L8.83042 12.2906H10.5717C10.6339 12.2906 10.7012 12.2957 10.7738 12.3061C10.8463 12.3165 10.9137 12.3424 10.9759 12.3838C11.0381 12.4046 11.0951 12.4357 11.1469 12.4771C11.1987 12.5186 11.2454 12.56 11.2868 12.6015C11.3283 12.6637 11.3646 12.7259 11.3957 12.7881C11.4267 12.8502 11.4527 12.9124 11.4734 12.9746C11.4941 13.0368 11.5097 13.099 11.52 13.1612C11.5304 13.2234 11.5356 13.2959 11.5356 13.3788L11.0692 16.9235L14.987 12.5393H13.0281C12.9452 12.5393 12.8674 12.5289 12.7949 12.5082C12.7223 12.4875 12.6446 12.4564 12.5617 12.4149C12.4995 12.3735 12.4373 12.3217 12.3751 12.2595C12.3129 12.1973 12.2611 12.1351 12.2196 12.0729C12.1782 12.0107 12.1471 11.9382 12.1264 11.8552C12.1056 11.7723 12.0849 11.6894 12.0642 11.6065Z" fill="#D5B85D"/>
</svg>
