<svg width="28" height="28" viewBox="0 0 28 28" fill="none" xmlns="http://www.w3.org/2000/svg">
<path id="segurança" class="segurança" d="M23.8587 7.3156H25.1025C25.3719 7.3156 25.6311 7.36742 25.8798 7.47106C26.1286 7.57471 26.3462 7.71981 26.5328 7.90638C26.7193 8.11367 26.8644 8.34169 26.9681 8.59044C27.0717 8.83919 27.1236 9.0983 27.1236 9.36778V23.5154C27.1236 23.7849 27.0717 24.0492 26.9681 24.3083C26.8644 24.5674 26.7193 24.7903 26.5328 24.9768C26.3462 25.1634 26.1286 25.3085 25.8798 25.4122C25.6311 25.5158 25.3719 25.5676 25.1025 25.5676H23.8587V26.2517C23.8587 26.3761 23.8276 26.4901 23.7654 26.5937C23.7032 26.6974 23.6307 26.7906 23.5478 26.8736C23.4649 26.9565 23.3664 27.0187 23.2524 27.0601C23.1384 27.1016 23.0192 27.1223 22.8948 27.1223C22.7912 27.1223 22.6823 27.1016 22.5683 27.0601C22.4543 27.0187 22.3558 26.9565 22.2729 26.8736C22.19 26.7906 22.1175 26.6974 22.0553 26.5937C21.9931 26.4901 21.962 26.3761 21.962 26.2517V25.5676H17.329V26.2517C17.3083 26.3761 17.272 26.4901 17.2202 26.5937C17.1684 26.6974 17.101 26.7906 17.0181 26.8736C16.9352 26.9565 16.8367 27.0187 16.7227 27.0601C16.6087 27.1016 16.4895 27.1223 16.3651 27.1223C16.2407 27.1223 16.1267 27.1016 16.0231 27.0601C15.9194 27.0187 15.8262 26.9565 15.7432 26.8736C15.6396 26.7906 15.5619 26.6974 15.51 26.5937C15.4582 26.4901 15.4323 26.3761 15.4323 26.2517V25.5676H14.1886C13.9191 25.5676 13.66 25.5158 13.4112 25.4122C13.1625 25.3085 12.9448 25.1634 12.7582 24.9768C12.5717 24.7903 12.4214 24.5726 12.3074 24.3239C12.1934 24.0751 12.1364 23.8056 12.1364 23.5154V9.36778C12.1364 9.0983 12.1882 8.83401 12.2918 8.57489C12.3955 8.31578 12.551 8.09294 12.7582 7.90638C12.9448 7.71981 13.1625 7.57471 13.4112 7.47106C13.66 7.36742 13.9191 7.3156 14.1886 7.3156H15.4323V3.36669C15.4323 3.01429 15.4945 2.68263 15.6189 2.37169C15.7432 2.06075 15.9298 1.78091 16.1786 1.53216C16.4273 1.28341 16.7071 1.09685 17.0181 0.972471C17.329 0.848095 17.6607 0.785908 18.0131 0.785908H21.2779C21.6303 0.785908 21.962 0.848095 22.2729 0.972471C22.5839 1.09685 22.8637 1.28341 23.1125 1.53216C23.3612 1.78091 23.5478 2.06075 23.6721 2.37169C23.7965 2.68263 23.8587 3.01429 23.8587 3.36669V7.3156ZM17.329 3.36669V7.3156H21.962V3.36669C21.962 3.28377 21.9464 3.20086 21.9154 3.11794C21.8843 3.03502 21.8273 2.95211 21.7443 2.86919C21.6821 2.807 21.6096 2.76036 21.5267 2.72927C21.4438 2.69817 21.3608 2.68263 21.2779 2.68263H18.0131C17.9302 2.68263 17.8421 2.69817 17.7488 2.72927C17.6555 2.76036 17.5778 2.807 17.5156 2.86919C17.4534 2.93138 17.4068 3.00911 17.3757 3.10239C17.3446 3.19567 17.329 3.28377 17.329 3.36669ZM25.2268 23.5154V9.36778C25.2268 9.34705 25.2217 9.32632 25.2113 9.3056C25.2009 9.28487 25.1957 9.2745 25.1957 9.2745C25.175 9.25377 25.1595 9.23823 25.1491 9.22786C25.1387 9.2175 25.1232 9.21231 25.1025 9.21231H14.1886C14.1678 9.21231 14.1523 9.2175 14.1419 9.22786C14.1315 9.23823 14.116 9.25377 14.0953 9.2745C14.0745 9.2745 14.0642 9.28487 14.0642 9.3056C14.0642 9.32632 14.0642 9.34705 14.0642 9.36778V23.5154C14.0642 23.5362 14.0694 23.5569 14.0797 23.5776C14.0901 23.5984 14.0953 23.6087 14.0953 23.6087C14.116 23.6294 14.1315 23.645 14.1419 23.6554C14.1523 23.6657 14.1678 23.6709 14.1886 23.6709H25.1025C25.1232 23.6709 25.1387 23.6657 25.1491 23.6554C25.1595 23.645 25.175 23.6294 25.1957 23.6087C25.1957 23.6087 25.2009 23.5984 25.2113 23.5776C25.2217 23.5569 25.2268 23.5362 25.2268 23.5154ZM16.5206 13.3167C16.6035 13.2338 16.702 13.1664 16.816 13.1146C16.93 13.0628 17.0492 13.0368 17.1736 13.0368C17.2357 13.0368 17.2979 13.042 17.3601 13.0524C17.4223 13.0628 17.4845 13.0783 17.5467 13.099C17.6089 13.1198 17.6659 13.1509 17.7177 13.1923C17.7695 13.2338 17.8162 13.2752 17.8576 13.3167C17.8991 13.3581 17.9405 13.4048 17.982 13.4566C18.0235 13.5084 18.0545 13.5654 18.0753 13.6276C18.096 13.6691 18.1115 13.7209 18.1219 13.7831C18.1323 13.8453 18.1375 13.9075 18.1375 13.9697V19.722C18.1375 19.8256 18.1064 19.9345 18.0442 20.0485C17.982 20.1625 17.9094 20.2506 17.8265 20.3128C17.7436 20.3957 17.6451 20.4579 17.5311 20.4993C17.4171 20.5408 17.2979 20.5615 17.1736 20.5615C17.0699 20.5615 16.9611 20.5408 16.8471 20.4993C16.7331 20.4579 16.6346 20.3957 16.5517 20.3128C16.4688 20.2506 16.3962 20.1625 16.334 20.0485C16.2718 19.9345 16.2407 19.8256 16.2407 19.722V13.9697C16.2407 13.8453 16.2615 13.7261 16.3029 13.6121C16.3444 13.4981 16.4169 13.3996 16.5206 13.3167ZM22.0864 13.0368C22.0242 13.0368 21.962 13.042 21.8998 13.0524C21.8376 13.0628 21.7754 13.0783 21.7132 13.099C21.6718 13.1198 21.6251 13.1509 21.5733 13.1923C21.5215 13.2338 21.4645 13.2752 21.4023 13.3167C21.3608 13.3581 21.3246 13.4048 21.2935 13.4566C21.2624 13.5084 21.2365 13.5654 21.2157 13.6276C21.195 13.6691 21.1795 13.7209 21.1691 13.7831C21.1587 13.8453 21.1536 13.9075 21.1536 13.9697V19.722C21.1536 19.8256 21.1795 19.9345 21.2313 20.0485C21.2831 20.1625 21.3608 20.2506 21.4645 20.3128C21.5474 20.3957 21.6459 20.4579 21.7599 20.4993C21.8739 20.5408 21.9827 20.5615 22.0864 20.5615C22.2107 20.5615 22.3299 20.5408 22.4439 20.4993C22.558 20.4579 22.6564 20.3957 22.7393 20.3128C22.8223 20.2506 22.8896 20.1625 22.9414 20.0485C22.9933 19.9345 23.0295 19.8256 23.0503 19.722V13.9697C23.0503 13.9075 23.0451 13.8453 23.0347 13.7831C23.0244 13.7209 23.0088 13.6691 22.9881 13.6276C22.9466 13.5654 22.9104 13.5084 22.8793 13.4566C22.8482 13.4048 22.8119 13.3581 22.7704 13.3167C22.729 13.2752 22.6823 13.2338 22.6305 13.1923C22.5787 13.1509 22.5217 13.1198 22.4595 13.099C22.3973 13.0783 22.3351 13.0628 22.2729 13.0524C22.2107 13.042 22.1486 13.0368 22.0864 13.0368ZM6.57059 13.8453H9.83543C9.9598 13.866 10.0738 13.9023 10.1775 13.9541C10.2811 14.0059 10.3744 14.0733 10.4573 14.1562C10.5402 14.2391 10.6024 14.3376 10.6439 14.4516C10.6853 14.5656 10.7061 14.6848 10.7061 14.8092C10.7061 14.9336 10.6853 15.0476 10.6439 15.1512C10.6024 15.2549 10.5402 15.3481 10.4573 15.4311C10.3744 15.5347 10.2811 15.6124 10.1775 15.6643C10.0738 15.7161 9.9598 15.7524 9.83543 15.7731H6.57059C6.5084 15.7731 6.44103 15.7679 6.36848 15.7575C6.29592 15.7472 6.22855 15.7316 6.16637 15.7109C6.10418 15.6902 6.04199 15.6643 5.9798 15.6332C5.91762 15.6021 5.86579 15.5658 5.82434 15.5243C5.78288 15.4829 5.74142 15.4311 5.69996 15.3689C5.6585 15.3067 5.61704 15.2445 5.57559 15.1823C5.55486 15.1201 5.53931 15.0579 5.52895 14.9958C5.51858 14.9336 5.5134 14.8714 5.5134 14.8092C5.5134 14.747 5.51858 14.6796 5.52895 14.6071C5.53931 14.5345 5.55486 14.4672 5.57559 14.405C5.61704 14.3428 5.6585 14.2858 5.69996 14.234C5.74142 14.1821 5.78288 14.1355 5.82434 14.094C5.86579 14.0526 5.91762 14.0163 5.9798 13.9852C6.04199 13.9541 6.10418 13.9282 6.16637 13.9075C6.22855 13.8867 6.29592 13.8712 6.36848 13.8608C6.44103 13.8505 6.5084 13.8453 6.57059 13.8453ZM9.83543 18.7581H4.11418C3.9898 18.7788 3.87579 18.8151 3.77215 18.8669C3.6685 18.9187 3.57522 18.9861 3.4923 19.069C3.40939 19.1519 3.3472 19.2504 3.30574 19.3644C3.26428 19.4784 3.24355 19.5976 3.24355 19.722C3.24355 19.8256 3.26428 19.9345 3.30574 20.0485C3.3472 20.1625 3.40939 20.261 3.4923 20.3439C3.57522 20.4268 3.6685 20.4993 3.77215 20.5615C3.87579 20.6237 3.9898 20.6548 4.11418 20.6548H9.83543C9.9598 20.6548 10.0738 20.6237 10.1775 20.5615C10.2811 20.4993 10.3744 20.4268 10.4573 20.3439C10.5402 20.261 10.6024 20.1625 10.6439 20.0485C10.6853 19.9345 10.7061 19.8256 10.7061 19.722C10.7061 19.5976 10.6853 19.4784 10.6439 19.3644C10.6024 19.2504 10.5402 19.1519 10.4573 19.069C10.3744 18.9861 10.2811 18.9187 10.1775 18.8669C10.0738 18.8151 9.9598 18.7788 9.83543 18.7581ZM1.65777 23.6709H9.83543C9.9598 23.6709 10.0738 23.6968 10.1775 23.7486C10.2811 23.8005 10.3744 23.8782 10.4573 23.9818C10.5402 24.0648 10.6024 24.1632 10.6439 24.2772C10.6853 24.3912 10.7061 24.5001 10.7061 24.6037C10.7061 24.7281 10.6853 24.8473 10.6439 24.9613C10.6024 25.0753 10.5402 25.1738 10.4573 25.2567C10.3744 25.3396 10.2811 25.407 10.1775 25.4588C10.0738 25.5106 9.9598 25.5469 9.83543 25.5676H1.65777C1.59559 25.5676 1.52822 25.5676 1.45566 25.5676C1.38311 25.5676 1.31574 25.5573 1.25355 25.5365C1.19137 25.5158 1.13436 25.4847 1.08254 25.4433C1.03072 25.4018 0.973711 25.3603 0.911523 25.3189C0.870065 25.2774 0.828607 25.2308 0.787148 25.179C0.74569 25.1271 0.714596 25.0701 0.693867 25.0079C0.652409 24.9458 0.626497 24.8836 0.616133 24.8214C0.605768 24.7592 0.600586 24.6866 0.600586 24.6037C0.600586 24.5415 0.605768 24.4793 0.616133 24.4172C0.626497 24.355 0.652409 24.2928 0.693867 24.2306C0.714596 24.1684 0.74569 24.1114 0.787148 24.0596C0.828607 24.0078 0.870065 23.9508 0.911523 23.8886C0.973711 23.8471 1.03072 23.8108 1.08254 23.7797C1.13436 23.7486 1.19137 23.7227 1.25355 23.702C1.31574 23.6813 1.38311 23.6657 1.45566 23.6554C1.52822 23.645 1.59559 23.6502 1.65777 23.6709Z" fill="#D5B85D"/>
</svg>
