<svg width="25" height="35" viewBox="0 0 25 35" fill="none" xmlns="http://www.w3.org/2000/svg">
<path id="Vector" d="M13.3297 34.8379H3.61224C3.23849 34.8379 2.8881 34.7678 2.56107 34.6277C2.23404 34.4875 1.93037 34.2928 1.65005 34.0437C1.40089 33.7634 1.20623 33.4597 1.06607 33.1327C0.925913 32.8056 0.855835 32.4552 0.855835 32.0815V22.4107C0.855835 22.1304 0.894767 21.8579 0.972632 21.5931C1.0505 21.3284 1.16729 21.087 1.32302 20.869C1.47875 20.651 1.66563 20.4563 1.88365 20.285C2.10167 20.1137 2.33526 19.9813 2.58443 19.8879C2.8336 19.7945 3.09055 19.7322 3.35529 19.701C3.62003 19.6699 3.87698 19.6854 4.12615 19.7477C4.40646 19.7789 4.66341 19.8645 4.89701 20.0047C5.1306 20.1448 5.34084 20.3084 5.52771 20.4952L6.5088 21.4296C6.53995 21.4608 6.57888 21.4919 6.6256 21.523C6.67232 21.5542 6.72682 21.5698 6.78912 21.5698C6.85141 21.5698 6.9137 21.5542 6.97599 21.523C7.03828 21.4919 7.085 21.4608 7.11615 21.4296L16.3665 12.1793C16.6156 11.9301 16.9037 11.7355 17.2308 11.5953C17.5578 11.4552 17.9082 11.3851 18.2819 11.3851C18.6245 11.3851 18.9671 11.4552 19.3097 11.5953C19.6523 11.7355 19.9482 11.9301 20.1974 12.1793L21.1318 13.1137C21.1629 13.1448 21.2019 13.176 21.2486 13.2071C21.2953 13.2383 21.3342 13.2538 21.3654 13.2538C21.3965 13.2538 21.4354 13.2538 21.4822 13.2538C21.5289 13.2538 21.5678 13.2383 21.599 13.2071C21.6613 13.2071 21.708 13.1915 21.7391 13.1604C21.7703 13.1292 21.8014 13.0981 21.8326 13.067C21.8326 13.0358 21.8403 12.9969 21.8559 12.9502C21.8715 12.9034 21.8793 12.8645 21.8793 12.8334V3.16257C21.8793 3.13143 21.8793 3.10028 21.8793 3.06914C21.8793 3.03799 21.8637 3.00685 21.8326 2.9757C21.8326 2.94456 21.8248 2.9212 21.8092 2.90562C21.7936 2.89005 21.7703 2.86669 21.7391 2.83554C21.7391 2.8044 21.7235 2.78104 21.6924 2.76546C21.6613 2.74989 21.6301 2.74211 21.599 2.74211C21.5678 2.74211 21.5445 2.73432 21.5289 2.71875C21.5133 2.70317 21.49 2.69539 21.4588 2.69539L11.7413 2.64867C11.7102 2.64867 11.6712 2.65646 11.6245 2.67203C11.5778 2.6876 11.5389 2.71096 11.5077 2.74211C11.4766 2.77325 11.4454 2.8044 11.4143 2.83554C11.3831 2.86669 11.3676 2.89784 11.3676 2.92898C11.3364 2.96013 11.3208 2.99906 11.3208 3.04578C11.3208 3.0925 11.3208 3.13143 11.3208 3.16257C11.3208 3.22487 11.3364 3.27159 11.3676 3.30273C11.3987 3.33388 11.4143 3.36502 11.4143 3.39617L12.3954 4.37726C12.6445 4.62643 12.8314 4.91453 12.956 5.24156C13.0806 5.56859 13.1429 5.91898 13.1429 6.29273C13.1429 6.63534 13.0806 6.97015 12.956 7.29719C12.8314 7.62422 12.6445 7.91232 12.3954 8.16148C12.1773 8.4418 11.9438 8.70653 11.6946 8.9557C11.4454 9.20487 11.1807 9.43846 10.9004 9.65648C10.402 10.1548 9.83362 10.5441 9.19513 10.8245C8.55664 11.1048 7.87922 11.2916 7.16287 11.3851C6.88255 11.3851 6.60224 11.3617 6.32193 11.315C6.04162 11.2683 5.77688 11.1982 5.52771 11.1048C5.27854 11.0113 5.03716 10.8867 4.80357 10.731C4.56998 10.5753 4.35974 10.3884 4.17287 10.1704C4.04828 10.077 3.95485 9.95237 3.89255 9.79664C3.83026 9.64091 3.81469 9.48518 3.84583 9.32945C3.84583 9.26716 3.85362 9.19708 3.86919 9.11922C3.88477 9.04135 3.90813 8.97127 3.93927 8.90898C3.97042 8.84669 4.00156 8.7844 4.03271 8.72211C4.06386 8.65981 4.11057 8.59752 4.17287 8.53523C4.23516 8.47294 4.29745 8.41844 4.35974 8.37172C4.42203 8.325 4.48432 8.30164 4.54662 8.30164C4.64005 8.27049 4.7257 8.24713 4.80357 8.23156C4.88143 8.21599 4.95151 8.2082 5.0138 8.2082C5.16953 8.2082 5.31748 8.23935 5.45763 8.30164C5.59779 8.36393 5.73016 8.4418 5.85474 8.53523C5.91703 8.62867 5.9949 8.71432 6.08834 8.79218C6.18177 8.87005 6.29078 8.92455 6.41537 8.9557C6.5088 9.01799 6.61781 9.05692 6.7424 9.0725C6.86698 9.08807 6.97599 9.09586 7.06943 9.09586C7.78578 9.06471 8.50214 8.73768 9.21849 8.11476C9.93484 7.49185 10.4176 7.02466 10.6668 6.7132L10.7602 6.61976C10.7914 6.55747 10.8225 6.50297 10.8536 6.45625C10.8848 6.40953 10.9004 6.35502 10.9004 6.29273C10.9004 6.23044 10.8848 6.17594 10.8536 6.12922C10.8225 6.0825 10.7914 6.04357 10.7602 6.01242L9.82584 5.03133C9.63896 4.84445 9.47544 4.63422 9.33529 4.40062C9.19513 4.16703 9.10948 3.91008 9.07833 3.62976C9.01604 3.3806 9.00047 3.11586 9.03162 2.83554C9.06276 2.55523 9.12505 2.29049 9.21849 2.04132C9.31193 1.79216 9.4443 1.56635 9.6156 1.3639C9.7869 1.16146 9.98156 0.982368 10.1996 0.826637C10.4176 0.67091 10.659 0.554111 10.9237 0.476246C11.1885 0.398384 11.461 0.359451 11.7413 0.359451L21.4588 0.40617C21.6457 0.40617 21.8248 0.421741 21.9961 0.452888C22.1674 0.484035 22.3465 0.530754 22.5333 0.593044C22.6891 0.655334 22.8448 0.740986 23.0005 0.849998C23.1563 0.959007 23.2964 1.07581 23.421 1.20039C23.5456 1.32497 23.6546 1.46513 23.748 1.62086C23.8415 1.77658 23.9193 1.93232 23.9816 2.08804C24.0751 2.24377 24.1373 2.41508 24.1685 2.60195C24.1996 2.78883 24.2152 2.9757 24.2152 3.16257V12.8334C24.2152 13.0825 24.1763 13.3395 24.0984 13.6042C24.0205 13.869 23.9038 14.1103 23.748 14.3284C23.5923 14.5464 23.4132 14.741 23.2108 14.9123C23.0083 15.0836 22.7825 15.2316 22.5333 15.3562C22.2842 15.4496 22.0194 15.5041 21.7391 15.5197C21.4588 15.5353 21.1941 15.5275 20.9449 15.4963C20.6646 15.434 20.4076 15.3406 20.174 15.216C19.9404 15.0914 19.7302 14.9357 19.5433 14.7488L18.5622 13.7677C18.5311 13.7366 18.4922 13.7132 18.4454 13.6977C18.3987 13.6821 18.3442 13.6743 18.2819 13.6743C18.2196 13.6743 18.1573 13.6821 18.0951 13.6977C18.0328 13.7132 17.986 13.7366 17.9549 13.7677L8.70459 23.0648C8.45542 23.2828 8.16732 23.4619 7.84029 23.602C7.51326 23.7422 7.16287 23.8123 6.78912 23.8123C6.44651 23.8123 6.10391 23.7422 5.7613 23.602C5.4187 23.4619 5.12281 23.2828 4.87365 23.0648L3.93927 22.0837C3.90813 22.0525 3.86919 22.0292 3.82248 22.0136C3.77576 21.998 3.73682 21.9902 3.70568 21.9902C3.67453 21.9591 3.6356 21.9513 3.58888 21.9669C3.54216 21.9824 3.50323 21.9902 3.47208 21.9902C3.40979 22.0214 3.36307 22.0447 3.33193 22.0603C3.30078 22.0759 3.26964 22.1148 3.23849 22.1771C3.23849 22.2083 3.2307 22.2394 3.21513 22.2705C3.19956 22.3017 3.19177 22.3484 3.19177 22.4107V32.0815C3.19177 32.1126 3.19177 32.1438 3.19177 32.1749C3.19177 32.2061 3.20735 32.2216 3.23849 32.2216C3.23849 32.2528 3.24628 32.2839 3.26185 32.3151C3.27742 32.3462 3.30078 32.3618 3.33193 32.3618C3.33193 32.3929 3.3475 32.4163 3.37865 32.4319C3.40979 32.4474 3.44094 32.4552 3.47208 32.4552C3.50323 32.4864 3.52659 32.502 3.54216 32.502C3.55774 32.502 3.5811 32.502 3.61224 32.502L13.3297 32.5487C13.392 32.5487 13.4388 32.5409 13.4699 32.5253C13.501 32.5097 13.5478 32.502 13.6101 32.502C13.6412 32.4708 13.6646 32.4397 13.6801 32.4085C13.6957 32.3774 13.7191 32.3307 13.7502 32.2684C13.7502 32.2372 13.758 32.1983 13.7736 32.1516C13.7891 32.1048 13.7814 32.0659 13.7502 32.0348C13.7502 32.0036 13.7424 31.9647 13.7269 31.918C13.7113 31.8712 13.6879 31.8323 13.6568 31.8012L12.7224 30.8668C12.4732 30.6176 12.2786 30.3217 12.1384 29.9791C11.9983 29.6365 11.9282 29.2939 11.9282 28.9513C11.9282 28.5776 11.9983 28.2272 12.1384 27.9002C12.2786 27.5731 12.4732 27.285 12.7224 27.0359C12.9404 26.7555 13.174 26.4986 13.4232 26.265C13.6723 26.0314 13.9215 25.79 14.1707 25.5409C14.7002 25.0737 15.2841 24.6921 15.9226 24.3962C16.5611 24.1004 17.223 23.9213 17.9082 23.859C18.1885 23.8278 18.4688 23.8356 18.7491 23.8823C19.0294 23.9291 19.2942 23.9991 19.5433 24.0926C19.8236 24.186 20.0806 24.3184 20.3142 24.4897C20.5478 24.661 20.758 24.8401 20.9449 25.027C21.0383 25.1515 21.1162 25.2839 21.1785 25.4241C21.2408 25.5642 21.2719 25.7122 21.2719 25.8679C21.2719 26.0236 21.2408 26.1716 21.1785 26.3117C21.1162 26.4519 21.0228 26.5842 20.8982 26.7088C20.7736 26.8023 20.6412 26.8801 20.5011 26.9424C20.3609 27.0047 20.213 27.0359 20.0572 27.0359C19.9015 27.0359 19.7536 27.0047 19.6134 26.9424C19.4733 26.8801 19.3409 26.7867 19.2163 26.6621C19.154 26.5687 19.0761 26.4908 18.9827 26.4285C18.8893 26.3662 18.7803 26.3039 18.6557 26.2416C18.5622 26.2105 18.4532 26.1793 18.3286 26.1482C18.2041 26.1171 18.0951 26.1171 18.0016 26.1482C17.2853 26.1793 16.5767 26.5064 15.8759 27.1293C15.1751 27.7522 14.7002 28.2194 14.451 28.5309L14.3576 28.6243C14.3264 28.6554 14.303 28.6944 14.2875 28.7411C14.2719 28.7878 14.2641 28.8423 14.2641 28.9046C14.2641 28.9669 14.2719 29.0214 14.2875 29.0681C14.303 29.1148 14.3264 29.1693 14.3576 29.2316L15.3386 30.166C15.5255 30.3529 15.6813 30.5709 15.8058 30.8201C15.9304 31.0692 16.0239 31.3184 16.0861 31.5676C16.1173 31.8479 16.1251 32.1204 16.1095 32.3852C16.0939 32.6499 16.0239 32.9068 15.8993 33.156C15.8058 33.4052 15.6735 33.631 15.5022 33.8334C15.3309 34.0359 15.1362 34.215 14.9182 34.3707C14.7002 34.5264 14.4588 34.6432 14.194 34.7211C13.9293 34.799 13.6723 34.8379 13.4232 34.8379H13.3297Z" fill="#00B9FF"/>
</svg>
