<svg width="50" height="50" viewBox="0 0 27 20" fill="none" xmlns="http://www.w3.org/2000/svg">
<path id="vantage-bg" class="vantage-bg" d="M26.2218 7.5132C26.1596 7.53393 26.0975 7.54948 26.0353 7.55984C25.9731 7.57021 25.9109 7.57539 25.8487 7.57539C25.5378 7.59612 25.2527 7.67385 24.9936 7.80859C24.7345 7.94333 24.5013 8.11435 24.294 8.32164C24.0867 8.52893 23.9313 8.7725 23.8276 9.05234C23.724 9.33219 23.6721 9.61721 23.6721 9.90742C23.6721 10.1976 23.724 10.4827 23.8276 10.7625C23.9313 11.0423 24.0867 11.2859 24.294 11.4932C24.5013 11.7212 24.7345 11.8974 24.9936 12.0218C25.2527 12.1462 25.5378 12.2187 25.8487 12.2395C25.9109 12.2395 25.9731 12.2446 26.0353 12.255C26.0975 12.2654 26.1596 12.2809 26.2218 12.3016C26.2633 12.3224 26.3099 12.3535 26.3617 12.3949C26.4136 12.4364 26.4706 12.4778 26.5328 12.5193C26.5742 12.5608 26.6105 12.6074 26.6416 12.6592C26.6727 12.711 26.6986 12.768 26.7193 12.8302C26.7401 12.8924 26.7608 12.9546 26.7815 13.0168C26.8022 13.079 26.8126 13.1412 26.8126 13.2034V16.4682C26.8126 16.8206 26.7452 17.1574 26.6105 17.4787C26.4758 17.8001 26.284 18.0747 26.0353 18.3027C25.7865 18.5515 25.5067 18.7432 25.1957 18.878C24.8848 19.0127 24.5531 19.0801 24.2007 19.0801H2.87042C2.51802 19.0801 2.18118 19.0127 1.85987 18.878C1.53857 18.7432 1.26391 18.5515 1.03589 18.3027C0.787139 18.0747 0.595394 17.8001 0.460654 17.4787C0.325915 17.1574 0.258545 16.8206 0.258545 16.4682V13.2034C0.258545 13.079 0.284456 12.9546 0.336279 12.8302C0.388102 12.7059 0.455472 12.6022 0.538389 12.5193C0.642035 12.4364 0.750863 12.369 0.864873 12.3172C0.978883 12.2654 1.09808 12.2395 1.22245 12.2395C1.38828 12.2602 1.54894 12.255 1.7044 12.2239C1.85987 12.1928 2.01016 12.1565 2.15526 12.1151C2.30037 12.0529 2.44547 11.9803 2.59058 11.8974C2.73568 11.8145 2.86006 11.7212 2.9637 11.6176C3.08808 11.5139 3.1969 11.3947 3.29019 11.26C3.38347 11.1253 3.4612 10.9853 3.52339 10.8402C3.58558 10.6951 3.63222 10.5448 3.66331 10.3894C3.6944 10.2339 3.70995 10.0733 3.70995 9.90742C3.70995 9.76232 3.6944 9.60685 3.66331 9.44102C3.63222 9.27518 3.58558 9.11971 3.52339 8.97461C3.4612 8.8295 3.38347 8.69477 3.29019 8.57039C3.1969 8.44602 3.08808 8.32164 2.9637 8.19727C2.86006 8.09362 2.73568 8.00034 2.59058 7.91742C2.44547 7.83451 2.30037 7.77232 2.15526 7.73086C2.01016 7.66867 1.85987 7.62721 1.7044 7.60648C1.54894 7.58576 1.38828 7.57539 1.22245 7.57539C1.16026 7.57539 1.09808 7.57021 1.03589 7.55984C0.973701 7.54948 0.911514 7.53393 0.849326 7.5132C0.787139 7.49247 0.730133 7.46656 0.678311 7.43547C0.626488 7.40438 0.579847 7.35773 0.538389 7.29555C0.49693 7.25409 0.460654 7.20745 0.429561 7.15563C0.398467 7.1038 0.372555 7.0468 0.351826 6.98461C0.310368 6.94315 0.284456 6.89133 0.274092 6.82914C0.263727 6.76695 0.258545 6.6944 0.258545 6.61148V3.34664C0.258545 2.99425 0.325915 2.66258 0.460654 2.35164C0.595394 2.0407 0.787139 1.76086 1.03589 1.51211C1.26391 1.26336 1.53857 1.0768 1.85987 0.952421C2.18118 0.828047 2.51802 0.76586 2.87042 0.76586H24.2007C24.5531 0.76586 24.8848 0.828047 25.1957 0.952421C25.5067 1.0768 25.7865 1.26336 26.0353 1.51211C26.284 1.76086 26.4758 2.0407 26.6105 2.35164C26.7452 2.66258 26.8126 2.99425 26.8126 3.34664V6.61148C26.8126 6.6944 26.8074 6.76695 26.7971 6.82914C26.7867 6.89133 26.7608 6.94315 26.7193 6.98461C26.6986 7.0468 26.6727 7.1038 26.6416 7.15563C26.6105 7.20745 26.5742 7.26445 26.5328 7.32664C26.4913 7.3681 26.4395 7.40438 26.3773 7.43547C26.3151 7.46656 26.2633 7.49247 26.2218 7.5132ZM22.5217 12.5504C22.2315 12.1773 22.0086 11.7627 21.8532 11.3066C21.6977 10.8506 21.62 10.3842 21.62 9.90742C21.62 9.43065 21.6977 8.96424 21.8532 8.5082C22.0086 8.05216 22.2315 7.63758 22.5217 7.26445C22.8326 6.89133 23.1902 6.58039 23.5944 6.33164C23.9986 6.08289 24.4288 5.89633 24.8848 5.77195V3.34664C24.8848 3.26372 24.8692 3.18081 24.8382 3.09789C24.8071 3.01497 24.7501 2.93206 24.6671 2.84914C24.605 2.78695 24.5324 2.74031 24.4495 2.70922C24.3666 2.67813 24.2836 2.66258 24.2007 2.66258H2.87042C2.76677 2.66258 2.67349 2.67813 2.59058 2.70922C2.50766 2.74031 2.43511 2.79732 2.37292 2.88023C2.31073 2.94242 2.26409 3.01497 2.233 3.09789C2.2019 3.18081 2.18636 3.26372 2.18636 3.34664V5.77195C2.6424 5.89633 3.07253 6.08807 3.47675 6.34719C3.88097 6.6063 4.22818 6.92242 4.51839 7.29555C4.82933 7.66867 5.06253 8.07807 5.218 8.52375C5.37347 8.96943 5.4512 9.43065 5.4512 9.90742C5.4512 10.3842 5.37347 10.8506 5.218 11.3066C5.06253 11.7627 4.82933 12.1773 4.51839 12.5504C4.22818 12.9235 3.88097 13.2396 3.47675 13.4988C3.07253 13.7579 2.6424 13.9392 2.18636 14.0429V16.4682C2.18636 16.5718 2.2019 16.6651 2.233 16.748C2.26409 16.831 2.31073 16.9035 2.37292 16.9657C2.43511 17.0279 2.50766 17.0745 2.59058 17.1056C2.67349 17.1367 2.76677 17.1523 2.87042 17.1523H24.2007C24.2836 17.1523 24.3666 17.1367 24.4495 17.1056C24.5324 17.0745 24.6153 17.0279 24.6982 16.9657C24.7604 16.9035 24.8071 16.831 24.8382 16.748C24.8692 16.6651 24.8848 16.5718 24.8848 16.4682V14.0429C24.4288 13.9392 23.9934 13.7579 23.5789 13.4988C23.1643 13.2396 22.8119 12.9235 22.5217 12.5504ZM11.5767 5.18117C11.7218 5.38846 11.8358 5.61648 11.9187 5.86523C12.0016 6.11398 12.0431 6.36273 12.0431 6.61148C12.0431 6.96388 11.9757 7.30073 11.841 7.62203C11.7062 7.94333 11.5145 8.22836 11.2657 8.47711C11.017 8.70513 10.7371 8.88651 10.4262 9.02125C10.1153 9.15599 9.7836 9.22336 9.4312 9.22336C9.16172 9.22336 8.90779 9.18708 8.6694 9.11453C8.43102 9.04198 8.19782 8.93315 7.96979 8.78805C7.7625 8.64294 7.57594 8.47193 7.41011 8.275C7.24427 8.07807 7.10953 7.8656 7.00589 7.63758C6.92297 7.38883 6.86597 7.1349 6.83487 6.87578C6.80378 6.61667 6.81933 6.36273 6.88151 6.11398C6.92297 5.86523 7.00589 5.62685 7.13026 5.39883C7.25464 5.17081 7.41011 4.96352 7.59667 4.77695C7.7625 4.59039 7.95943 4.4401 8.18745 4.32609C8.41547 4.21208 8.66422 4.12398 8.9337 4.0618C9.18245 4.02034 9.4312 4.00997 9.67995 4.0307C9.9287 4.05143 10.1775 4.11362 10.4262 4.21727C10.6542 4.32091 10.8719 4.45565 11.0792 4.62148C11.2865 4.78732 11.4523 4.97388 11.5767 5.18117ZM9.80433 6.0518C9.76287 6.01034 9.70586 5.98443 9.63331 5.97406C9.56076 5.9637 9.49339 5.95852 9.4312 5.95852C9.34828 5.95852 9.26537 5.97406 9.18245 6.00516C9.09953 6.03625 9.02698 6.08289 8.9648 6.14508C8.88188 6.20727 8.82487 6.27982 8.79378 6.36273C8.76269 6.44565 8.74714 6.52857 8.74714 6.61148C8.74714 6.6944 8.7575 6.76695 8.77823 6.82914C8.79896 6.89133 8.83006 6.95352 8.87151 7.0157C8.89224 7.07789 8.9337 7.12971 8.99589 7.17117C9.05808 7.21263 9.12026 7.24372 9.18245 7.26445C9.24464 7.30591 9.30683 7.32664 9.36901 7.32664C9.4312 7.32664 9.49339 7.32664 9.55558 7.32664C9.63849 7.30591 9.71105 7.28 9.77323 7.24891C9.83542 7.21781 9.88724 7.18154 9.9287 7.14008C9.97016 7.07789 10.0064 7.0157 10.0375 6.95352C10.0686 6.89133 10.0945 6.82914 10.1153 6.76695C10.136 6.70477 10.1412 6.6374 10.1308 6.56484C10.1204 6.49229 10.1049 6.42492 10.0842 6.36273C10.0427 6.30055 10.0013 6.24354 9.95979 6.19172C9.91834 6.1399 9.86651 6.09326 9.80433 6.0518ZM18.4484 10.5915C18.1996 10.5915 17.9509 10.6278 17.7021 10.7003C17.4534 10.7729 17.2254 10.8817 17.0181 11.0268C16.7901 11.1719 16.5931 11.3481 16.4273 11.5554C16.2615 11.7627 16.1371 11.9803 16.0542 12.2084C15.9505 12.4571 15.8883 12.7059 15.8676 12.9546C15.8469 13.2034 15.8572 13.4521 15.8987 13.7009C15.9402 13.9703 16.0231 14.2191 16.1475 14.4471C16.2718 14.6751 16.4273 14.8721 16.6139 15.0379C16.8004 15.2245 17.0077 15.3799 17.2357 15.5043C17.4638 15.6287 17.7021 15.7116 17.9509 15.753C18.1996 15.8152 18.4536 15.8308 18.7127 15.7997C18.9718 15.7686 19.2154 15.7012 19.4434 15.5976C19.6921 15.4939 19.915 15.3644 20.1119 15.2089C20.3088 15.0534 20.4798 14.8617 20.625 14.6337C20.7701 14.4264 20.8789 14.1984 20.9514 13.9496C21.024 13.7009 21.0603 13.4521 21.0603 13.2034C21.0603 13.0168 21.0447 12.8406 21.0136 12.6748C20.9825 12.5089 20.9359 12.3535 20.8737 12.2084C20.7908 12.0425 20.7027 11.8871 20.6094 11.742C20.5161 11.5968 20.4073 11.4725 20.2829 11.3688C20.1793 11.2445 20.0549 11.1356 19.9098 11.0423C19.7647 10.9491 19.6092 10.861 19.4434 10.778C19.2983 10.7159 19.1376 10.6692 18.9614 10.6381C18.7852 10.607 18.6142 10.5915 18.4484 10.5915ZM18.4484 13.8874C18.3862 13.8874 18.324 13.8771 18.2618 13.8563C18.1996 13.8356 18.1375 13.8045 18.0753 13.763C18.0131 13.7216 17.9613 13.6749 17.9198 13.6231C17.8783 13.5713 17.8472 13.5143 17.8265 13.4521C17.7851 13.3899 17.7643 13.3277 17.7643 13.2655C17.7643 13.2034 17.7643 13.1308 17.7643 13.0479C17.7851 12.9857 17.811 12.9235 17.8421 12.8613C17.8732 12.7991 17.9094 12.7473 17.9509 12.7059C18.0131 12.6644 18.0753 12.6281 18.1375 12.597C18.1996 12.5659 18.2618 12.54 18.324 12.5193C18.3862 12.4986 18.4536 12.4934 18.5261 12.5037C18.5987 12.5141 18.666 12.5297 18.7282 12.5504C18.7904 12.5711 18.8474 12.6074 18.8992 12.6592C18.9511 12.711 18.9977 12.7577 19.0392 12.7991C19.0599 12.8613 19.0806 12.9235 19.1014 12.9857C19.1221 13.0479 19.1325 13.1204 19.1325 13.2034C19.1325 13.2863 19.1169 13.3692 19.0858 13.4521C19.0547 13.535 19.0081 13.6076 18.9459 13.6698C18.8837 13.732 18.8111 13.7838 18.7282 13.8252C18.6453 13.8667 18.552 13.8874 18.4484 13.8874ZM18.5106 5.42992C18.552 5.49211 18.5779 5.5543 18.5883 5.61648C18.5987 5.67867 18.6039 5.74086 18.6039 5.80305C18.6039 5.86523 18.5987 5.92742 18.5883 5.98961C18.5779 6.0518 18.552 6.11398 18.5106 6.17617C18.4898 6.23836 18.4639 6.29536 18.4328 6.34719C18.4017 6.39901 18.3655 6.44565 18.324 6.48711L10.1153 14.6959C10.0738 14.7373 10.0272 14.7788 9.97534 14.8202C9.92352 14.8617 9.86651 14.8928 9.80433 14.9135C9.74214 14.9342 9.67995 14.9498 9.61776 14.9602C9.55558 14.9705 9.49339 14.9757 9.4312 14.9757C9.36901 14.9757 9.30683 14.9705 9.24464 14.9602C9.18245 14.9498 9.12026 14.9342 9.05808 14.9135C8.99589 14.8721 8.93888 14.8358 8.88706 14.8047C8.83524 14.7736 8.7886 14.7373 8.74714 14.6959C8.66422 14.5922 8.59685 14.4834 8.54503 14.3694C8.49321 14.2554 8.46729 14.1362 8.46729 14.0118C8.46729 13.8874 8.49321 13.7682 8.54503 13.6542C8.59685 13.5402 8.66422 13.4314 8.74714 13.3277L16.9559 5.11898C17.0388 5.03607 17.1425 4.97388 17.2668 4.93242C17.3912 4.89096 17.5156 4.87023 17.64 4.87023C17.7643 4.87023 17.8835 4.89096 17.9975 4.93242C18.1115 4.97388 18.2204 5.03607 18.324 5.11898C18.3655 5.16044 18.4017 5.20708 18.4328 5.25891C18.4639 5.31073 18.4898 5.36773 18.5106 5.42992Z" fill="#D5B85D"/>
</svg>
