<svg width="25" height="20" viewBox="0 0 19 14" fill="none" xmlns="http://www.w3.org/2000/svg">
<path id="X-news-bg" class="X-news-bg" d="M18.8026 1.58168C18.4613 1.70965 18.113 1.81984 17.7575 1.91227C17.4021 2.00469 17.0324 2.07223 16.6485 2.11488C17.0324 1.9016 17.3665 1.635 17.6509 1.31508C17.9353 0.995156 18.1485 0.636132 18.2907 0.238008C17.9353 0.43707 17.5585 0.60414 17.1603 0.739219C16.7622 0.874297 16.3499 0.984492 15.9233 1.0698C15.5821 0.742773 15.1768 0.483281 14.7076 0.291328C14.2384 0.0993748 13.7336 0.00339794 13.1933 0.00339794C12.1696 0.00339794 11.2915 0.33043 10.5593 0.984492C9.82701 1.63855 9.46088 2.4348 9.46088 3.37324C9.46088 3.51543 9.46799 3.65051 9.48221 3.77848C9.49643 3.90645 9.52486 4.0273 9.56752 4.14105C8.78549 4.11262 8.03189 4.00598 7.30674 3.82113C6.58158 3.65051 5.89197 3.41234 5.23791 3.10664C4.58385 2.80094 3.97244 2.4348 3.40369 2.00824C2.83494 1.5959 2.32307 1.13379 1.86807 0.621914C1.69744 0.863633 1.56947 1.13023 1.48416 1.42172C1.39885 1.7132 1.35619 2.00824 1.35619 2.30684C1.35619 2.90402 1.50904 3.44789 1.81475 3.93844C2.12045 4.42898 2.52213 4.82355 3.01979 5.12215C2.70697 5.12215 2.40838 5.0866 2.124 5.01551C1.83963 4.94441 1.57658 4.84488 1.33486 4.71691V4.75957C1.33486 5.57004 1.61924 6.28453 2.18799 6.90305C2.75674 7.52156 3.46768 7.90902 4.3208 8.06543C4.16439 8.10809 4.00443 8.14008 3.84092 8.16141C3.6774 8.18273 3.51033 8.1934 3.33971 8.1934C3.21174 8.1934 3.09088 8.18629 2.97713 8.17207C2.86338 8.15785 2.74963 8.14363 2.63588 8.12941C2.8776 8.7977 3.31482 9.35223 3.94756 9.79301C4.58029 10.2338 5.309 10.4613 6.13369 10.4755C5.49385 10.9305 4.77936 11.286 3.99021 11.5419C3.20107 11.7979 2.36572 11.9258 1.48416 11.9258C1.34197 11.9258 1.19623 11.9223 1.04693 11.9152C0.897637 11.908 0.744785 11.8974 0.588379 11.8832C1.41307 12.3666 2.3124 12.7398 3.28639 13.0029C4.26037 13.2659 5.27346 13.3975 6.32564 13.3975C8.03189 13.3975 9.54619 13.106 10.8685 12.523C12.1909 11.94 13.3035 11.1864 14.2064 10.2622C15.1093 9.33801 15.7882 8.30715 16.2432 7.16965C16.7124 6.01793 16.9471 4.88754 16.9471 3.77848C16.9471 3.70738 16.9435 3.63273 16.9364 3.55453C16.9293 3.47633 16.9257 3.40168 16.9257 3.33059C17.2954 3.08887 17.6367 2.82227 17.9495 2.53078C18.2623 2.2393 18.5467 1.92293 18.8026 1.58168Z" fill="white"/>
</svg>
