<svg width="25" height="20" viewBox="0 0 19 13" fill="none" xmlns="http://www.w3.org/2000/svg">
<path id="youtube-bg-2" class="youtube-bg-2" d="M13.5664 0.00294876C15.813 0.00294876 17.1638 0.333535 17.6188 0.994707C18.0738 1.65588 18.3084 2.83248 18.3226 4.52451V8.001C18.3226 9.92053 17.9885 11.1896 17.3202 11.8081C16.6519 12.4266 15.4007 12.7358 13.5664 12.7358H4.86457C2.87395 12.7358 1.58715 12.3626 1.00418 11.6161C0.421211 10.8696 0.122617 9.72857 0.108398 8.19295V4.18326C0.122617 2.70451 0.357227 1.63811 0.812227 0.984043C1.26723 0.329981 2.61801 0.00294876 4.86457 0.00294876H13.5664ZM7.35996 3.71404V8.85412L12.2654 6.27342L7.35996 3.71404Z" fill="white"/>
</svg>
