<svg width="30" height="22" viewBox="0 0 30 22" fill="none" xmlns="http://www.w3.org/2000/svg">
<path id="Vector" d="M28.2711 2.18242C28.4979 2.43193 28.7077 2.69277 28.9005 2.96496C29.0933 3.23715 29.2464 3.53202 29.3598 3.84957C29.4959 4.16712 29.598 4.49602 29.666 4.83625C29.7341 5.17649 29.7681 5.51672 29.7681 5.85695V16.7445C29.7681 17.0847 29.7341 17.4249 29.666 17.7652C29.598 18.1054 29.4959 18.4343 29.3598 18.7518C29.2464 19.0467 29.0933 19.3359 28.9005 19.6194C28.7077 19.903 28.4979 20.1695 28.2711 20.419C28.0215 20.6458 27.755 20.8556 27.4715 21.0484C27.188 21.2412 26.8874 21.4057 26.5699 21.5418C26.275 21.6552 25.9575 21.7459 25.6172 21.8139C25.277 21.882 24.9368 21.916 24.5965 21.916H5.91766C5.57742 21.916 5.23719 21.882 4.89695 21.8139C4.55672 21.7459 4.23917 21.6552 3.9443 21.5418C3.62674 21.4057 3.3262 21.2412 3.04268 21.0484C2.75915 20.8556 2.49263 20.6458 2.24312 20.419C1.7668 19.92 1.39821 19.3529 1.13736 18.7178C0.876517 18.0827 0.746094 17.4249 0.746094 16.7445V5.85695C0.746094 5.1538 0.876517 4.48467 1.13736 3.84957C1.39821 3.21447 1.7668 2.65875 2.24312 2.18242C2.49263 1.93292 2.75915 1.71743 3.04268 1.53598C3.3262 1.35452 3.62674 1.19574 3.9443 1.05965C4.23917 0.923555 4.55672 0.821484 4.89695 0.753437C5.23719 0.68539 5.57742 0.662708 5.91766 0.68539H24.5965C24.9368 0.68539 25.277 0.713743 25.6172 0.770449C25.9575 0.827154 26.2864 0.923555 26.6039 1.05965C26.9215 1.19574 27.2163 1.35452 27.4885 1.53598C27.7607 1.71743 28.0215 1.93292 28.2711 2.18242ZM27.4545 17.9353C27.5225 17.7538 27.5736 17.561 27.6076 17.3569C27.6416 17.1527 27.67 16.9486 27.6927 16.7445V5.85695C27.6927 5.65281 27.6756 5.44867 27.6416 5.24453C27.6076 5.04039 27.5566 4.84759 27.4885 4.66613C27.3978 4.48467 27.2957 4.30889 27.1823 4.13877C27.0689 3.96865 26.9441 3.81555 26.808 3.67945C26.672 3.52068 26.5188 3.39025 26.3487 3.28818C26.1786 3.18611 26.0028 3.08971 25.8214 2.99898C25.6172 2.93094 25.4131 2.87423 25.2089 2.82887C25.0048 2.7835 24.8007 2.76082 24.5965 2.76082H5.91766C5.71352 2.76082 5.50938 2.7835 5.30523 2.82887C5.10109 2.87423 4.90829 2.93094 4.72684 2.99898C4.54538 3.06703 4.36959 3.15776 4.19947 3.27117C4.02936 3.38458 3.87625 3.50934 3.74016 3.64543C3.58138 3.8042 3.45096 3.96865 3.34889 4.13877C3.24682 4.30889 3.15042 4.48467 3.05969 4.66613C2.99164 4.84759 2.93493 5.04039 2.88957 5.24453C2.84421 5.44867 2.82152 5.65281 2.82152 5.85695V16.7445C2.82152 16.9486 2.84421 17.1527 2.88957 17.3569C2.93493 17.561 2.99164 17.7538 3.05969 17.9353C3.15042 18.1167 3.24682 18.2925 3.34889 18.4626C3.45096 18.6328 3.58138 18.7972 3.74016 18.956C3.87625 19.0921 4.02936 19.2168 4.19947 19.3302C4.36959 19.4436 4.54538 19.5344 4.72684 19.6024C4.90829 19.6932 5.10109 19.7555 5.30523 19.7896C5.50938 19.8236 5.71352 19.8406 5.91766 19.8406H24.5965C24.8007 19.8406 25.0048 19.8179 25.2089 19.7725C25.4131 19.7272 25.6059 19.6705 25.7873 19.6024C25.9688 19.5344 26.1446 19.4436 26.3147 19.3302C26.4848 19.2168 26.6379 19.0921 26.774 18.956C26.9101 18.7972 27.0349 18.6384 27.1483 18.4796C27.2617 18.3209 27.3638 18.1394 27.4545 17.9353ZM12.8244 4.7682L20.922 9.97379C21.0127 10.0192 21.0864 10.0702 21.1431 10.1269C21.1999 10.1836 21.2509 10.2573 21.2962 10.348C21.3416 10.4161 21.3756 10.4955 21.3983 10.5862C21.421 10.6769 21.4323 10.7563 21.4323 10.8244C21.4323 10.9151 21.421 11.0058 21.3983 11.0966C21.3756 11.1873 21.3416 11.2667 21.2962 11.3347C21.2509 11.4255 21.1999 11.4992 21.1431 11.5559C21.0864 11.6126 21.0127 11.6636 20.922 11.709L12.8244 16.9146C12.7564 16.9599 12.677 16.994 12.5863 17.0166C12.4955 17.0393 12.4048 17.062 12.3141 17.0847C12.2233 17.0847 12.1326 17.0733 12.0419 17.0507C11.9511 17.028 11.8718 16.994 11.8037 16.9486C11.713 16.9032 11.6336 16.8465 11.5655 16.7785C11.4975 16.7104 11.4408 16.631 11.3954 16.5403C11.3501 16.4723 11.316 16.3929 11.2934 16.3021C11.2707 16.2114 11.2593 16.1207 11.2593 16.03V5.65281C11.2593 5.56208 11.2707 5.47135 11.2934 5.38062C11.316 5.2899 11.3501 5.19917 11.3954 5.10844C11.4408 5.04039 11.4975 4.97234 11.5655 4.9043C11.6336 4.83625 11.713 4.77954 11.8037 4.73418C11.8718 4.68881 11.9511 4.65479 12.0419 4.63211C12.1326 4.60943 12.212 4.59809 12.28 4.59809C12.3708 4.59809 12.4615 4.6151 12.5522 4.64912C12.643 4.68314 12.7337 4.72284 12.8244 4.7682ZM13.3007 7.55812V14.0906L18.4043 10.8584L13.3007 7.55812Z" fill="#00B9FF"/>
</svg>
